Hack-Bold-PS.ufo
<glyph name="quotedbl" format="1">
  <advance width="1233"/>
  <unicode hex="0022"/>
  <outline>
    <contour>
      <point x="231" y="1493" type="line" name="sh01"/>
      <point x="487" y="1493" type="line" name="sh02"/>
      <point x="487" y="938" type="line" name="av01"/>
      <point x="231" y="938" type="line"/>
    </contour>
    <contour>
      <point x="743" y="1493" type="line" name="ah01"/>
      <point x="999" y="1493" type="line" name="sh03"/>
      <point x="999" y="938" type="line" name="av02"/>
      <point x="743" y="938" type="line"/>
    </contour>
  </outline>
</glyph>
<glyph name="percent" format="1">
  <advance width="1233"/>
  <unicode hex="0025"/>
  <outline>
    <contour>
      <point x="352" y="793" type="curve" smooth="yes" name="dv05"/>
      <point x="263" y="793"/>
      <point x="188" y="824" name="dh01"/>
      <point x="126" y="886" type="curve" smooth="yes"/>
      <point x="66" y="946" name="dv02"/>
      <point x="33" y="1019"/>
      <point x="33" y="1112" type="curve" smooth="yes" name="dh04"/>
      <point x="33" y="1201"/>
      <point x="64" y="1277"/>
      <point x="126" y="1339" type="curve" smooth="yes" name="dv06"/>
      <point x="188" y="1401"/>
      <point x="263" y="1432" name="dh03"/>
      <point x="352" y="1432" type="curve" smooth="yes"/>
      <point x="444" y="1432" name="dv01"/>
      <point x="519" y="1399"/>
      <point x="579" y="1339" type="curve" smooth="yes" name="dh02"/>
      <point x="639" y="1279"/>
      <point x="672" y="1204"/>
      <point x="672" y="1112" type="curve" smooth="yes"/>
      <point x="672" y="1023" name="ih01"/>
      <point x="641" y="948"/>
      <point x="579" y="886" type="curve" smooth="yes" name="ih02"/>
      <point x="519" y="826" name="ab01"/>
      <point x="444" y="793"/>
    </contour>
    <contour>
      <point x="352" y="975" type="curve" smooth="yes"/>
      <point x="391" y="975" name="dv04"/>
      <point x="423" y="988"/>
      <point x="450" y="1015" type="curve" smooth="yes" name="dh06"/>
      <point x="476" y="1041"/>
      <point x="489" y="1073"/>
      <point x="489" y="1112" type="curve" smooth="yes" name="sv01"/>
      <point x="489" y="1150"/>
      <point x="476" y="1182" name="dh05"/>
      <point x="449" y="1209" type="curve" smooth="yes"/>
      <point x="422" y="1236" name="dv03"/>
      <point x="390" y="1249"/>
      <point x="352" y="1249" type="curve" smooth="yes" name="sh01"/>
      <point x="314" y="1249"/>
      <point x="282" y="1236"/>
      <point x="255" y="1210" type="curve" smooth="yes" name="hr01"/>
      <point x="228" y="1183" name="sh02"/>
      <point x="215" y="1151"/>
      <point x="215" y="1112" type="curve" smooth="yes" name="hr02"/>
      <point x="215" y="1068"/>
      <point x="231" y="1039"/>
      <point x="255" y="1015" type="curve" smooth="yes" name="hr03"/>
      <point x="282" y="988"/>
      <point x="314" y="975"/>
    </contour>
    <contour>
      <point x="48" y="561" type="line"/>
      <point x="1191" y="997" type="line"/>
      <point x="1191" y="883" type="line"/>
      <point x="52" y="451" type="line"/>
    </contour>
    <contour>
      <point x="898" y="0" type="curve" smooth="yes"/>
      <point x="803" y="0"/>
      <point x="724" y="40"/>
      <point x="672" y="92" type="curve" smooth="yes"/>
      <point x="608" y="156"/>
      <point x="580" y="238"/>
      <point x="580" y="321" type="curve" smooth="yes"/>
      <point x="580" y="405"/>
      <point x="611" y="483"/>
      <point x="672" y="546" type="curve" smooth="yes"/>
      <point x="729" y="605"/>
      <point x="807" y="639"/>
      <point x="898" y="639" type="curve" smooth="yes"/>
      <point x="989" y="639"/>
      <point x="1065" y="606"/>
      <point x="1125" y="547" type="curve" smooth="yes"/>
      <point x="1182" y="491"/>
      <point x="1219" y="412"/>
      <point x="1219" y="320" type="curve" smooth="yes"/>
      <point x="1219" y="233"/>
      <point x="1186" y="153"/>
      <point x="1126" y="93" type="curve" smooth="yes"/>
      <point x="1070" y="37"/>
      <point x="989" y="0"/>
    </contour>
    <contour>
      <point x="898" y="182" type="curve" smooth="yes"/>
      <point x="937" y="182"/>
      <point x="969" y="195"/>
      <point x="996" y="222" type="curve" smooth="yes"/>
      <point x="1023" y="249"/>
      <point x="1036" y="281"/>
      <point x="1036" y="319" type="curve" smooth="yes"/>
      <point x="1036" y="357"/>
      <point x="1022" y="390"/>
      <point x="995" y="417" type="curve" smooth="yes"/>
      <point x="968" y="444"/>
      <point x="934" y="457"/>
      <point x="898" y="457" type="curve" smooth="yes"/>
      <point x="860" y="457"/>
      <point x="828" y="444"/>
      <point x="801" y="417" type="curve" smooth="yes"/>
      <point x="774" y="390"/>
      <point x="762" y="355"/>
      <point x="762" y="319" type="curve" smooth="yes"/>
      <point x="762" y="279"/>
      <point x="778" y="244"/>
      <point x="801" y="221" type="curve" smooth="yes"/>
      <point x="827" y="195"/>
      <point x="859" y="182"/>
    </contour>
  </outline>
</glyph>
<glyph name="parenleft" format="1">
  <advance width="1233"/>
  <unicode hex="0028"/>
  <outline>
    <contour>
      <point x="596" y="-270" type="line" name="av01"/>
      <point x="497" y="-127"/>
      <point x="416" y="23" name="dh01"/>
      <point x="360" y="186" type="curve" smooth="yes"/>
      <point x="309" y="336" name="at01"/>
      <point x="283" y="488"/>
      <point x="283" y="643" type="curve" smooth="yes"/>
      <point x="283" y="797" name="dh02"/>
      <point x="309" y="950"/>
      <point x="361" y="1101" type="curve" smooth="yes" name="av02"/>
      <point x="412" y="1248"/>
      <point x="484" y="1393"/>
      <point x="596" y="1554" type="curve"/>
      <point x="824" y="1554" type="line"/>
      <point x="739" y="1399"/>
      <point x="672" y="1244"/>
      <point x="628" y="1091" type="curve" smooth="yes"/>
      <point x="585" y="943"/>
      <point x="564" y="794"/>
      <point x="564" y="643" type="curve" smooth="yes"/>
      <point x="564" y="494"/>
      <point x="585" y="345"/>
      <point x="628" y="196" type="curve" smooth="yes"/>
      <point x="671" y="45"/>
      <point x="737" y="-111"/>
      <point x="824" y="-270" type="curve"/>
    </contour>
  </outline>
</glyph>
<glyph name="two" format="1">
  <advance width="1233"/>
  <unicode hex="0032"/>
  <outline>
    <contour>
      <point x="115" y="216" type="line" smooth="yes" name="hr00"/>
      <point x="115" y="241"/>
      <point x="123" y="259"/>
      <point x="140" y="278" type="curve" smooth="yes"/>
      <point x="275" y="422" type="line" smooth="yes"/>
      <point x="498" y="661" name="dh01"/>
      <point x="560" y="727"/>
      <point x="621" y="796" type="curve" smooth="yes" name="sv01"/>
      <point x="670" y="853"/>
      <point x="706" y="898" name="iv01"/>
      <point x="729" y="947" type="curve" smooth="yes"/>
      <point x="751" y="992"/>
      <point x="762" y="1037" name="at01"/>
      <point x="762" y="1082" type="curve" smooth="yes"/>
      <point x="762" y="1142" name="sh01"/>
      <point x="743" y="1197"/>
      <point x="702" y="1234" type="curve" smooth="yes"/>
      <point x="661" y="1271"/>
      <point x="601" y="1288" name="sv02"/>
      <point x="530" y="1288" type="curve" smooth="yes" name="dh02"/>
      <point x="476" y="1288" name="ab01"/>
      <point x="417" y="1278"/>
      <point x="353" y="1257" type="curve" smooth="yes"/>
      <point x="288" y="1236" name="sh02"/>
      <point x="219" y="1206"/>
      <point x="147" y="1165" type="curve"/>
      <point x="147" y="1440" type="line"/>
      <point x="227" y="1469"/>
      <point x="301" y="1489"/>
      <point x="357" y="1500" type="curve" smooth="yes"/>
      <point x="424" y="1513"/>
      <point x="490" y="1520"/>
      <point x="557" y="1520" type="curve" smooth="yes"/>
      <point x="702" y="1520"/>
      <point x="831" y="1486"/>
      <point x="926" y="1410" type="curve" smooth="yes"/>
      <point x="1011" y="1341"/>
      <point x="1061" y="1243"/>
      <point x="1061" y="1104" type="curve" smooth="yes"/>
      <point x="1061" y="1045"/>
      <point x="1052" y="998"/>
      <point x="1031" y="943" type="curve"/>
      <point x="1008" y="887"/>
      <point x="974" y="828"/>
      <point x="930" y="772" type="curve" smooth="yes"/>
      <point x="883" y="714"/>
      <point x="802" y="629"/>
      <point x="639" y="466" type="curve"/>
      <point x="492" y="317"/>
      <point x="455" y="314"/>
      <point x="404" y="260" type="curve"/>
      <point x="1063" y="260" type="line"/>
      <point x="1063" y="0" type="line"/>
      <point x="115" y="0" type="line"/>
    </contour>
  </outline>
</glyph>
<glyph name="semicolon" format="1">
  <advance width="1233"/>
  <unicode hex="003B"/>
  <outline>
    <contour>
      <point x="609" y="695" type="curve" smooth="yes" name="dv01"/>
      <point x="554" y="695"/>
      <point x="510" y="717" name="dh01"/>
      <point x="479" y="748" type="curve" smooth="yes"/>
      <point x="440" y="787" name="dv02"/>
      <point x="425" y="836"/>
      <point x="425" y="888" type="curve" smooth="yes" name="dh02"/>
      <point x="425" y="948"/>
      <point x="447" y="996"/>
      <point x="478" y="1028" type="curve"/>
      <point x="514" y="1063"/>
      <point x="561" y="1081"/>
      <point x="612" y="1081" type="curve" smooth="yes" name="ih01"/>
      <point x="663" y="1081" name="ab01"/>
      <point x="706" y="1063"/>
      <point x="743" y="1028" type="curve"/>
      <point x="775" y="995" name="sh01"/>
      <point x="796" y="949"/>
      <point x="796" y="889" type="curve" smooth="yes"/>
      <point x="796" y="829" name="sv01"/>
      <point x="775" y="781"/>
      <point x="743" y="748" type="curve"/>
      <point x="710" y="716"/>
      <point x="662" y="695" name="sh02"/>
    </contour>
    <contour>
      <point x="373" y="-346" type="line"/>
      <point x="388" y="-339" type="line" smooth="yes" name="av01"/>
      <point x="461" y="-308"/>
      <point x="528" y="-260"/>
      <point x="571" y="-207" type="curve" smooth="yes"/>
      <point x="610" y="-159"/>
      <point x="637" y="-94"/>
      <point x="642" y="-21" type="curve"/>
      <point x="635" y="-22"/>
      <point x="631" y="-23"/>
      <point x="629" y="-23" type="curve" smooth="yes"/>
      <point x="619" y="-23" type="line" smooth="yes"/>
      <point x="572" y="-23"/>
      <point x="523" y="-9"/>
      <point x="490" y="22" type="curve" smooth="yes"/>
      <point x="455" y="53"/>
      <point x="439" y="97"/>
      <point x="439" y="150" type="curve" smooth="yes"/>
      <point x="439" y="204"/>
      <point x="457" y="247"/>
      <point x="493" y="278" type="curve" smooth="yes"/>
      <point x="512" y="294"/>
      <point x="530" y="305"/>
      <point x="553" y="314" type="curve" smooth="yes"/>
      <point x="572" y="321"/>
      <point x="596" y="325"/>
      <point x="624" y="325" type="curve" smooth="yes"/>
      <point x="655" y="325"/>
      <point x="684" y="320"/>
      <point x="711" y="305" type="curve" name="hr01"/>
      <point x="738" y="292"/>
      <point x="759" y="273"/>
      <point x="776" y="247" type="curve" smooth="yes"/>
      <point x="795" y="219"/>
      <point x="807" y="192"/>
      <point x="815" y="157" type="curve" smooth="yes"/>
      <point x="824" y="122"/>
      <point x="828" y="84"/>
      <point x="828" y="41" type="curve" smooth="yes"/>
      <point x="828" y="-84"/>
      <point x="793" y="-191"/>
      <point x="729" y="-278" type="curve" smooth="yes"/>
      <point x="667" y="-364"/>
      <point x="573" y="-431"/>
      <point x="448" y="-478" type="curve" smooth="yes"/>
      <point x="434" y="-483" type="line"/>
    </contour>
  </outline>
</glyph>
<glyph name="J" format="1">
  <advance width="1233"/>
  <unicode hex="004A"/>
  <outline>
    <contour>
      <point x="524" y="-29" type="curve" smooth="yes" name="dv01"/>
      <point x="447" y="-29"/>
      <point x="387" y="-20"/>
      <point x="318" y="-3" type="curve" smooth="yes"/>
      <point x="250" y="14"/>
      <point x="184" y="38" name="dv02"/>
      <point x="109" y="74" type="curve"/>
      <point x="109" y="416" type="line" name="dh01"/>
      <point x="166" y="356" name="sv01"/>
      <point x="228" y="313"/>
      <point x="293" y="282" type="curve" smooth="yes" name="at01"/>
      <point x="357" y="251"/>
      <point x="423" y="236" name="dh02"/>
      <point x="490" y="236" type="curve" smooth="yes"/>
      <point x="567" y="236"/>
      <point x="623" y="255"/>
      <point x="659" y="294" type="curve" smooth="yes" name="sh01"/>
      <point x="695" y="333"/>
      <point x="713" y="394"/>
      <point x="713" y="479" type="curve" smooth="yes"/>
      <point x="713" y="1233" type="line"/>
      <point x="352" y="1233" type="line"/>
      <point x="352" y="1493" type="line"/>
      <point x="1008" y="1493" type="line"/>
      <point x="1008" y="479" type="line" smooth="yes"/>
      <point x="1008" y="297"/>
      <point x="970" y="167"/>
      <point x="894" y="89" type="curve" smooth="yes"/>
      <point x="817" y="9"/>
      <point x="685" y="-29"/>
    </contour>
  </outline>
</glyph>
<glyph name="S" format="1">
  <advance width="1233"/>
  <unicode hex="0053"/>
  <outline>
    <contour>
      <point x="582" y="-29" type="curve" smooth="yes" name="dv01"/>
      <point x="502" y="-29"/>
      <point x="427" y="-22" name="sh02"/>
      <point x="351" y="-3" type="curve" smooth="yes" name="ih01"/>
      <point x="275" y="15"/>
      <point x="203" y="41" name="dv02"/>
      <point x="135" y="76" type="curve"/>
      <point x="135" y="381" type="line" name="ah02"/>
      <point x="218" y="322"/>
      <point x="288" y="284"/>
      <point x="364" y="256" type="curve" smooth="yes"/>
      <point x="438" y="229"/>
      <point x="510" y="215" name="sh01"/>
      <point x="580" y="215" type="curve" smooth="yes"/>
      <point x="656" y="215" name="at01"/>
      <point x="711" y="232" name="sh04"/>
      <point x="751" y="265" type="curve" smooth="yes"/>
      <point x="791" y="298" name="ih02"/>
      <point x="811" y="344"/>
      <point x="811" y="403" type="curve" smooth="yes" name="sv01"/>
      <point x="811" y="448"/>
      <point x="798" y="488" name="sh03"/>
      <point x="771" y="521" type="curve" smooth="yes"/>
      <point x="743" y="556"/>
      <point x="703" y="581"/>
      <point x="655" y="600" type="curve" smooth="yes"/>
      <point x="510" y="655" type="line" smooth="yes" name="sh05"/>
      <point x="357" y="714"/>
      <point x="260" y="773"/>
      <point x="208" y="834" type="curve" smooth="yes" name="ah01"/>
      <point x="155" y="895" name="sh06"/>
      <point x="129" y="979"/>
      <point x="129" y="1085" type="curve" smooth="yes"/>
      <point x="129" y="1221"/>
      <point x="172" y="1327"/>
      <point x="259" y="1404" type="curve" smooth="yes"/>
      <point x="346" y="1481"/>
      <point x="465" y="1520"/>
      <point x="615" y="1520" type="curve" smooth="yes"/>
      <point x="687" y="1520"/>
      <point x="759" y="1512"/>
      <point x="822" y="1497" type="curve" smooth="yes"/>
      <point x="885" y="1482"/>
      <point x="957" y="1459"/>
      <point x="1026" y="1427" type="curve"/>
      <point x="1026" y="1139" type="line"/>
      <point x="963" y="1184"/>
      <point x="899" y="1218"/>
      <point x="833" y="1241" type="curve" smooth="yes"/>
      <point x="767" y="1264"/>
      <point x="702" y="1276"/>
      <point x="638" y="1276" type="curve" smooth="yes"/>
      <point x="567" y="1276"/>
      <point x="512" y="1262"/>
      <point x="475" y="1233" type="curve" smooth="yes"/>
      <point x="437" y="1204"/>
      <point x="418" y="1163"/>
      <point x="418" y="1111" type="curve" smooth="yes"/>
      <point x="418" y="1069"/>
      <point x="432" y="1035"/>
      <point x="460" y="1008" type="curve" smooth="yes"/>
      <point x="487" y="981"/>
      <point x="534" y="955"/>
      <point x="633" y="918" type="curve" smooth="yes"/>
      <point x="760" y="870" type="line" smooth="yes"/>
      <point x="881" y="825"/>
      <point x="969" y="767"/>
      <point x="1025" y="696" type="curve" smooth="yes"/>
      <point x="1082" y="623"/>
      <point x="1110" y="530"/>
      <point x="1110" y="415" type="curve" smooth="yes"/>
      <point x="1110" y="268"/>
      <point x="1065" y="157"/>
      <point x="976" y="83" type="curve" smooth="yes"/>
      <point x="886" y="8"/>
      <point x="755" y="-29"/>
    </contour>
  </outline>
</glyph>
<glyph name="U" format="1">
  <advance width="1233"/>
  <unicode hex="0055"/>
  <outline>
    <contour>
      <point x="616" y="-29" type="curve" smooth="yes" name="dv01"/>
      <point x="438" y="-29"/>
      <point x="309" y="17" name="sh01"/>
      <point x="228" y="109" type="curve" smooth="yes" name="at01"/>
      <point x="147" y="202"/>
      <point x="106" y="349" name="sh02"/>
      <point x="106" y="551" type="curve" smooth="yes"/>
      <point x="106" y="1493" type="line" name="dv02"/>
      <point x="401" y="1493" type="line"/>
      <point x="401" y="477" type="line" smooth="yes" name="ah02"/>
      <point x="401" y="401" name="at02"/>
      <point x="422" y="341"/>
      <point x="458" y="301" type="curve" smooth="yes" name="sh03"/>
      <point x="497" y="258"/>
      <point x="552" y="238"/>
      <point x="616" y="238" type="curve" smooth="yes" name="ah01"/>
      <point x="680" y="238" name="sh04"/>
      <point x="735" y="258"/>
      <point x="774" y="301" type="curve" smooth="yes"/>
      <point x="810" y="341"/>
      <point x="831" y="401"/>
      <point x="831" y="477" type="curve" smooth="yes"/>
      <point x="831" y="1493" type="line"/>
      <point x="1126" y="1493" type="line"/>
      <point x="1126" y="551" type="line" smooth="yes"/>
      <point x="1126" y="348"/>
      <point x="1086" y="200"/>
      <point x="1005" y="109" type="curve" smooth="yes"/>
      <point x="924" y="17"/>
      <point x="794" y="-29"/>
    </contour>
  </outline>
</glyph>
<glyph name="h" format="1">
  <advance width="1233"/>
  <unicode hex="0068"/>
  <outline>
    <contour>
      <point x="172" y="1556" type="line" name="sh01"/>
      <point x="463" y="1556" type="line" name="sh02"/>
      <point x="463" y="952" type="line" name="iv01"/>
      <point x="484" y="1014"/>
      <point x="520" y="1062" name="at01"/>
      <point x="569" y="1096" type="curve" smooth="yes"/>
      <point x="619" y="1130"/>
      <point x="680" y="1147" name="sh03"/>
      <point x="751" y="1147" type="curve" smooth="yes" name="ah02"/>
      <point x="856" y="1147"/>
      <point x="936" y="1112"/>
      <point x="990" y="1042" type="curve" smooth="yes" name="sv01"/>
      <point x="1044" y="971"/>
      <point x="1071" y="866" name="sh04"/>
      <point x="1071" y="727" type="curve" smooth="yes" name="ab01"/>
      <point x="1071" y="0" type="line"/>
      <point x="780" y="0" type="line" name="ah01"/>
      <point x="780" y="682" type="line" smooth="yes" name="sh05"/>
      <point x="780" y="763"/>
      <point x="769" y="820"/>
      <point x="746" y="855" type="curve" smooth="yes"/>
      <point x="723" y="890"/>
      <point x="684" y="907"/>
      <point x="635" y="907" type="curve" smooth="yes"/>
      <point x="580" y="907"/>
      <point x="538" y="884"/>
      <point x="508" y="837" type="curve" smooth="yes"/>
      <point x="478" y="790"/>
      <point x="463" y="724"/>
      <point x="463" y="641" type="curve" smooth="yes"/>
      <point x="463" y="0" type="line"/>
      <point x="172" y="0" type="line"/>
    </contour>
  </outline>
</glyph>
<glyph name="w" format="1">
  <advance width="1233"/>
  <unicode hex="0077"/>
  <outline>
    <contour>
      <point x="0" y="1120" type="line" name="at01"/>
      <point x="244" y="1120" type="line"/>
      <point x="377" y="262" type="line" name="iv01"/>
      <point x="498" y="827" type="line"/>
      <point x="735" y="827" type="line"/>
      <point x="854" y="262" type="line" name="iv02"/>
      <point x="989" y="1120" type="line" name="at02"/>
      <point x="1233" y="1120" type="line"/>
      <point x="1030" y="0" type="line" name="ab01"/>
      <point x="752" y="0" type="line"/>
      <point x="616" y="582" type="line" name="iv03"/>
      <point x="481" y="0" type="line" name="ab02"/>
      <point x="203" y="0" type="line"/>
    </contour>
  </outline>
</glyph>
<glyph name="dieresis" format="1">
  <advance width="1233"/>
  <unicode hex="00A8"/>
  <outline>
    <contour>
      <point x="331" y="1339" type="line" smooth="yes" name="dv01"/>
      <point x="311" y="1339" name="sh01"/>
      <point x="301" y="1349"/>
      <point x="301" y="1369" type="curve" smooth="yes" name="dv02"/>
      <point x="301" y="1555" type="line" smooth="yes"/>
      <point x="301" y="1575"/>
      <point x="311" y="1585" name="sh02"/>
      <point x="331" y="1585" type="curve" smooth="yes"/>
      <point x="507" y="1585" type="line" smooth="yes" name="sv01"/>
      <point x="527" y="1585" name="ah02"/>
      <point x="537" y="1575"/>
      <point x="537" y="1555" type="curve" smooth="yes" name="sv02"/>
      <point x="537" y="1369" type="line" smooth="yes"/>
      <point x="537" y="1349"/>
      <point x="527" y="1339" name="sh03"/>
      <point x="507" y="1339" type="curve" smooth="yes"/>
    </contour>
    <contour>
      <point x="726" y="1339" type="line" smooth="yes" name="ah01"/>
      <point x="706" y="1339" name="sh04"/>
      <point x="696" y="1349"/>
      <point x="696" y="1369" type="curve" smooth="yes"/>
      <point x="696" y="1555" type="line" smooth="yes"/>
      <point x="696" y="1575"/>
      <point x="706" y="1585"/>
      <point x="726" y="1585" type="curve" smooth="yes"/>
      <point x="902" y="1585" type="line" smooth="yes"/>
      <point x="922" y="1585"/>
      <point x="932" y="1575"/>
      <point x="932" y="1555" type="curve" smooth="yes"/>
      <point x="932" y="1369" type="line" smooth="yes"/>
      <point x="932" y="1349"/>
      <point x="922" y="1339"/>
      <point x="902" y="1339" type="curve" smooth="yes"/>
    </contour>
  </outline>
</glyph>
<glyph name="registered" format="1">
  <advance width="1233"/>
  <unicode hex="00AE"/>
  <outline>
    <contour>
      <point x="616" y="125" type="curve" smooth="yes" name="dv01"/>
      <point x="528" y="125"/>
      <point x="454" y="140"/>
      <point x="382" y="171" type="curve" smooth="yes"/>
      <point x="310" y="202" name="dh01"/>
      <point x="241" y="247"/>
      <point x="181" y="307" type="curve" smooth="yes"/>
      <point x="122" y="366"/>
      <point x="77" y="434" name="dv04"/>
      <point x="46" y="507" type="curve" smooth="yes"/>
      <point x="15" y="579"/>
      <point x="0" y="653"/>
      <point x="0" y="741" type="curve" smooth="yes" name="dh08"/>
      <point x="0" y="826"/>
      <point x="15" y="905"/>
      <point x="46" y="977" type="curve" smooth="yes"/>
      <point x="77" y="1049"/>
      <point x="122" y="1117" name="dv02"/>
      <point x="182" y="1178" type="curve" smooth="yes"/>
      <point x="239" y="1237"/>
      <point x="305" y="1282"/>
      <point x="381" y="1313" type="curve" smooth="yes" name="dh07"/>
      <point x="454" y="1343"/>
      <point x="532" y="1358"/>
      <point x="616" y="1358" type="curve" smooth="yes"/>
      <point x="700" y="1358" name="dv03"/>
      <point x="779" y="1343"/>
      <point x="852" y="1313" type="curve" smooth="yes"/>
      <point x="928" y="1282"/>
      <point x="995" y="1235" name="dh02"/>
      <point x="1051" y="1178" type="curve" smooth="yes"/>
      <point x="1116" y="1111"/>
      <point x="1160" y="1041"/>
      <point x="1187" y="977" type="curve" smooth="yes"/>
      <point x="1218" y="905" name="dh03"/>
      <point x="1233" y="827"/>
      <point x="1233" y="742" type="curve" smooth="yes"/>
      <point x="1233" y="657" name="dh06"/>
      <point x="1218" y="579"/>
      <point x="1188" y="508" type="curve" smooth="yes" name="ih01"/>
      <point x="1159" y="439"/>
      <point x="1112" y="367"/>
      <point x="1052" y="307" type="curve" smooth="yes" name="ih02"/>
      <point x="996" y="251"/>
      <point x="927" y="203"/>
      <point x="851" y="171" type="curve" smooth="yes"/>
      <point x="779" y="140"/>
      <point x="701" y="125" name="sh01"/>
    </contour>
    <contour>
      <point x="616" y="256" type="curve" smooth="yes"/>
      <point x="682" y="256"/>
      <point x="744" y="268"/>
      <point x="801" y="292" type="curve" smooth="yes" name="dh05"/>
      <point x="858" y="316"/>
      <point x="911" y="352"/>
      <point x="958" y="399" type="curve" smooth="yes" name="dh04"/>
      <point x="1001" y="442"/>
      <point x="1039" y="495"/>
      <point x="1066" y="558" type="curve" smooth="yes" name="sh02"/>
      <point x="1090" y="615"/>
      <point x="1102" y="674"/>
      <point x="1102" y="742" type="curve" smooth="yes"/>
      <point x="1102" y="809"/>
      <point x="1091" y="867"/>
      <point x="1066" y="927" type="curve" smooth="yes"/>
      <point x="1041" y="987"/>
      <point x="1003" y="1041"/>
      <point x="959" y="1086" type="curve" smooth="yes"/>
      <point x="916" y="1130"/>
      <point x="859" y="1169"/>
      <point x="802" y="1193" type="curve" smooth="yes"/>
      <point x="738" y="1220"/>
      <point x="681" y="1229"/>
      <point x="617" y="1229" type="curve" smooth="yes"/>
      <point x="538" y="1229"/>
      <point x="484" y="1216"/>
      <point x="432" y="1193" type="curve" smooth="yes"/>
      <point x="385" y="1173"/>
      <point x="329" y="1141"/>
      <point x="273" y="1085" type="curve"/>
      <point x="224" y="1034"/>
      <point x="190" y="979"/>
      <point x="167" y="927" type="curve" smooth="yes"/>
      <point x="140" y="863"/>
      <point x="131" y="802"/>
      <point x="131" y="742" type="curve" smooth="yes"/>
      <point x="131" y="674"/>
      <point x="143" y="615"/>
      <point x="167" y="558" type="curve" smooth="yes"/>
      <point x="188" y="507"/>
      <point x="222" y="452"/>
      <point x="274" y="400" type="curve" smooth="yes"/>
      <point x="321" y="353"/>
      <point x="374" y="317"/>
      <point x="432" y="292" type="curve" smooth="yes"/>
      <point x="489" y="268"/>
      <point x="550" y="256"/>
    </contour>
    <contour>
      <point x="360" y="1055" type="line"/>
      <point x="606" y="1055" type="line" smooth="yes"/>
      <point x="695" y="1055"/>
      <point x="761" y="1040"/>
      <point x="804" y="1011" type="curve" smooth="yes"/>
      <point x="847" y="982"/>
      <point x="868" y="937"/>
      <point x="868" y="878" type="curve" smooth="yes"/>
      <point x="868" y="834"/>
      <point x="855" y="798"/>
      <point x="829" y="770" type="curve" smooth="yes"/>
      <point x="805" y="743"/>
      <point x="772" y="724"/>
      <point x="719" y="715" type="curve"/>
      <point x="750" y="704"/>
      <point x="772" y="686"/>
      <point x="785" y="673" type="curve" smooth="yes"/>
      <point x="800" y="658"/>
      <point x="819" y="632"/>
      <point x="836" y="596" type="curve" smooth="yes"/>
      <point x="915" y="430" type="line"/>
      <point x="743" y="430" type="line"/>
      <point x="680" y="563" type="line" smooth="yes"/>
      <point x="663" y="599"/>
      <point x="645" y="629"/>
      <point x="625" y="645" type="curve" smooth="yes"/>
      <point x="609" y="658"/>
      <point x="584" y="669"/>
      <point x="555" y="670" type="curve"/>
      <point x="524" y="670" type="line"/>
      <point x="524" y="430" type="line"/>
      <point x="360" y="430" type="line"/>
    </contour>
    <contour>
      <point x="588" y="780" type="line" smooth="yes"/>
      <point x="626" y="780"/>
      <point x="655" y="787"/>
      <point x="674" y="800" type="curve" smooth="yes"/>
      <point x="693" y="813"/>
      <point x="702" y="833"/>
      <point x="702" y="861" type="curve" smooth="yes"/>
      <point x="702" y="889"/>
      <point x="693" y="910"/>
      <point x="674" y="924" type="curve" smooth="yes"/>
      <point x="655" y="937"/>
      <point x="626" y="944"/>
      <point x="588" y="944" type="curve" smooth="yes"/>
      <point x="524" y="944" type="line"/>
      <point x="524" y="780" type="line"/>
    </contour>
  </outline>
</glyph>
<glyph name="Aring" format="1">
  <advance width="1233"/>
  <unicode hex="00C5"/>
  <outline>
    <contour>
      <point x="418" y="1421" type="line" name="hr00"/>
      <point x="388" y="1447"/>
      <point x="366" y="1476" name="sh01"/>
      <point x="353" y="1507" type="curve"/>
      <point x="338" y="1539" name="dv02"/>
      <point x="332" y="1577"/>
      <point x="332" y="1614" type="curve" smooth="yes" name="sh02"/>
      <point x="332" y="1698"/>
      <point x="366" y="1769"/>
      <point x="415" y="1818" type="curve" smooth="yes" name="ab01"/>
      <point x="462" y="1865" name="sh03"/>
      <point x="533" y="1901" name="dv03"/>
      <point x="617" y="1901" type="curve" smooth="yes"/>
      <point x="692" y="1901" name="sh04"/>
      <point x="763" y="1873"/>
      <point x="819" y="1817" type="curve" smooth="yes"/>
      <point x="867" y="1769"/>
      <point x="901" y="1699" name="ah02"/>
      <point x="901" y="1615" type="curve" smooth="yes"/>
      <point x="901" y="1576" name="dv01"/>
      <point x="895" y="1538"/>
      <point x="880" y="1507" type="curve" name="sh05"/>
      <point x="866" y="1475"/>
      <point x="844" y="1446"/>
      <point x="815" y="1421" type="curve" name="sh06"/>
      <point x="1200" y="0" type="line"/>
      <point x="905" y="0" type="line" name="sh07"/>
      <point x="813" y="369" type="line" name="ah01"/>
      <point x="418" y="369" type="line"/>
      <point x="328" y="0" type="line"/>
      <point x="33" y="0" type="line"/>
    </contour>
    <contour>
      <point x="618" y="1485" type="curve" smooth="yes"/>
      <point x="653" y="1485"/>
      <point x="684" y="1498"/>
      <point x="710" y="1524" type="curve" smooth="yes"/>
      <point x="735" y="1549"/>
      <point x="748" y="1580"/>
      <point x="748" y="1616" type="curve" smooth="yes"/>
      <point x="748" y="1652"/>
      <point x="735" y="1683"/>
      <point x="709" y="1709" type="curve"/>
      <point x="682" y="1734"/>
      <point x="652" y="1747"/>
      <point x="617" y="1747" type="curve" smooth="yes"/>
      <point x="578" y="1747"/>
      <point x="547" y="1732"/>
      <point x="524" y="1709" type="curve" smooth="yes"/>
      <point x="498" y="1683"/>
      <point x="485" y="1652"/>
      <point x="485" y="1616" type="curve" smooth="yes"/>
      <point x="485" y="1577"/>
      <point x="500" y="1547"/>
      <point x="523" y="1524" type="curve" smooth="yes"/>
      <point x="550" y="1497"/>
      <point x="583" y="1485"/>
    </contour>
    <contour>
      <point x="756" y="612" type="line"/>
      <point x="616" y="1223" type="line"/>
      <point x="477" y="612" type="line"/>
    </contour>
  </outline>
</glyph>
<glyph name="Ograve" format="1">
  <advance width="1233"/>
  <unicode hex="00D2"/>
  <outline>
    <contour>
      <point x="283" y="1852" type="line" name="ih01"/>
      <point x="567" y="1852" type="line"/>
      <point x="766" y="1588" type="line" name="ih02"/>
      <point x="569" y="1588" type="line"/>
    </contour>
    <contour>
      <point x="616" y="-29" type="curve" smooth="yes" name="dv01"/>
      <point x="436" y="-29"/>
      <point x="309" y="41" name="sh01"/>
      <point x="225" y="166" type="curve" smooth="yes"/>
      <point x="136" y="297" name="at01"/>
      <point x="92" y="490"/>
      <point x="92" y="745" type="curve" smooth="yes" name="sh03"/>
      <point x="92" y="1000"/>
      <point x="136" y="1192"/>
      <point x="225" y="1325" type="curve" smooth="yes" name="dv02"/>
      <point x="317" y="1461"/>
      <point x="453" y="1520" name="ah02"/>
      <point x="616" y="1520" type="curve" smooth="yes"/>
      <point x="791" y="1520" name="sv01"/>
      <point x="921" y="1453"/>
      <point x="1009" y="1324" type="curve" smooth="yes" name="sh02"/>
      <point x="1097" y="1193"/>
      <point x="1141" y="1000"/>
      <point x="1141" y="745" type="curve" smooth="yes" name="ah01"/>
      <point x="1141" y="490" name="sh04"/>
      <point x="1097" y="298"/>
      <point x="1009" y="167" type="curve" smooth="yes"/>
      <point x="924" y="40"/>
      <point x="795" y="-29"/>
    </contour>
    <contour>
      <point x="616" y="236" type="curve" smooth="yes"/>
      <point x="692" y="236"/>
      <point x="747" y="276"/>
      <point x="782" y="357" type="curve" smooth="yes"/>
      <point x="817" y="436"/>
      <point x="834" y="566"/>
      <point x="834" y="746" type="curve" smooth="yes"/>
      <point x="834" y="925"/>
      <point x="817" y="1055"/>
      <point x="782" y="1134" type="curve" smooth="yes"/>
      <point x="747" y="1215"/>
      <point x="692" y="1255"/>
      <point x="616" y="1255" type="curve" smooth="yes"/>
      <point x="537" y="1255"/>
      <point x="486" y="1214"/>
      <point x="451" y="1134" type="curve" smooth="yes"/>
      <point x="416" y="1054"/>
      <point x="399" y="934"/>
      <point x="399" y="747" type="curve" smooth="yes"/>
      <point x="399" y="566"/>
      <point x="416" y="436"/>
      <point x="451" y="357" type="curve" smooth="yes"/>
      <point x="486" y="276"/>
      <point x="541" y="236"/>
    </contour>
  </outline>
</glyph>
<glyph name="Oslash" format="1">
  <advance width="1233"/>
  <unicode hex="00D8"/>
  <outline>
    <contour>
      <point x="-6" y="51" type="line" name="hr00"/>
      <point x="162" y="289" type="line"/>
      <point x="137" y="354"/>
      <point x="122" y="411" name="sh01"/>
      <point x="110" y="491" type="curve" smooth="yes"/>
      <point x="99" y="563" name="at02"/>
      <point x="92" y="639"/>
      <point x="92" y="743" type="curve" smooth="yes"/>
      <point x="92" y="1000" name="at01"/>
      <point x="136" y="1193"/>
      <point x="225" y="1324" type="curve" smooth="yes"/>
      <point x="313" y="1455"/>
      <point x="439" y="1520" name="sh02"/>
      <point x="616" y="1520" type="curve" smooth="yes"/>
      <point x="686" y="1520" name="dv01"/>
      <point x="748" y="1510"/>
      <point x="802" y="1489" type="curve" smooth="yes"/>
      <point x="861" y="1466" name="av01"/>
      <point x="907" y="1436"/>
      <point x="946" y="1397" type="curve"/>
      <point x="1059" y="1559" type="line" name="sv01"/>
      <point x="1221" y="1444" type="line"/>
      <point x="1063" y="1221" type="line" name="sh03"/>
      <point x="1090" y="1156" name="iv01"/>
      <point x="1109" y="1085" name="dv02"/>
      <point x="1122" y="1008" type="curve" smooth="yes"/>
      <point x="1135" y="928" name="ah02"/>
      <point x="1141" y="841"/>
      <point x="1141" y="745" type="curve" smooth="yes" name="sh04"/>
      <point x="1141" y="490"/>
      <point x="1097" y="298"/>
      <point x="1009" y="167" type="curve" smooth="yes"/>
      <point x="917" y="31" name="ah01"/>
      <point x="784" y="-29" name="sh05"/>
      <point x="615" y="-29" type="curve" smooth="yes"/>
      <point x="539" y="-29"/>
      <point x="481" y="-18"/>
      <point x="425" y="5" type="curve" smooth="yes"/>
      <point x="369" y="28"/>
      <point x="323" y="57"/>
      <point x="276" y="104" type="curve"/>
      <point x="156" y="-63" type="line"/>
    </contour>
    <contour>
      <point x="772" y="1153" type="line"/>
      <point x="755" y="1187"/>
      <point x="733" y="1213"/>
      <point x="707" y="1230" type="curve" smooth="yes"/>
      <point x="682" y="1247"/>
      <point x="652" y="1255"/>
      <point x="617" y="1255" type="curve" smooth="yes"/>
      <point x="538" y="1255"/>
      <point x="487" y="1214"/>
      <point x="452" y="1135" type="curve" smooth="yes"/>
      <point x="417" y="1054"/>
      <point x="399" y="928"/>
      <point x="399" y="756" type="curve" smooth="yes"/>
      <point x="399" y="629" type="line"/>
    </contour>
    <contour>
      <point x="618" y="236" type="curve" smooth="yes"/>
      <point x="698" y="236"/>
      <point x="748" y="280"/>
      <point x="781" y="357" type="curve" smooth="yes"/>
      <point x="815" y="436"/>
      <point x="834" y="560"/>
      <point x="834" y="781" type="curve"/>
      <point x="833" y="804" type="line"/>
      <point x="830" y="841"/>
      <point x="832" y="830"/>
      <point x="829" y="888" type="curve"/>
      <point x="451" y="354" type="line"/>
      <point x="466" y="317"/>
      <point x="490" y="286"/>
      <point x="517" y="267" type="curve" smooth="yes"/>
      <point x="546" y="246"/>
      <point x="579" y="236"/>
    </contour>
  </outline>
</glyph>
<glyph name="Udieresis" format="1">
  <advance width="1233"/>
  <unicode hex="00DC"/>
  <outline>
    <contour>
      <point x="331" y="1606" type="line" smooth="yes" name="dv03"/>
      <point x="311" y="1606" name="ih01"/>
      <point x="301" y="1616"/>
      <point x="301" y="1636" type="curve" smooth="yes" name="dv04"/>
      <point x="301" y="1822" type="line" smooth="yes"/>
      <point x="301" y="1842"/>
      <point x="311" y="1852" name="sh01"/>
      <point x="331" y="1852" type="curve" smooth="yes"/>
      <point x="507" y="1852" type="line" smooth="yes" name="sv01"/>
      <point x="527" y="1852" name="dh03"/>
      <point x="537" y="1842"/>
      <point x="537" y="1822" type="curve" smooth="yes" name="sv02"/>
      <point x="537" y="1636" type="line" smooth="yes"/>
      <point x="537" y="1616"/>
      <point x="527" y="1606" name="dh04"/>
      <point x="507" y="1606" type="curve" smooth="yes"/>
    </contour>
    <contour>
      <point x="726" y="1606" type="line" smooth="yes" name="dv01"/>
      <point x="706" y="1606"/>
      <point x="696" y="1616" name="dh01"/>
      <point x="696" y="1636" type="curve" smooth="yes" name="at01"/>
      <point x="696" y="1822" type="line" smooth="yes"/>
      <point x="696" y="1842" name="dh02"/>
      <point x="706" y="1852"/>
      <point x="726" y="1852" type="curve" smooth="yes" name="dv02"/>
      <point x="902" y="1852" type="line" smooth="yes"/>
      <point x="922" y="1852" name="ih02"/>
      <point x="932" y="1842" name="at02"/>
      <point x="932" y="1822" type="curve" smooth="yes"/>
      <point x="932" y="1636" type="line" smooth="yes" name="sh02"/>
      <point x="932" y="1616"/>
      <point x="922" y="1606"/>
      <point x="902" y="1606" type="curve" smooth="yes"/>
    </contour>
    <contour>
      <point x="616" y="-29" type="curve" smooth="yes" name="sh03"/>
      <point x="438" y="-29"/>
      <point x="309" y="17"/>
      <point x="228" y="109" type="curve" smooth="yes"/>
      <point x="147" y="202"/>
      <point x="106" y="349"/>
      <point x="106" y="551" type="curve" smooth="yes"/>
      <point x="106" y="1493" type="line"/>
      <point x="401" y="1493" type="line"/>
      <point x="401" y="477" type="line" smooth="yes"/>
      <point x="401" y="401"/>
      <point x="422" y="341"/>
      <point x="458" y="301" type="curve" smooth="yes"/>
      <point x="497" y="258"/>
      <point x="552" y="238"/>
      <point x="616" y="238" type="curve" smooth="yes"/>
      <point x="680" y="238"/>
      <point x="735" y="258"/>
      <point x="774" y="301" type="curve" smooth="yes"/>
      <point x="810" y="341"/>
      <point x="831" y="401"/>
      <point x="831" y="477" type="curve" smooth="yes"/>
      <point x="831" y="1493" type="line"/>
      <point x="1126" y="1493" type="line"/>
      <point x="1126" y="551" type="line" smooth="yes"/>
      <point x="1126" y="348"/>
      <point x="1086" y="200"/>
      <point x="1005" y="109" type="curve" smooth="yes"/>
      <point x="924" y="17"/>
      <point x="794" y="-29"/>
    </contour>
  </outline>
</glyph>
<glyph name="acircumflex" format="1">
  <advance width="1233"/>
  <unicode hex="00E2"/>
  <outline>
    <contour>
      <point x="496" y="1672" type="line" name="av01"/>
      <point x="737" y="1672" type="line"/>
      <point x="993" y="1296" type="line" name="ih01"/>
      <point x="815" y="1296" type="line" name="sh02"/>
      <point x="616" y="1521" type="line"/>
      <point x="418" y="1296" type="line" name="sh05"/>
      <point x="240" y="1296" type="line" name="ih02"/>
    </contour>
    <contour>
      <point x="494" y="-29" type="curve" smooth="yes" name="dv01"/>
      <point x="373" y="-29"/>
      <point x="274" y="4" name="sh03"/>
      <point x="202" y="72" type="curve" smooth="yes"/>
      <point x="131" y="139"/>
      <point x="95" y="233" name="ah02"/>
      <point x="95" y="354" type="curve" smooth="yes"/>
      <point x="95" y="482"/>
      <point x="134" y="580" name="dv04"/>
      <point x="222" y="644" type="curve" smooth="yes" name="sh06"/>
      <point x="307" y="706" name="ih03"/>
      <point x="438" y="737"/>
      <point x="615" y="737" type="curve" smooth="yes" name="sh07"/>
      <point x="818" y="737" type="line" name="dv05"/>
      <point x="818" y="786" type="line" smooth="yes" name="hr01"/>
      <point x="818" y="835" name="sh01"/>
      <point x="799" y="871" name="sh08"/>
      <point x="767" y="894" type="curve" smooth="yes" name="sh09"/>
      <point x="732" y="919" name="sh10"/>
      <point x="679" y="930"/>
      <point x="610" y="930" type="curve" smooth="yes" name="ab01"/>
      <point x="546" y="930"/>
      <point x="477" y="921"/>
      <point x="412" y="904" type="curve" smooth="yes" name="sh11"/>
      <point x="348" y="887" name="ab02"/>
      <point x="278" y="858"/>
      <point x="206" y="819" type="curve" name="dv02"/>
      <point x="206" y="1069" type="line"/>
      <point x="262" y="1092" name="sh12"/>
      <point x="336" y="1116" name="dv03"/>
      <point x="403" y="1128" type="curve"/>
      <point x="458" y="1139"/>
      <point x="540" y="1148" name="sh04"/>
      <point x="628" y="1148" type="curve" smooth="yes"/>
      <point x="815" y="1148"/>
      <point x="927" y="1102" name="ah01"/>
      <point x="997" y="1035" type="curve" name="sh13"/>
      <point x="1069" y="963"/>
      <point x="1109" y="852"/>
      <point x="1109" y="644" type="curve" smooth="yes"/>
      <point x="1109" y="570"/>
      <point x="1104" y="323"/>
      <point x="1104" y="274" type="curve" smooth="yes"/>
      <point x="1104" y="246"/>
      <point x="1105" y="216"/>
      <point x="1106" y="197" type="curve"/>
      <point x="1109" y="170"/>
      <point x="1110" y="142"/>
      <point x="1113" y="125" type="curve" smooth="yes"/>
      <point x="1117" y="98"/>
      <point x="1123" y="71"/>
      <point x="1127" y="58" type="curve" smooth="yes"/>
      <point x="1134" y="38"/>
      <point x="1144" y="15"/>
      <point x="1155" y="0" type="curve"/>
      <point x="865" y="0" type="line"/>
      <point x="853" y="20"/>
      <point x="842" y="43"/>
      <point x="837" y="58" type="curve" smooth="yes"/>
      <point x="833" y="71"/>
      <point x="827" y="98"/>
      <point x="824" y="125" type="curve"/>
      <point x="787" y="76"/>
      <point x="740" y="38"/>
      <point x="682" y="11" type="curve" smooth="yes"/>
      <point x="626" y="-16"/>
      <point x="570" y="-29"/>
    </contour>
    <contour>
      <point x="576" y="174" type="curve" smooth="yes"/>
      <point x="651" y="174"/>
      <point x="711" y="202"/>
      <point x="754" y="262" type="curve" name="hr02"/>
      <point x="797" y="319"/>
      <point x="818" y="401"/>
      <point x="818" y="506" type="curve" smooth="yes"/>
      <point x="818" y="526" type="line"/>
      <point x="701" y="526" type="line" smooth="yes"/>
      <point x="591" y="526"/>
      <point x="515" y="512"/>
      <point x="472" y="484" type="curve" smooth="yes"/>
      <point x="429" y="456"/>
      <point x="407" y="409"/>
      <point x="407" y="342" type="curve" smooth="yes"/>
      <point x="407" y="287"/>
      <point x="421" y="250"/>
      <point x="452" y="219" type="curve" smooth="yes"/>
      <point x="482" y="189"/>
      <point x="523" y="174"/>
    </contour>
  </outline>
</glyph>
<glyph name="ydieresis" format="1">
  <advance width="1233"/>
  <unicode hex="00FF"/>
  <outline>
    <contour>
      <point x="341" y="1320" type="line" smooth="yes" name="sv01"/>
      <point x="321" y="1320" name="sh01"/>
      <point x="311" y="1330"/>
      <point x="311" y="1350" type="curve" smooth="yes" name="at03"/>
      <point x="311" y="1536" type="line" smooth="yes"/>
      <point x="311" y="1556"/>
      <point x="321" y="1566" name="sh02"/>
      <point x="341" y="1566" type="curve" smooth="yes"/>
      <point x="517" y="1566" type="line" smooth="yes" name="sv02"/>
      <point x="537" y="1566" name="ah02"/>
      <point x="547" y="1556"/>
      <point x="547" y="1536" type="curve" smooth="yes" name="at04"/>
      <point x="547" y="1350" type="line" smooth="yes"/>
      <point x="547" y="1330"/>
      <point x="537" y="1320" name="sh03"/>
      <point x="517" y="1320" type="curve" smooth="yes" name="sv03"/>
    </contour>
    <contour>
      <point x="736" y="1320" type="line" smooth="yes" name="sv04"/>
      <point x="716" y="1320"/>
      <point x="706" y="1330"/>
      <point x="706" y="1350" type="curve" smooth="yes"/>
      <point x="706" y="1536" type="line" smooth="yes"/>
      <point x="706" y="1556" name="at01"/>
      <point x="716" y="1566"/>
      <point x="736" y="1566" type="curve" smooth="yes" name="ih01"/>
      <point x="912" y="1566" type="line" smooth="yes" name="at02"/>
      <point x="932" y="1566" name="iv01"/>
      <point x="942" y="1556"/>
      <point x="942" y="1536" type="curve" smooth="yes"/>
      <point x="942" y="1350" type="line" smooth="yes" name="ab01"/>
      <point x="942" y="1330"/>
      <point x="932" y="1320" name="ah01"/>
      <point x="912" y="1320" type="curve" smooth="yes" name="sh04"/>
    </contour>
    <contour>
      <point x="137" y="-201" type="line"/>
      <point x="256" y="-201" type="line" smooth="yes"/>
      <point x="312" y="-201"/>
      <point x="360" y="-192"/>
      <point x="388" y="-171" type="curve" smooth="yes"/>
      <point x="419" y="-148"/>
      <point x="450" y="-89"/>
      <point x="473" y="-29" type="curve" smooth="yes"/>
      <point x="495" y="31" type="line"/>
      <point x="69" y="1120" type="line"/>
      <point x="377" y="1120" type="line"/>
      <point x="633" y="393" type="line"/>
      <point x="878" y="1120" type="line"/>
      <point x="1186" y="1120" type="line"/>
      <point x="721" y="-121" type="line" smooth="yes"/>
      <point x="678" y="-234"/>
      <point x="631" y="-307"/>
      <point x="580" y="-352" type="curve" smooth="yes"/>
      <point x="529" y="-397"/>
      <point x="463" y="-424"/>
      <point x="379" y="-424" type="curve" smooth="yes"/>
      <point x="137" y="-424" type="line"/>
    </contour>
  </outline>
</glyph>
<glyph name="amacron" format="1">
  <advance width="1233"/>
  <unicode hex="0101"/>
  <outline>
    <contour>
      <point x="301" y="1535" type="line"/>
      <point x="932" y="1535" type="line" name="dv04"/>
      <point x="932" y="1347" type="line" name="dv03"/>
      <point x="301" y="1347" type="line"/>
    </contour>
    <contour>
      <point x="494" y="-29" type="curve" smooth="yes" name="dv01"/>
      <point x="373" y="-29"/>
      <point x="274" y="4" name="sh01"/>
      <point x="202" y="72" type="curve" smooth="yes"/>
      <point x="131" y="139"/>
      <point x="95" y="233" name="ah02"/>
      <point x="95" y="354" type="curve" smooth="yes"/>
      <point x="95" y="482"/>
      <point x="134" y="580" name="dv06"/>
      <point x="222" y="644" type="curve" smooth="yes" name="sh03"/>
      <point x="307" y="706" name="ih01"/>
      <point x="438" y="737"/>
      <point x="615" y="737" type="curve" smooth="yes" name="sh04"/>
      <point x="818" y="737" type="line" name="dv07"/>
      <point x="818" y="786" type="line" smooth="yes"/>
      <point x="818" y="835" name="sh05"/>
      <point x="799" y="871" name="sh06"/>
      <point x="767" y="894" type="curve" smooth="yes" name="sh07"/>
      <point x="732" y="919" name="sh08"/>
      <point x="679" y="930"/>
      <point x="610" y="930" type="curve" smooth="yes" name="ab01"/>
      <point x="546" y="930"/>
      <point x="477" y="921"/>
      <point x="412" y="904" type="curve" smooth="yes" name="sh09"/>
      <point x="348" y="887" name="ab02"/>
      <point x="278" y="858"/>
      <point x="206" y="819" type="curve" name="dv02"/>
      <point x="206" y="1069" type="line"/>
      <point x="262" y="1092" name="sh10"/>
      <point x="336" y="1116" name="dv05"/>
      <point x="403" y="1128" type="curve"/>
      <point x="458" y="1139"/>
      <point x="540" y="1148" name="sh02"/>
      <point x="628" y="1148" type="curve" smooth="yes"/>
      <point x="815" y="1148"/>
      <point x="927" y="1102" name="ah01"/>
      <point x="997" y="1035" type="curve" name="sh11"/>
      <point x="1069" y="963"/>
      <point x="1109" y="852"/>
      <point x="1109" y="644" type="curve" smooth="yes"/>
      <point x="1109" y="570"/>
      <point x="1104" y="323"/>
      <point x="1104" y="274" type="curve" smooth="yes"/>
      <point x="1104" y="246"/>
      <point x="1105" y="216"/>
      <point x="1106" y="197" type="curve"/>
      <point x="1109" y="170"/>
      <point x="1110" y="142"/>
      <point x="1113" y="125" type="curve" smooth="yes"/>
      <point x="1117" y="98"/>
      <point x="1123" y="71"/>
      <point x="1127" y="58" type="curve" smooth="yes"/>
      <point x="1134" y="38"/>
      <point x="1144" y="15"/>
      <point x="1155" y="0" type="curve"/>
      <point x="865" y="0" type="line"/>
      <point x="853" y="20"/>
      <point x="842" y="43"/>
      <point x="837" y="58" type="curve" smooth="yes"/>
      <point x="833" y="71"/>
      <point x="827" y="98"/>
      <point x="824" y="125" type="curve"/>
      <point x="787" y="76"/>
      <point x="740" y="38"/>
      <point x="682" y="11" type="curve" smooth="yes"/>
      <point x="626" y="-16"/>
      <point x="570" y="-29"/>
    </contour>
    <contour>
      <point x="576" y="174" type="curve" smooth="yes"/>
      <point x="651" y="174"/>
      <point x="711" y="202"/>
      <point x="754" y="262" type="curve"/>
      <point x="797" y="319"/>
      <point x="818" y="401"/>
      <point x="818" y="506" type="curve" smooth="yes"/>
      <point x="818" y="526" type="line"/>
      <point x="701" y="526" type="line" smooth="yes" name="hr02"/>
      <point x="591" y="526"/>
      <point x="515" y="512"/>
      <point x="472" y="484" type="curve" smooth="yes"/>
      <point x="429" y="456"/>
      <point x="407" y="409"/>
      <point x="407" y="342" type="curve" smooth="yes"/>
      <point x="407" y="287"/>
      <point x="421" y="250"/>
      <point x="452" y="219" type="curve" smooth="yes"/>
      <point x="482" y="189"/>
      <point x="523" y="174"/>
    </contour>
  </outline>
</glyph>
<glyph name="Dcroat" format="1">
  <advance width="1233"/>
  <unicode hex="0110"/>
  <outline>
    <contour>
      <point x="137" y="664" type="line" name="sh01"/>
      <point x="0" y="664" type="line"/>
      <point x="0" y="901" type="line"/>
      <point x="137" y="901" type="line" name="sh02"/>
      <point x="137" y="1493" type="line" name="at01"/>
      <point x="453" y="1493" type="line" smooth="yes"/>
      <point x="941" y="1493" name="sh03"/>
      <point x="1141" y="1276" name="ab01"/>
      <point x="1141" y="748" type="curve" smooth="yes"/>
      <point x="1141" y="219" name="sv01"/>
      <point x="941" y="0" name="ah02"/>
      <point x="453" y="0" type="curve" smooth="yes" name="sv02"/>
      <point x="137" y="0" type="line" name="sh05"/>
    </contour>
    <contour>
      <point x="512" y="266" type="line" smooth="yes" name="sv03"/>
      <point x="744" y="266"/>
      <point x="834" y="398" name="sv04"/>
      <point x="834" y="747" type="curve" smooth="yes" name="sh04"/>
      <point x="834" y="1096"/>
      <point x="744" y="1227" name="ah01"/>
      <point x="512" y="1227" type="curve" smooth="yes" name="sh06"/>
      <point x="432" y="1227" type="line"/>
      <point x="432" y="901" type="line"/>
      <point x="643" y="901" type="line"/>
      <point x="643" y="664" type="line"/>
      <point x="432" y="664" type="line"/>
      <point x="432" y="266" type="line"/>
    </contour>
  </outline>
</glyph>
<glyph name="Edotaccent" format="1">
  <advance width="1233"/>
  <unicode hex="0116"/>
  <outline>
    <contour>
      <point x="541" y="1606" type="line" smooth="yes" name="dv01"/>
      <point x="524" y="1606" name="ah02"/>
      <point x="510" y="1620"/>
      <point x="510" y="1637" type="curve" smooth="yes" name="dv02"/>
      <point x="510" y="1821" type="line" smooth="yes"/>
      <point x="510" y="1838"/>
      <point x="524" y="1852" name="sh01"/>
      <point x="541" y="1852" type="curve" smooth="yes"/>
      <point x="754" y="1852" type="line" smooth="yes" name="sh02"/>
      <point x="771" y="1852"/>
      <point x="785" y="1838" name="sv01"/>
      <point x="785" y="1821" type="curve" smooth="yes" name="sh03"/>
      <point x="785" y="1637" type="line" smooth="yes"/>
      <point x="785" y="1620" name="dv04"/>
      <point x="771" y="1606" name="dv03"/>
      <point x="754" y="1606" type="curve" smooth="yes" name="sh04"/>
    </contour>
    <contour>
      <point x="168" y="1493" type="line" name="sv02"/>
      <point x="1098" y="1493" type="line"/>
      <point x="1098" y="1233" type="line" name="ab01"/>
      <point x="463" y="1233" type="line"/>
      <point x="463" y="911" type="line" name="ah01"/>
      <point x="1038" y="911" type="line"/>
      <point x="1038" y="651" type="line"/>
      <point x="463" y="651" type="line"/>
      <point x="463" y="260" type="line"/>
      <point x="1098" y="260" type="line"/>
      <point x="1098" y="0" type="line"/>
      <point x="168" y="0" type="line"/>
    </contour>
  </outline>
</glyph>
<glyph name="ecaron" format="1">
  <advance width="1233"/>
  <unicode hex="011B"/>
  <outline>
    <contour>
      <point x="247" y="1678" type="line" name="ih01"/>
      <point x="425" y="1678" type="line"/>
      <point x="623" y="1451" type="line"/>
      <point x="822" y="1678" type="line" name="av01"/>
      <point x="1000" y="1678" type="line" name="ih02"/>
      <point x="744" y="1302" type="line"/>
      <point x="503" y="1302" type="line"/>
    </contour>
    <contour>
      <point x="669" y="-29" type="curve" smooth="yes" name="dv01"/>
      <point x="283" y="-29" name="sh01"/>
      <point x="82" y="178" name="at01"/>
      <point x="82" y="550" type="curve" smooth="yes" name="sh03"/>
      <point x="82" y="920"/>
      <point x="281" y="1147" name="sh02"/>
      <point x="621" y="1147" type="curve" smooth="yes" name="dv02"/>
      <point x="944" y="1147" name="ih03"/>
      <point x="1139" y="940"/>
      <point x="1139" y="584" type="curve" smooth="yes"/>
      <point x="1139" y="465" type="line" name="ah02"/>
      <point x="380" y="465" type="line" name="sv01"/>
      <point x="381" y="290" name="sh04"/>
      <point x="483" y="203" name="ah01"/>
      <point x="688" y="203" type="curve" smooth="yes" name="sh05"/>
      <point x="824" y="203"/>
      <point x="948" y="240"/>
      <point x="1092" y="324" type="curve"/>
      <point x="1092" y="55" type="line"/>
      <point x="959" y="-1"/>
      <point x="814" y="-29"/>
    </contour>
    <contour>
      <point x="844" y="685" type="line"/>
      <point x="841" y="840"/>
      <point x="761" y="920"/>
      <point x="620" y="920" type="curve" smooth="yes"/>
      <point x="476" y="920"/>
      <point x="399" y="837"/>
      <point x="383" y="684" type="curve"/>
    </contour>
  </outline>
</glyph>
<glyph name="omacron" format="1">
  <advance width="1233"/>
  <unicode hex="014D"/>
  <outline>
    <contour>
      <point x="301" y="1535" type="line" name="hr00"/>
      <point x="932" y="1535" type="line" name="dv04"/>
      <point x="932" y="1347" type="line" name="dv03"/>
      <point x="301" y="1347" type="line"/>
    </contour>
    <contour>
      <point x="616" y="-29" type="curve" smooth="yes" name="dv01"/>
      <point x="300" y="-29" name="sh01"/>
      <point x="98" y="198" name="at01"/>
      <point x="98" y="559" type="curve" smooth="yes" name="sh02"/>
      <point x="98" y="920"/>
      <point x="300" y="1147" name="dv02"/>
      <point x="616" y="1147" type="curve" smooth="yes" name="ah02"/>
      <point x="933" y="1147" name="sv01"/>
      <point x="1135" y="920" name="sh03"/>
      <point x="1135" y="559" type="curve" smooth="yes"/>
      <point x="1135" y="198" name="ah01"/>
      <point x="933" y="-29" name="sh04"/>
    </contour>
    <contour>
      <point x="616" y="209" type="curve" smooth="yes"/>
      <point x="757" y="209"/>
      <point x="842" y="338"/>
      <point x="842" y="559" type="curve" smooth="yes"/>
      <point x="842" y="778"/>
      <point x="757" y="909"/>
      <point x="616" y="909" type="curve" smooth="yes"/>
      <point x="476" y="909"/>
      <point x="391" y="778"/>
      <point x="391" y="559" type="curve" smooth="yes"/>
      <point x="391" y="338"/>
      <point x="476" y="209"/>
    </contour>
  </outline>
</glyph>
<glyph name="Ohungarumlaut" format="1">
  <advance width="1233"/>
  <unicode hex="0150"/>
  <outline>
    <contour>
      <point x="463" y="1852" type="line" name="dv04"/>
      <point x="747" y="1852" type="line" name="ih01"/>
      <point x="461" y="1588" type="line" name="dv03"/>
      <point x="264" y="1588" type="line" name="ih02"/>
    </contour>
    <contour>
      <point x="838" y="1852" type="line" name="sh04"/>
      <point x="1122" y="1852" type="line" name="ih03"/>
      <point x="836" y="1588" type="line" name="sh05"/>
      <point x="639" y="1588" type="line"/>
    </contour>
    <contour>
      <point x="617" y="-29" type="curve" smooth="yes" name="dv01"/>
      <point x="270" y="-29" name="sh01"/>
      <point x="92" y="237" name="at01"/>
      <point x="92" y="746" type="curve" smooth="yes" name="sh02"/>
      <point x="92" y="1255"/>
      <point x="270" y="1520" name="dv02"/>
      <point x="617" y="1520" type="curve" smooth="yes"/>
      <point x="962" y="1520" name="ah02"/>
      <point x="1141" y="1257"/>
      <point x="1141" y="746" type="curve" smooth="yes" name="sv01"/>
      <point x="1141" y="235"/>
      <point x="962" y="-29" name="sh03"/>
    </contour>
    <contour>
      <point x="616" y="236" type="curve" smooth="yes"/>
      <point x="692" y="236" name="ah01"/>
      <point x="747" y="276" name="sh06"/>
      <point x="782" y="357" type="curve" smooth="yes"/>
      <point x="817" y="436"/>
      <point x="834" y="566"/>
      <point x="834" y="746" type="curve" smooth="yes"/>
      <point x="834" y="925"/>
      <point x="817" y="1055"/>
      <point x="782" y="1134" type="curve" smooth="yes"/>
      <point x="747" y="1215"/>
      <point x="692" y="1255"/>
      <point x="616" y="1255" type="curve" smooth="yes"/>
      <point x="537" y="1255"/>
      <point x="486" y="1214"/>
      <point x="451" y="1134" type="curve" smooth="yes"/>
      <point x="416" y="1055"/>
      <point x="399" y="925"/>
      <point x="399" y="746" type="curve" smooth="yes"/>
      <point x="399" y="566"/>
      <point x="416" y="436"/>
      <point x="451" y="357" type="curve" smooth="yes"/>
      <point x="486" y="276"/>
      <point x="541" y="236"/>
    </contour>
  </outline>
</glyph>
<glyph name="utilde" format="1">
  <advance width="1233"/>
  <unicode hex="0169"/>
  <outline>
    <contour>
      <point x="764" y="1270" type="curve" smooth="yes" name="sh01"/>
      <point x="723" y="1270"/>
      <point x="685" y="1281"/>
      <point x="618" y="1327" type="curve" smooth="yes"/>
      <point x="563" y="1364" type="line" name="sv01"/>
      <point x="551" y="1372" type="line" smooth="yes"/>
      <point x="522" y="1391" name="sv02"/>
      <point x="500" y="1401"/>
      <point x="479" y="1401" type="curve" smooth="yes" name="sh04"/>
      <point x="434" y="1401"/>
      <point x="408" y="1357"/>
      <point x="408" y="1280" type="curve" smooth="yes" name="dv01"/>
      <point x="408" y="1272" type="line" name="at03"/>
      <point x="268" y="1272" type="line"/>
      <point x="268" y="1455" name="at04"/>
      <point x="340" y="1556"/>
      <point x="465" y="1556" type="curve" smooth="yes" name="sv04"/>
      <point x="516" y="1556" name="sh02"/>
      <point x="557" y="1539" name="at01"/>
      <point x="614" y="1499" type="curve" smooth="yes"/>
      <point x="676" y="1456" type="line" smooth="yes" name="sh03"/>
      <point x="703" y="1437" name="sv03"/>
      <point x="727" y="1425" name="sh05"/>
      <point x="751" y="1425" type="curve" smooth="yes" name="at02"/>
      <point x="798" y="1425"/>
      <point x="825" y="1470" name="sh06"/>
      <point x="825" y="1546" type="curve" smooth="yes" name="hr02"/>
      <point x="825" y="1554" type="line" name="ah02"/>
      <point x="965" y="1554" type="line"/>
      <point x="965" y="1371" name="ah01"/>
      <point x="895" y="1270" name="sh07"/>
    </contour>
    <contour>
      <point x="480" y="-29" type="curve" smooth="yes"/>
      <point x="271" y="-29"/>
      <point x="160" y="112"/>
      <point x="160" y="391" type="curve" smooth="yes"/>
      <point x="160" y="1120" type="line"/>
      <point x="453" y="1120" type="line"/>
      <point x="453" y="436" type="line" smooth="yes" name="hr03"/>
      <point x="453" y="280"/>
      <point x="494" y="211"/>
      <point x="593" y="211" type="curve" smooth="yes"/>
      <point x="710" y="211"/>
      <point x="768" y="308"/>
      <point x="768" y="477" type="curve" smooth="yes"/>
      <point x="768" y="1120" type="line"/>
      <point x="1061" y="1120" type="line"/>
      <point x="1061" y="0" type="line"/>
      <point x="797" y="0" type="line"/>
      <point x="768" y="166" type="line"/>
      <point x="727" y="43"/>
      <point x="629" y="-29"/>
    </contour>
  </outline>
</glyph>
<glyph name="Ydieresis" format="1">
  <advance width="1233"/>
  <unicode hex="0178"/>
  <outline>
    <contour>
      <point x="331" y="1606" type="line" smooth="yes" name="dv01"/>
      <point x="311" y="1606" name="sh01"/>
      <point x="301" y="1616"/>
      <point x="301" y="1636" type="curve" smooth="yes" name="dv02"/>
      <point x="301" y="1822" type="line" smooth="yes"/>
      <point x="301" y="1842"/>
      <point x="311" y="1852" name="sh02"/>
      <point x="331" y="1852" type="curve" smooth="yes"/>
      <point x="507" y="1852" type="line" smooth="yes" name="sv01"/>
      <point x="527" y="1852" name="sh04"/>
      <point x="537" y="1842"/>
      <point x="537" y="1822" type="curve" smooth="yes" name="sv02"/>
      <point x="537" y="1636" type="line" smooth="yes"/>
      <point x="537" y="1616"/>
      <point x="527" y="1606" name="sh05"/>
      <point x="507" y="1606" type="curve" smooth="yes"/>
    </contour>
    <contour>
      <point x="726" y="1606" type="line" smooth="yes" name="sh03"/>
      <point x="706" y="1606" name="at01"/>
      <point x="696" y="1616"/>
      <point x="696" y="1636" type="curve" smooth="yes" name="ih01"/>
      <point x="696" y="1822" type="line" smooth="yes" name="at02"/>
      <point x="696" y="1842"/>
      <point x="706" y="1852" name="sh06"/>
      <point x="726" y="1852" type="curve" smooth="yes" name="ab01"/>
      <point x="902" y="1852" type="line" smooth="yes"/>
      <point x="922" y="1852" name="ah01"/>
      <point x="932" y="1842" name="sh07"/>
      <point x="932" y="1822" type="curve" smooth="yes"/>
      <point x="932" y="1636" type="line" smooth="yes"/>
      <point x="932" y="1616"/>
      <point x="922" y="1606"/>
      <point x="902" y="1606" type="curve" smooth="yes"/>
    </contour>
    <contour>
      <point x="469" y="588" type="line"/>
      <point x="8" y="1493" type="line"/>
      <point x="326" y="1493" type="line"/>
      <point x="616" y="893" type="line"/>
      <point x="907" y="1493" type="line"/>
      <point x="1225" y="1493" type="line"/>
      <point x="764" y="588" type="line"/>
      <point x="764" y="0" type="line"/>
      <point x="469" y="0" type="line"/>
    </contour>
  </outline>
</glyph>
<glyph name="Zacute" format="1">
  <advance width="1233"/>
  <unicode hex="0179"/>
  <outline>
    <contour>
      <point x="699" y="1853" type="line" name="av01"/>
      <point x="983" y="1853" type="line"/>
      <point x="697" y="1589" type="line"/>
      <point x="500" y="1589" type="line" name="iv01"/>
    </contour>
    <contour>
      <point x="115" y="244" type="line"/>
      <point x="786" y="1233" type="line" name="sv01"/>
      <point x="137" y="1233" type="line"/>
      <point x="137" y="1493" type="line" name="at01"/>
      <point x="1147" y="1493" type="line"/>
      <point x="1147" y="1249" type="line"/>
      <point x="455" y="260" type="line" name="sv02"/>
      <point x="1161" y="260" type="line"/>
      <point x="1161" y="0" type="line" name="ab01"/>
      <point x="115" y="0" type="line"/>
    </contour>
  </outline>
</glyph>
<glyph name="florin" format="1">
  <advance width="1233"/>
  <unicode hex="0192"/>
  <outline>
    <contour>
      <point x="240" y="-426" type="curve" smooth="yes" name="ab01"/>
      <point x="203" y="-426" name="ab02"/>
      <point x="161" y="-422"/>
      <point x="125" y="-414" type="curve" smooth="yes" name="iv01"/>
      <point x="89" y="-406"/>
      <point x="49" y="-392" name="sv01"/>
      <point x="12" y="-375" type="curve"/>
      <point x="12" y="-141" type="line"/>
      <point x="41" y="-160" name="dv01"/>
      <point x="68" y="-173"/>
      <point x="95" y="-182" type="curve" smooth="yes"/>
      <point x="121" y="-191" name="dv02"/>
      <point x="148" y="-195"/>
      <point x="175" y="-195" type="curve" smooth="yes"/>
      <point x="238" y="-195" name="at01"/>
      <point x="287" y="-175" name="at02"/>
      <point x="322" y="-135" type="curve" smooth="yes"/>
      <point x="357" y="-95" name="iv02"/>
      <point x="380" y="-32"/>
      <point x="391" y="55" type="curve" smooth="yes" name="sv02"/>
      <point x="471" y="666" type="line"/>
      <point x="219" y="666" type="line"/>
      <point x="219" y="885" type="line" name="sv03"/>
      <point x="500" y="885" type="line"/>
      <point x="539" y="1178" type="line" smooth="yes" name="sv04"/>
      <point x="555" y="1299"/>
      <point x="600" y="1394"/>
      <point x="665" y="1458" type="curve" smooth="yes"/>
      <point x="733" y="1523"/>
      <point x="822" y="1556"/>
      <point x="926" y="1556" type="curve" smooth="yes"/>
      <point x="963" y="1556"/>
      <point x="1007" y="1552"/>
      <point x="1042" y="1544" type="curve" smooth="yes"/>
      <point x="1073" y="1537"/>
      <point x="1118" y="1521"/>
      <point x="1153" y="1505" type="curve"/>
      <point x="1153" y="1274" type="line"/>
      <point x="1122" y="1293"/>
      <point x="1094" y="1304"/>
      <point x="1071" y="1312" type="curve" smooth="yes"/>
      <point x="1045" y="1321"/>
      <point x="1019" y="1325"/>
      <point x="992" y="1325" type="curve" smooth="yes"/>
      <point x="930" y="1325"/>
      <point x="882" y="1305"/>
      <point x="848" y="1265" type="curve" smooth="yes"/>
      <point x="812" y="1222"/>
      <point x="789" y="1159"/>
      <point x="778" y="1075" type="curve" smooth="yes"/>
      <point x="754" y="885" type="line"/>
      <point x="1014" y="885" type="line"/>
      <point x="1014" y="666" type="line"/>
      <point x="725" y="666" type="line"/>
      <point x="631" y="-47" type="line" smooth="yes"/>
      <point x="616" y="-160"/>
      <point x="574" y="-259"/>
      <point x="505" y="-327" type="curve" smooth="yes"/>
      <point x="438" y="-393"/>
      <point x="349" y="-426"/>
    </contour>
  </outline>
</glyph>
<glyph name="uni02BD" format="1">
  <advance width="1233"/>
  <unicode hex="02BD"/>
  <outline>
    <contour>
      <point x="754" y="1218" type="line" name="sh01"/>
      <point x="571" y="1219" name="dh01"/>
      <point x="480" y="1307"/>
      <point x="480" y="1483" type="curve" smooth="yes" name="dv01"/>
      <point x="480" y="1729" type="line" name="dh02"/>
      <point x="754" y="1729" type="line"/>
      <point x="754" y="1483" type="line" name="sh02"/>
      <point x="632" y="1483" type="line"/>
      <point x="633" y="1402"/>
      <point x="674" y="1361"/>
      <point x="754" y="1361" type="curve" name="hr01"/>
    </contour>
  </outline>
</glyph>
<glyph name="uni02C9" format="1">
  <advance width="1233"/>
  <unicode hex="02C9"/>
  <outline>
    <contour>
      <point x="301" y="1556" type="line" name="at01"/>
      <point x="932" y="1556" type="line"/>
      <point x="932" y="1368" type="line" name="sv01"/>
      <point x="301" y="1368" type="line"/>
    </contour>
  </outline>
</glyph>
<glyph name="uni0310" format="1">
  <advance width="0"/>
  <unicode hex="0310"/>
  <outline>
    <contour>
      <point x="-754" y="1801" type="line" name="sh02"/>
      <point x="-479" y="1801" type="line" name="sh03"/>
      <point x="-479" y="1555" type="line" name="sh04"/>
      <point x="-754" y="1555" type="line" name="sh05"/>
    </contour>
    <contour>
      <point x="-617" y="1309" type="curve" smooth="yes" name="dv01"/>
      <point x="-826" y="1309" name="sh01"/>
      <point x="-944" y="1413"/>
      <point x="-952" y="1606" type="curve" name="dv02"/>
      <point x="-811" y="1606" type="line" name="sv01"/>
      <point x="-796" y="1514" name="sh06"/>
      <point x="-729" y="1462"/>
      <point x="-617" y="1462" type="curve" smooth="yes" name="ah01"/>
      <point x="-505" y="1462" name="sh07"/>
      <point x="-439" y="1513"/>
      <point x="-424" y="1606" type="curve"/>
      <point x="-281" y="1606" type="line"/>
      <point x="-289" y="1413"/>
      <point x="-406" y="1309"/>
    </contour>
  </outline>
</glyph>
<glyph name="uni0325" format="1">
  <advance width="0"/>
  <unicode hex="0325"/>
  <outline>
    <contour>
      <point x="-617" y="-502" type="curve" smooth="yes" name="ab01"/>
      <point x="-740" y="-502" name="sh01"/>
      <point x="-836" y="-405" name="dv02"/>
      <point x="-836" y="-282" type="curve" smooth="yes" name="sh02"/>
      <point x="-836" y="-159"/>
      <point x="-740" y="-63" name="sv01"/>
      <point x="-617" y="-63" type="curve" smooth="yes" name="ah02"/>
      <point x="-493" y="-63" name="dv01"/>
      <point x="-397" y="-159" name="sh03"/>
      <point x="-397" y="-282" type="curve" smooth="yes"/>
      <point x="-397" y="-405" name="ah01"/>
      <point x="-493" y="-502"/>
    </contour>
    <contour>
      <point x="-617" y="-370" type="curve" smooth="yes"/>
      <point x="-568" y="-370"/>
      <point x="-529" y="-331"/>
      <point x="-529" y="-282" type="curve" smooth="yes"/>
      <point x="-529" y="-234"/>
      <point x="-568" y="-195"/>
      <point x="-617" y="-195" type="curve" smooth="yes"/>
      <point x="-666" y="-195"/>
      <point x="-704" y="-233"/>
      <point x="-704" y="-282" type="curve" smooth="yes"/>
      <point x="-704" y="-333"/>
      <point x="-666" y="-370"/>
    </contour>
  </outline>
</glyph>
<glyph name="uni032F" format="1">
  <advance width="0"/>
  <unicode hex="032F"/>
  <outline>
    <contour>
      <point x="-952" y="-489" type="line" name="sv01"/>
      <point x="-944" y="-296" name="dv02"/>
      <point x="-827" y="-192" name="sv02"/>
      <point x="-616" y="-192" type="curve" smooth="yes" name="hr01"/>
      <point x="-407" y="-192" name="sv03"/>
      <point x="-289" y="-296" name="dv01"/>
      <point x="-281" y="-489" type="curve" name="hr02"/>
      <point x="-422" y="-489" type="line"/>
      <point x="-437" y="-397"/>
      <point x="-504" y="-345"/>
      <point x="-616" y="-345" type="curve" smooth="yes"/>
      <point x="-728" y="-345"/>
      <point x="-794" y="-396"/>
      <point x="-809" y="-489" type="curve"/>
    </contour>
  </outline>
</glyph>
<glyph name="Alphatonos" format="1">
  <advance width="1233"/>
  <unicode hex="0386"/>
  <outline>
    <contour>
      <point x="202" y="1638" type="line" name="av01"/>
      <point x="484" y="1638" type="line"/>
      <point x="116" y="1262" type="line"/>
      <point x="-81" y="1262" type="line" name="iv01"/>
    </contour>
    <contour>
      <point x="436" y="1493" type="line" name="at01"/>
      <point x="797" y="1493" type="line"/>
      <point x="1200" y="0" type="line" name="ab01"/>
      <point x="905" y="0" type="line"/>
      <point x="813" y="369" type="line" name="dv01"/>
      <point x="418" y="369" type="line"/>
      <point x="328" y="0" type="line" name="ab02"/>
      <point x="33" y="0" type="line"/>
    </contour>
    <contour>
      <point x="756" y="612" type="line" name="dv02"/>
      <point x="616" y="1223" type="line"/>
      <point x="477" y="612" type="line"/>
    </contour>
  </outline>
</glyph>
<glyph name="Omicrontonos" format="1">
  <advance width="1233"/>
  <unicode hex="038C"/>
  <outline>
    <contour>
      <point x="112" y="1638" type="line" name="av01"/>
      <point x="394" y="1638" type="line" name="sh03"/>
      <point x="26" y="1262" type="line" name="sv01"/>
      <point x="-171" y="1262" type="line"/>
    </contour>
    <contour>
      <point x="617" y="-29" type="curve" smooth="yes" name="dv01"/>
      <point x="270" y="-29" name="sh01"/>
      <point x="92" y="237" name="at01"/>
      <point x="92" y="746" type="curve" smooth="yes" name="sh04"/>
      <point x="92" y="1255"/>
      <point x="270" y="1520" name="dv02"/>
      <point x="617" y="1520" type="curve" smooth="yes"/>
      <point x="962" y="1520" name="ah02"/>
      <point x="1141" y="1257"/>
      <point x="1141" y="746" type="curve" smooth="yes" name="sv02"/>
      <point x="1141" y="235"/>
      <point x="962" y="-29" name="sh02"/>
    </contour>
    <contour>
      <point x="616" y="236" type="curve" smooth="yes"/>
      <point x="692" y="236" name="ah01"/>
      <point x="747" y="276" name="sh05"/>
      <point x="782" y="357" type="curve" smooth="yes"/>
      <point x="817" y="436"/>
      <point x="834" y="566"/>
      <point x="834" y="746" type="curve" smooth="yes"/>
      <point x="834" y="925"/>
      <point x="817" y="1055"/>
      <point x="782" y="1134" type="curve" smooth="yes"/>
      <point x="747" y="1215"/>
      <point x="692" y="1255"/>
      <point x="616" y="1255" type="curve" smooth="yes"/>
      <point x="537" y="1255"/>
      <point x="486" y="1214"/>
      <point x="451" y="1134" type="curve" smooth="yes"/>
      <point x="416" y="1055"/>
      <point x="399" y="925"/>
      <point x="399" y="746" type="curve" smooth="yes"/>
      <point x="399" y="566"/>
      <point x="416" y="436"/>
      <point x="451" y="357" type="curve" smooth="yes"/>
      <point x="486" y="276"/>
      <point x="541" y="236"/>
    </contour>
  </outline>
</glyph>
<glyph name="Upsilondieresis" format="1">
  <advance width="1233"/>
  <unicode hex="03AB"/>
  <outline>
    <contour>
      <point x="321" y="1606" type="line" smooth="yes" name="dv01"/>
      <point x="301" y="1606" name="sh01"/>
      <point x="291" y="1616"/>
      <point x="291" y="1636" type="curve" smooth="yes" name="dv02"/>
      <point x="291" y="1822" type="line" smooth="yes"/>
      <point x="291" y="1842"/>
      <point x="301" y="1852" name="sh02"/>
      <point x="321" y="1852" type="curve" smooth="yes"/>
      <point x="497" y="1852" type="line" smooth="yes" name="sv01"/>
      <point x="517" y="1852" name="sh04"/>
      <point x="527" y="1842"/>
      <point x="527" y="1822" type="curve" smooth="yes" name="sv02"/>
      <point x="527" y="1636" type="line" smooth="yes"/>
      <point x="527" y="1616"/>
      <point x="517" y="1606" name="sh05"/>
      <point x="497" y="1606" type="curve" smooth="yes"/>
    </contour>
    <contour>
      <point x="716" y="1606" type="line" smooth="yes" name="sh03"/>
      <point x="696" y="1606"/>
      <point x="686" y="1616"/>
      <point x="686" y="1636" type="curve" smooth="yes"/>
      <point x="686" y="1822" type="line" smooth="yes"/>
      <point x="686" y="1842" name="ih01"/>
      <point x="696" y="1852"/>
      <point x="716" y="1852" type="curve" smooth="yes"/>
      <point x="892" y="1852" type="line" smooth="yes"/>
      <point x="912" y="1852" name="sh06"/>
      <point x="922" y="1842" name="sh07"/>
      <point x="922" y="1822" type="curve" smooth="yes" name="ab01"/>
      <point x="922" y="1636" type="line" smooth="yes" name="hr01"/>
      <point x="922" y="1616" name="ah01"/>
      <point x="912" y="1606" name="sh08"/>
      <point x="892" y="1606" type="curve" smooth="yes"/>
    </contour>
    <contour>
      <point x="459" y="534" type="line" smooth="yes"/>
      <point x="459" y="846"/>
      <point x="364" y="1142"/>
      <point x="260" y="1203" type="curve" smooth="yes"/>
      <point x="214" y="1230"/>
      <point x="105" y="1248"/>
      <point x="24" y="1229" type="curve"/>
      <point x="24" y="1493" type="line"/>
      <point x="68" y="1509"/>
      <point x="167" y="1506"/>
      <point x="251" y="1490" type="curve"/>
      <point x="424" y="1453"/>
      <point x="542" y="1343"/>
      <point x="596" y="1057" type="curve"/>
      <point x="667" y="1308"/>
      <point x="781" y="1453"/>
      <point x="940" y="1490" type="curve" smooth="yes"/>
      <point x="1007" y="1506"/>
      <point x="1066" y="1498"/>
      <point x="1115" y="1467" type="curve" smooth="yes"/>
      <point x="1248" y="1384"/>
      <point x="1221" y="1205"/>
      <point x="1181" y="1130" type="curve" smooth="yes"/>
      <point x="1113" y="1003"/>
      <point x="947" y="1068"/>
      <point x="931" y="1203" type="curve"/>
      <point x="808" y="1022"/>
      <point x="754" y="803"/>
      <point x="754" y="534" type="curve" smooth="yes"/>
      <point x="754" y="0" type="line"/>
      <point x="459" y="0" type="line"/>
    </contour>
  </outline>
</glyph>
<glyph name="upsilondieresistonos" format="1">
  <advance width="1233"/>
  <unicode hex="03B0"/>
  <outline>
    <contour>
      <point x="752" y="1891" type="line" name="av01"/>
      <point x="1034" y="1891" type="line" name="ih02"/>
      <point x="666" y="1515" type="line" name="at01"/>
      <point x="469" y="1515" type="line" name="ih03"/>
    </contour>
    <contour>
      <point x="211" y="1320" type="line" smooth="yes" name="sv01"/>
      <point x="191" y="1320" name="ih04"/>
      <point x="181" y="1330"/>
      <point x="181" y="1350" type="curve" smooth="yes" name="at02"/>
      <point x="181" y="1536" type="line" smooth="yes"/>
      <point x="181" y="1556"/>
      <point x="191" y="1566" name="sh02"/>
      <point x="211" y="1566" type="curve" smooth="yes"/>
      <point x="387" y="1566" type="line" smooth="yes" name="sv02"/>
      <point x="407" y="1566" name="dh03"/>
      <point x="417" y="1556"/>
      <point x="417" y="1536" type="curve" smooth="yes" name="at03"/>
      <point x="417" y="1350" type="line" smooth="yes" name="hr01"/>
      <point x="417" y="1330"/>
      <point x="407" y="1320" name="dh04"/>
      <point x="387" y="1320" type="curve" smooth="yes" name="sv03"/>
    </contour>
    <contour>
      <point x="816" y="1320" type="line" smooth="yes" name="ab01"/>
      <point x="796" y="1320" name="sh03"/>
      <point x="786" y="1330" name="sv04"/>
      <point x="786" y="1350" type="curve" smooth="yes"/>
      <point x="786" y="1536" type="line" smooth="yes" name="dh01"/>
      <point x="786" y="1556" name="dh02"/>
      <point x="796" y="1566"/>
      <point x="816" y="1566" type="curve" smooth="yes" name="sv05"/>
      <point x="992" y="1566" type="line" smooth="yes" name="ih01"/>
      <point x="1012" y="1566" name="ih05"/>
      <point x="1022" y="1556"/>
      <point x="1022" y="1536" type="curve" smooth="yes" name="sh01"/>
      <point x="1022" y="1350" type="line" smooth="yes"/>
      <point x="1022" y="1330"/>
      <point x="1012" y="1320" name="sh04"/>
      <point x="992" y="1320" type="curve" smooth="yes"/>
    </contour>
    <contour>
      <point x="610" y="0" type="curve" smooth="yes"/>
      <point x="288" y="0"/>
      <point x="241" y="167"/>
      <point x="241" y="379" type="curve" smooth="yes"/>
      <point x="241" y="895" type="line" name="hr02"/>
      <point x="76" y="895" type="line"/>
      <point x="76" y="1120" type="line"/>
      <point x="533" y="1120" type="line"/>
      <point x="533" y="365" type="line" smooth="yes"/>
      <point x="533" y="266"/>
      <point x="590" y="225"/>
      <point x="660" y="225" type="curve" smooth="yes"/>
      <point x="785" y="225"/>
      <point x="862" y="357"/>
      <point x="865" y="640" type="curve"/>
      <point x="868" y="823"/>
      <point x="838" y="1011"/>
      <point x="737" y="1120" type="curve" name="hr03"/>
      <point x="1028" y="1120" type="line"/>
      <point x="1100" y="1021"/>
      <point x="1157" y="835"/>
      <point x="1157" y="615" type="curve" smooth="yes"/>
      <point x="1157" y="243"/>
      <point x="998" y="0"/>
    </contour>
  </outline>
</glyph>
<glyph name="zeta" format="1">
  <advance width="1233"/>
  <unicode hex="03B6"/>
  <outline>
    <contour>
      <point x="762" y="-201" type="line" name="dh01"/>
      <point x="854" y="-201" name="sh01"/>
      <point x="880" y="-155" name="ab02"/>
      <point x="880" y="-104" type="curve" smooth="yes" name="sv01"/>
      <point x="880" y="-53"/>
      <point x="841" y="0" name="at01"/>
      <point x="762" y="0" type="curve" smooth="yes" name="sh02"/>
      <point x="-34" y="0"/>
      <point x="-5" y="900"/>
      <point x="660" y="1331" type="curve" name="sv02"/>
      <point x="189" y="1331" type="line" name="dh02"/>
      <point x="189" y="1556" type="line" name="ab01"/>
      <point x="1065" y="1556" type="line"/>
      <point x="1065" y="1331" type="line" name="sh03"/>
      <point x="658" y="1079"/>
      <point x="455" y="813"/>
      <point x="455" y="534" type="curve" smooth="yes"/>
      <point x="455" y="336"/>
      <point x="557" y="233"/>
      <point x="762" y="225" type="curve" smooth="yes"/>
      <point x="950" y="217"/>
      <point x="1079" y="107"/>
      <point x="1079" y="-104" type="curve" smooth="yes" name="hr01"/>
      <point x="1079" y="-301"/>
      <point x="951" y="-426"/>
      <point x="762" y="-426" type="curve" name="hr02"/>
    </contour>
  </outline>
</glyph>
<glyph name="theta" format="1">
  <advance width="1233"/>
  <unicode hex="03B8"/>
  <outline>
    <contour>
      <point x="617" y="-24" type="curve" smooth="yes" name="ab01"/>
      <point x="299" y="-24" name="sh01"/>
      <point x="97" y="284" name="dv02"/>
      <point x="97" y="776" type="curve" smooth="yes" name="sh02"/>
      <point x="97" y="1268"/>
      <point x="299" y="1575"/>
      <point x="616" y="1575" type="curve" smooth="yes" name="sh03"/>
      <point x="933" y="1575" name="dv01"/>
      <point x="1135" y="1268" name="sh04"/>
      <point x="1135" y="774" type="curve" smooth="yes" name="sv01"/>
      <point x="1135" y="525" name="ah02"/>
      <point x="1084" y="329" name="sh05"/>
      <point x="996" y="192" type="curve" smooth="yes"/>
      <point x="905" y="52" name="ah01"/>
      <point x="777" y="-24" name="sh06"/>
    </contour>
    <contour>
      <point x="839" y="887" type="line"/>
      <point x="823" y="1146"/>
      <point x="756" y="1343"/>
      <point x="616" y="1343" type="curve" smooth="yes"/>
      <point x="476" y="1343"/>
      <point x="409" y="1146"/>
      <point x="393" y="887" type="curve"/>
    </contour>
    <contour>
      <point x="616" y="209" type="curve" smooth="yes"/>
      <point x="761" y="209"/>
      <point x="823" y="415"/>
      <point x="839" y="662" type="curve"/>
      <point x="393" y="662" type="line"/>
      <point x="409" y="415"/>
      <point x="471" y="209"/>
    </contour>
  </outline>
</glyph>
<glyph name="uni03BC" format="1">
  <advance width="1233"/>
  <unicode hex="03BC"/>
  <outline>
    <contour>
      <point x="174" y="1120" type="line" name="sh01"/>
      <point x="461" y="1120" type="line" name="sh02"/>
      <point x="461" y="440" type="line" smooth="yes"/>
      <point x="461" y="287" name="sv01"/>
      <point x="516" y="211" name="ah02"/>
      <point x="625" y="211" type="curve" smooth="yes" name="at01"/>
      <point x="732" y="211"/>
      <point x="786" y="287" name="sh03"/>
      <point x="786" y="440" type="curve" smooth="yes" name="sh04"/>
      <point x="786" y="1120" type="line" name="dv02"/>
      <point x="1075" y="1120" type="line" name="iv01"/>
      <point x="1075" y="344" type="line" smooth="yes"/>
      <point x="1075" y="298" name="dv01"/>
      <point x="1080" y="264" name="ih01"/>
      <point x="1089" y="242" type="curve" smooth="yes" name="sv02"/>
      <point x="1098" y="221" name="sh05"/>
      <point x="1112" y="211" name="ab01"/>
      <point x="1133" y="211" type="curve" smooth="yes"/>
      <point x="1150" y="211" name="ah01"/>
      <point x="1169" y="218" name="sh06"/>
      <point x="1188" y="233" type="curve"/>
      <point x="1188" y="16" type="line"/>
      <point x="1131" y="-15"/>
      <point x="1083" y="-29"/>
      <point x="1036" y="-29" type="curve" smooth="yes"/>
      <point x="940" y="-29"/>
      <point x="882" y="17"/>
      <point x="846" y="129" type="curve"/>
      <point x="797" y="25"/>
      <point x="722" y="-29"/>
      <point x="629" y="-29" type="curve" smooth="yes"/>
      <point x="552" y="-29"/>
      <point x="496" y="3"/>
      <point x="461" y="66" type="curve"/>
      <point x="463" y="-428" type="line"/>
      <point x="174" y="-428" type="line"/>
    </contour>
  </outline>
</glyph>
<glyph name="xi" format="1">
  <advance width="1233"/>
  <unicode hex="03BE"/>
  <outline>
    <contour>
      <point x="752" y="-201" type="line" name="sh01"/>
      <point x="844" y="-201" name="sh02"/>
      <point x="870" y="-154" name="dh03"/>
      <point x="870" y="-107" type="curve" smooth="yes" name="dh01"/>
      <point x="870" y="-51" name="ih01"/>
      <point x="837" y="-5" name="sh03"/>
      <point x="752" y="0" type="curve" smooth="yes" name="ih02"/>
      <point x="663" y="5" name="ih03"/>
      <point x="153" y="-19" name="at01"/>
      <point x="153" y="407" type="curve" smooth="yes" name="sh04"/>
      <point x="153" y="610" name="sv01"/>
      <point x="268" y="734" name="sh05"/>
      <point x="524" y="779" type="curve" name="dv02"/>
      <point x="316" y="804" name="dv01"/>
      <point x="206" y="917" name="dh02"/>
      <point x="206" y="1078" type="curve" smooth="yes"/>
      <point x="206" y="1196" name="dh04"/>
      <point x="266" y="1270" name="ab01"/>
      <point x="426" y="1331" type="curve" name="hr01"/>
      <point x="179" y="1331" type="line" name="sh06"/>
      <point x="179" y="1556" type="line"/>
      <point x="1055" y="1556" type="line"/>
      <point x="1055" y="1331" type="line"/>
      <point x="684" y="1331"/>
      <point x="498" y="1243"/>
      <point x="498" y="1087" type="curve" smooth="yes"/>
      <point x="498" y="957"/>
      <point x="629" y="888"/>
      <point x="954" y="880" type="curve" name="hr02"/>
      <point x="954" y="657" type="line"/>
      <point x="621" y="652"/>
      <point x="445" y="570"/>
      <point x="445" y="409" type="curve" smooth="yes" name="hr03"/>
      <point x="445" y="257"/>
      <point x="606" y="238"/>
      <point x="752" y="225" type="curve"/>
      <point x="959" y="205"/>
      <point x="1069" y="102"/>
      <point x="1069" y="-95" type="curve" smooth="yes" name="hr04"/>
      <point x="1069" y="-306"/>
      <point x="941" y="-426"/>
      <point x="752" y="-426" type="curve" name="hr05"/>
    </contour>
  </outline>
</glyph>
<glyph name="omegatonos" format="1">
  <advance width="1233"/>
  <unicode hex="03CE"/>
  <outline>
    <contour>
      <point x="752" y="1646" type="line" name="sh01"/>
      <point x="1034" y="1646" type="line"/>
      <point x="666" y="1270" type="line"/>
      <point x="469" y="1270" type="line" name="ih01"/>
    </contour>
    <contour>
      <point x="393" y="-29" type="curve" smooth="yes" name="dv01"/>
      <point x="305" y="-29"/>
      <point x="227" y="5" name="at01"/>
      <point x="180" y="54" type="curve" smooth="yes" name="ih02"/>
      <point x="24" y="218" name="sh02"/>
      <point x="29" y="788"/>
      <point x="171" y="1120" type="curve" name="dv02"/>
      <point x="433" y="1120" type="line" name="sh03"/>
      <point x="372" y="905" name="ah02"/>
      <point x="346" y="748" name="sv01"/>
      <point x="346" y="526" type="curve" smooth="yes"/>
      <point x="346" y="395" name="sh04"/>
      <point x="356" y="273" name="ih03"/>
      <point x="372" y="237" type="curve" smooth="yes"/>
      <point x="380" y="220"/>
      <point x="395" y="210" name="sv02"/>
      <point x="416" y="209" type="curve" name="ih04"/>
      <point x="464" y="209"/>
      <point x="489" y="361" name="ah01"/>
      <point x="491" y="665" type="curve"/>
      <point x="743" y="665" type="line"/>
      <point x="745" y="361"/>
      <point x="770" y="209"/>
      <point x="818" y="209" type="curve"/>
      <point x="839" y="210"/>
      <point x="854" y="220"/>
      <point x="862" y="237" type="curve" smooth="yes"/>
      <point x="878" y="273"/>
      <point x="888" y="395"/>
      <point x="888" y="526" type="curve" smooth="yes"/>
      <point x="888" y="748"/>
      <point x="862" y="905"/>
      <point x="801" y="1120" type="curve"/>
      <point x="1063" y="1120" type="line"/>
      <point x="1208" y="778"/>
      <point x="1205" y="217"/>
      <point x="1054" y="54" type="curve"/>
      <point x="1003" y="1"/>
      <point x="923" y="-29"/>
      <point x="840" y="-29" type="curve" smooth="yes"/>
      <point x="725" y="-29"/>
      <point x="650" y="31"/>
      <point x="617" y="150" type="curve"/>
      <point x="584" y="31"/>
      <point x="509" y="-29"/>
    </contour>
  </outline>
</glyph>
<glyph name="uni0404" format="1">
  <advance width="1233"/>
  <unicode hex="0404"/>
  <outline>
    <contour>
      <point x="739" y="-29" type="curve" smooth="yes" name="dv01"/>
      <point x="340" y="-29"/>
      <point x="122" y="244" name="at01"/>
      <point x="122" y="746" type="curve" smooth="yes"/>
      <point x="122" y="1247"/>
      <point x="340" y="1520" name="sv01"/>
      <point x="739" y="1520" type="curve" smooth="yes"/>
      <point x="868" y="1520" name="dv04"/>
      <point x="967" y="1492" name="dv03"/>
      <point x="1051" y="1448" type="curve"/>
      <point x="1051" y="1120" type="line" name="dv02"/>
      <point x="978" y="1187"/>
      <point x="880" y="1255"/>
      <point x="754" y="1255" type="curve" smooth="yes"/>
      <point x="550" y="1255"/>
      <point x="457" y="1076"/>
      <point x="436" y="875" type="curve"/>
      <point x="1008" y="875" type="line"/>
      <point x="1008" y="615" type="line"/>
      <point x="436" y="615" type="line"/>
      <point x="455" y="420"/>
      <point x="556" y="236"/>
      <point x="755" y="236" type="curve" smooth="yes"/>
      <point x="854" y="236"/>
      <point x="953" y="281"/>
      <point x="1051" y="371" type="curve"/>
      <point x="1051" y="43" type="line"/>
      <point x="963" y="-2"/>
      <point x="864" y="-29"/>
    </contour>
  </outline>
</glyph>
<glyph name="uni0405" format="1">
  <advance width="1233"/>
  <unicode hex="0405"/>
  <outline>
    <contour>
      <point x="584" y="-29" type="curve" smooth="yes" name="dv01"/>
      <point x="420" y="-29" name="sh02"/>
      <point x="280" y="4" name="ih01"/>
      <point x="135" y="76" type="curve" name="dv02"/>
      <point x="135" y="381" type="line" name="ah02"/>
      <point x="288" y="270"/>
      <point x="439" y="215"/>
      <point x="576" y="215" type="curve" smooth="yes" name="sh01"/>
      <point x="729" y="215" name="at01"/>
      <point x="811" y="283"/>
      <point x="811" y="399" type="curve" smooth="yes" name="ih02"/>
      <point x="811" y="495" name="sv01"/>
      <point x="755" y="561" name="sh03"/>
      <point x="655" y="600" type="curve" smooth="yes"/>
      <point x="510" y="655" type="line" smooth="yes"/>
      <point x="219" y="764"/>
      <point x="129" y="876" name="sh04"/>
      <point x="129" y="1075" type="curve" smooth="yes"/>
      <point x="129" y="1360" name="ah01"/>
      <point x="313" y="1520" name="sh05"/>
      <point x="616" y="1520" type="curve" smooth="yes"/>
      <point x="753" y="1520"/>
      <point x="890" y="1488"/>
      <point x="1026" y="1427" type="curve"/>
      <point x="1026" y="1139" type="line"/>
      <point x="898" y="1228"/>
      <point x="768" y="1276"/>
      <point x="639" y="1276" type="curve" smooth="yes"/>
      <point x="495" y="1276"/>
      <point x="418" y="1216"/>
      <point x="418" y="1112" type="curve" smooth="yes"/>
      <point x="418" y="1069"/>
      <point x="432" y="1035"/>
      <point x="460" y="1008" type="curve" smooth="yes"/>
      <point x="487" y="981"/>
      <point x="534" y="955"/>
      <point x="633" y="918" type="curve" smooth="yes"/>
      <point x="760" y="870" type="line" smooth="yes"/>
      <point x="1007" y="777"/>
      <point x="1110" y="641"/>
      <point x="1110" y="417" type="curve" smooth="yes"/>
      <point x="1110" y="118"/>
      <point x="925" y="-29"/>
    </contour>
  </outline>
</glyph>
<glyph name="uni0427" format="1">
  <advance width="1233"/>
  <unicode hex="0427"/>
  <outline>
    <contour>
      <point x="828" y="766" type="line" name="iv01"/>
      <point x="788" y="663" name="dv01"/>
      <point x="681" y="607" name="sh01"/>
      <point x="488" y="607" type="curve" smooth="yes" name="at01"/>
      <point x="203" y="607"/>
      <point x="93" y="731" name="sh02"/>
      <point x="93" y="1027" type="curve" smooth="yes" name="dv02"/>
      <point x="93" y="1556" type="line" name="sh03"/>
      <point x="384" y="1556" type="line" name="at02"/>
      <point x="384" y="1095" type="line" smooth="yes"/>
      <point x="384" y="904" name="sh04"/>
      <point x="485" y="870" name="ah02"/>
      <point x="594" y="870" type="curve" smooth="yes" name="ah01"/>
      <point x="780" y="870" name="sh05"/>
      <point x="828" y="965"/>
      <point x="828" y="1136" type="curve" smooth="yes"/>
      <point x="828" y="1556" type="line"/>
      <point x="1119" y="1556" type="line"/>
      <point x="1119" y="0" type="line"/>
      <point x="828" y="0" type="line"/>
    </contour>
  </outline>
</glyph>
<glyph name="uni0434" format="1">
  <advance width="1233"/>
  <unicode hex="0434"/>
  <outline>
    <contour>
      <point x="68" y="219" type="line" name="dh01"/>
      <point x="144" y="219" type="line" smooth="yes" name="sv02"/>
      <point x="155" y="219"/>
      <point x="174" y="233" name="ih01"/>
      <point x="190" y="262" type="curve" smooth="yes" name="at01"/>
      <point x="206" y="289"/>
      <point x="216" y="335" name="dh04"/>
      <point x="216" y="435" type="curve" smooth="yes" name="sv01"/>
      <point x="216" y="1120" type="line" name="sh01"/>
      <point x="1063" y="1120" type="line" name="ih02"/>
      <point x="1063" y="219" type="line" name="ab01"/>
      <point x="1186" y="219" type="line" name="dh02"/>
      <point x="1186" y="-286" type="line" name="sv03"/>
      <point x="967" y="-286" type="line" name="hr03"/>
      <point x="967" y="0" type="line" name="dh03"/>
      <point x="287" y="0" type="line" name="sv04"/>
      <point x="287" y="-286" type="line" name="hr04"/>
      <point x="68" y="-286" type="line" name="sh02"/>
    </contour>
    <contour>
      <point x="772" y="219" type="line" name="ih03"/>
      <point x="772" y="901" type="line"/>
      <point x="507" y="901" type="line" name="sh03"/>
      <point x="507" y="459" type="line" smooth="yes"/>
      <point x="507" y="361"/>
      <point x="497" y="281"/>
      <point x="476" y="219" type="curve" name="hr05"/>
    </contour>
  </outline>
</glyph>
<glyph name="uni0447" format="1">
  <advance width="1233"/>
  <unicode hex="0447"/>
  <outline>
    <contour>
      <point x="760" y="416" type="line" name="dv01"/>
      <point x="570" y="416" type="line" smooth="yes"/>
      <point x="310" y="416" name="sh01"/>
      <point x="128" y="496" name="at01"/>
      <point x="128" y="813" type="curve" smooth="yes"/>
      <point x="128" y="1120" type="line" name="sh02"/>
      <point x="427" y="1120" type="line"/>
      <point x="427" y="783" type="line" smooth="yes" name="sh03"/>
      <point x="427" y="662" name="at02"/>
      <point x="473" y="633"/>
      <point x="653" y="633" type="curve" smooth="yes" name="sh04"/>
      <point x="760" y="633" type="line" name="ah02"/>
      <point x="760" y="1121" type="line" name="ah01"/>
      <point x="1050" y="1121" type="line" name="sh05"/>
      <point x="1050" y="0" type="line"/>
      <point x="760" y="0" type="line"/>
    </contour>
  </outline>
</glyph>
<glyph name="uni044A" format="1">
  <advance width="1233"/>
  <unicode hex="044A"/>
  <outline>
    <contour>
      <point x="301" y="895" type="line" name="sh01"/>
      <point x="50" y="895" type="line"/>
      <point x="50" y="1120" type="line" name="at01"/>
      <point x="592" y="1120" type="line"/>
      <point x="592" y="698" type="line" name="sh02"/>
      <point x="719" y="698" type="line" smooth="yes" name="dv02"/>
      <point x="1002" y="698" name="sh03"/>
      <point x="1174" y="585" name="ab01"/>
      <point x="1174" y="350" type="curve" smooth="yes"/>
      <point x="1174" y="114" name="sv01"/>
      <point x="1002" y="0" name="ah02"/>
      <point x="719" y="0" type="curve" smooth="yes" name="dv01"/>
      <point x="301" y="0" type="line" name="sh04"/>
    </contour>
    <contour>
      <point x="665" y="219" type="line" smooth="yes"/>
      <point x="813" y="219" name="ah01"/>
      <point x="881" y="257" name="sh05"/>
      <point x="881" y="350" type="curve" smooth="yes"/>
      <point x="881" y="443"/>
      <point x="813" y="479"/>
      <point x="665" y="479" type="curve" smooth="yes"/>
      <point x="592" y="479" type="line"/>
      <point x="592" y="219" type="line"/>
    </contour>
  </outline>
</glyph>
<glyph name="uni044F" format="1">
  <advance width="1233"/>
  <unicode hex="044F"/>
  <outline>
    <contour>
      <point x="365" y="488" type="line" name="hr00"/>
      <point x="248" y="544" name="sh01"/>
      <point x="144" y="637" name="at01"/>
      <point x="144" y="810" type="curve" smooth="yes"/>
      <point x="144" y="1020" name="sh02"/>
      <point x="293" y="1120" name="ah02"/>
      <point x="656" y="1120" type="curve" smooth="yes"/>
      <point x="1080" y="1120" type="line"/>
      <point x="1080" y="0" type="line" name="ab01"/>
      <point x="789" y="0" type="line"/>
      <point x="789" y="429" type="line" name="sh03"/>
      <point x="668" y="429" type="line" name="sv01"/>
      <point x="407" y="0" type="line"/>
      <point x="68" y="0" type="line" name="sh04"/>
    </contour>
    <contour>
      <point x="789" y="648" type="line"/>
      <point x="789" y="909" type="line" name="ah01"/>
      <point x="616" y="909" type="line" smooth="yes" name="sh05"/>
      <point x="508" y="909"/>
      <point x="426" y="872"/>
      <point x="426" y="779" type="curve" smooth="yes"/>
      <point x="426" y="686"/>
      <point x="508" y="648"/>
      <point x="616" y="648" type="curve" smooth="yes"/>
    </contour>
  </outline>
</glyph>
<glyph name="uni0456" format="1">
  <advance width="1233"/>
  <unicode hex="0456"/>
  <outline>
    <contour>
      <point x="441" y="1323" type="line" smooth="yes" name="dv01"/>
      <point x="421" y="1323" name="dh01"/>
      <point x="411" y="1333"/>
      <point x="411" y="1353" type="curve" smooth="yes" name="dv02"/>
      <point x="411" y="1635" type="line" smooth="yes"/>
      <point x="411" y="1655"/>
      <point x="421" y="1665" name="dh02"/>
      <point x="441" y="1665" type="curve" smooth="yes"/>
      <point x="674" y="1665" type="line" smooth="yes" name="ab01"/>
      <point x="694" y="1665"/>
      <point x="704" y="1655" name="sh01"/>
      <point x="704" y="1635" type="curve" smooth="yes" name="sv01"/>
      <point x="704" y="1353" type="line" smooth="yes"/>
      <point x="704" y="1333" name="at01"/>
      <point x="694" y="1323" name="sh02"/>
      <point x="674" y="1323" type="curve" smooth="yes"/>
    </contour>
    <contour>
      <point x="802" y="-12" type="line" smooth="yes"/>
      <point x="663" y="-12" name="sv02"/>
      <point x="563" y="24"/>
      <point x="502" y="96" type="curve" smooth="yes"/>
      <point x="441" y="167"/>
      <point x="411" y="287"/>
      <point x="411" y="455" type="curve" smooth="yes"/>
      <point x="411" y="895" type="line"/>
      <point x="184" y="895" type="line"/>
      <point x="184" y="1120" type="line"/>
      <point x="704" y="1120" type="line"/>
      <point x="704" y="455" type="line" smooth="yes"/>
      <point x="704" y="368"/>
      <point x="718" y="305"/>
      <point x="745" y="268" type="curve" smooth="yes"/>
      <point x="772" y="231"/>
      <point x="818" y="213"/>
      <point x="884" y="213" type="curve" smooth="yes"/>
      <point x="1118" y="213" type="line"/>
      <point x="1118" y="-12" type="line"/>
    </contour>
  </outline>
</glyph>
<glyph name="uni049B" format="1">
  <advance width="1233"/>
  <unicode hex="049B"/>
  <outline>
    <contour>
      <point x="909" y="0" type="line" name="ah01"/>
      <point x="874" y="0" type="line"/>
      <point x="567" y="524" type="line"/>
      <point x="467" y="428" type="line"/>
      <point x="467" y="0" type="line" name="sh02"/>
      <point x="174" y="0" type="line" name="sh01"/>
      <point x="174" y="1120" type="line" name="at01"/>
      <point x="467" y="1120" type="line" name="sh03"/>
      <point x="467" y="739" type="line" name="ih01"/>
      <point x="819" y="1120" type="line" name="at02"/>
      <point x="1174" y="1120" type="line" name="ih02"/>
      <point x="750" y="702" type="line"/>
      <point x="1065" y="209" type="line"/>
      <point x="1198" y="209" type="line" name="sh04"/>
      <point x="1198" y="-286" type="line" name="dv01"/>
      <point x="909" y="-286" type="line"/>
    </contour>
  </outline>
</glyph>
<glyph name="uni04A3" format="1">
  <advance width="1233"/>
  <unicode hex="04A3"/>
  <outline>
    <contour>
      <point x="944" y="0" type="line" name="dh04"/>
      <point x="653" y="0" type="line" name="dh03"/>
      <point x="653" y="530" type="line" name="dv02"/>
      <point x="336" y="530" type="line"/>
      <point x="336" y="0" type="line" name="dh02"/>
      <point x="45" y="0" type="line" name="dh01"/>
      <point x="45" y="1120" type="line" name="at01"/>
      <point x="336" y="1120" type="line" name="sh01"/>
      <point x="336" y="739" type="line"/>
      <point x="653" y="739" type="line" name="sh02"/>
      <point x="653" y="1120" type="line" name="at02"/>
      <point x="944" y="1120" type="line" name="sh03"/>
      <point x="944" y="209" type="line"/>
      <point x="1233" y="209" type="line" name="sh04"/>
      <point x="1233" y="-286" type="line" name="dv01"/>
      <point x="944" y="-286" type="line"/>
    </contour>
  </outline>
</glyph>
<glyph name="uni04AB" format="1">
  <advance width="1233"/>
  <unicode hex="04AB"/>
  <outline>
    <contour>
      <point x="747" y="909" type="curve" smooth="yes" name="dv03"/>
      <point x="555" y="909" name="dh02"/>
      <point x="450" y="785"/>
      <point x="450" y="558" type="curve" smooth="yes"/>
      <point x="450" y="334"/>
      <point x="554" y="211" name="ih02"/>
      <point x="750" y="211" type="curve" smooth="yes" name="sh01"/>
      <point x="863" y="211" name="dv01"/>
      <point x="962" y="251"/>
      <point x="1046" y="326" type="curve" name="ih01"/>
      <point x="1046" y="57" type="line" name="dv02"/>
      <point x="969" y="12" name="sh02"/>
      <point x="882" y="-15"/>
      <point x="786" y="-25" type="curve" name="dh01"/>
      <point x="855" y="-105" name="dv04"/>
      <point x="876" y="-164"/>
      <point x="876" y="-222" type="curve" smooth="yes"/>
      <point x="876" y="-339"/>
      <point x="797" y="-401"/>
      <point x="626" y="-401" type="curve" smooth="yes"/>
      <point x="562" y="-401"/>
      <point x="496" y="-392"/>
      <point x="424" y="-375" type="curve" name="hr01"/>
      <point x="424" y="-219" type="line"/>
      <point x="485" y="-242"/>
      <point x="539" y="-254"/>
      <point x="588" y="-254" type="curve" smooth="yes"/>
      <point x="667" y="-254"/>
      <point x="712" y="-221"/>
      <point x="712" y="-170" type="curve" smooth="yes"/>
      <point x="712" y="-135"/>
      <point x="691" y="-93"/>
      <point x="644" y="-26" type="curve"/>
      <point x="333" y="-2"/>
      <point x="153" y="214"/>
      <point x="153" y="558" type="curve" smooth="yes"/>
      <point x="153" y="928"/>
      <point x="361" y="1149"/>
      <point x="706" y="1149" type="curve" smooth="yes"/>
      <point x="827" y="1149"/>
      <point x="934" y="1123"/>
      <point x="1046" y="1063" type="curve"/>
      <point x="1046" y="795" type="line" name="hr02"/>
      <point x="961" y="868"/>
      <point x="856" y="909"/>
    </contour>
  </outline>
</glyph>
<glyph name="uni04B2" format="1">
  <advance width="1233"/>
  <unicode hex="04B2"/>
  <outline>
    <contour>
      <point x="913" y="0" type="line" name="dh01"/>
      <point x="901" y="0" type="line"/>
      <point x="616" y="494" type="line" name="iv01"/>
      <point x="332" y="0" type="line" name="ab01"/>
      <point x="27" y="0" type="line" name="iv02"/>
      <point x="465" y="758" type="line"/>
      <point x="39" y="1493" type="line" name="at01"/>
      <point x="344" y="1493" type="line"/>
      <point x="616" y="1018" type="line" name="iv03"/>
      <point x="889" y="1493" type="line" name="at02"/>
      <point x="1194" y="1493" type="line" name="ih01"/>
      <point x="770" y="758" type="line"/>
      <point x="1056" y="260" type="line"/>
      <point x="1206" y="260" type="line" name="dh02"/>
      <point x="1206" y="-322" type="line" name="av01"/>
      <point x="913" y="-322" type="line"/>
    </contour>
  </outline>
</glyph>
<glyph name="uni04D3" format="1">
  <advance width="1233"/>
  <unicode hex="04D3"/>
  <outline>
    <contour>
      <point x="331" y="1347" type="line" smooth="yes" name="dv03"/>
      <point x="311" y="1347" name="ih01"/>
      <point x="301" y="1357"/>
      <point x="301" y="1377" type="curve" smooth="yes" name="dv04"/>
      <point x="301" y="1563" type="line" smooth="yes"/>
      <point x="301" y="1583"/>
      <point x="311" y="1593" name="sh01"/>
      <point x="331" y="1593" type="curve" smooth="yes"/>
      <point x="507" y="1593" type="line" smooth="yes" name="sv01"/>
      <point x="527" y="1593" name="dh03"/>
      <point x="537" y="1583"/>
      <point x="537" y="1563" type="curve" smooth="yes" name="sv02"/>
      <point x="537" y="1377" type="line" smooth="yes"/>
      <point x="537" y="1357"/>
      <point x="527" y="1347" name="dh04"/>
      <point x="507" y="1347" type="curve" smooth="yes"/>
    </contour>
    <contour>
      <point x="726" y="1347" type="line" smooth="yes" name="dv01"/>
      <point x="706" y="1347"/>
      <point x="696" y="1357" name="dh01"/>
      <point x="696" y="1377" type="curve" smooth="yes"/>
      <point x="696" y="1563" type="line" smooth="yes"/>
      <point x="696" y="1583" name="ih02"/>
      <point x="706" y="1593"/>
      <point x="726" y="1593" type="curve" smooth="yes"/>
      <point x="902" y="1593" type="line" smooth="yes" name="dv06"/>
      <point x="922" y="1593"/>
      <point x="932" y="1583" name="ih03"/>
      <point x="932" y="1563" type="curve" smooth="yes" name="hr01"/>
      <point x="932" y="1377" type="line" smooth="yes"/>
      <point x="932" y="1357" name="dv07"/>
      <point x="922" y="1347"/>
      <point x="902" y="1347" type="curve" smooth="yes" name="sh02"/>
    </contour>
    <contour>
      <point x="494" y="-29" type="curve" smooth="yes" name="sh03"/>
      <point x="373" y="-29" name="sh04"/>
      <point x="274" y="4"/>
      <point x="202" y="72" type="curve" smooth="yes"/>
      <point x="131" y="139" name="ab01"/>
      <point x="95" y="233"/>
      <point x="95" y="354" type="curve" smooth="yes"/>
      <point x="95" y="482" name="sh05"/>
      <point x="134" y="580" name="ab02"/>
      <point x="222" y="644" type="curve" smooth="yes"/>
      <point x="307" y="706" name="dv02"/>
      <point x="438" y="737"/>
      <point x="615" y="737" type="curve" smooth="yes" name="sh06"/>
      <point x="818" y="737" type="line" name="dv05"/>
      <point x="818" y="786" type="line" smooth="yes"/>
      <point x="818" y="835"/>
      <point x="799" y="871" name="dh02"/>
      <point x="767" y="894" type="curve" smooth="yes"/>
      <point x="732" y="919"/>
      <point x="679" y="930"/>
      <point x="610" y="930" type="curve" smooth="yes" name="sh07"/>
      <point x="546" y="930"/>
      <point x="477" y="921"/>
      <point x="412" y="904" type="curve" smooth="yes"/>
      <point x="348" y="887"/>
      <point x="278" y="858"/>
      <point x="206" y="819" type="curve"/>
      <point x="206" y="1069" type="line"/>
      <point x="262" y="1092"/>
      <point x="336" y="1116"/>
      <point x="403" y="1128" type="curve"/>
      <point x="458" y="1139"/>
      <point x="540" y="1148"/>
      <point x="628" y="1148" type="curve" smooth="yes"/>
      <point x="815" y="1148"/>
      <point x="927" y="1102"/>
      <point x="997" y="1035" type="curve"/>
      <point x="1069" y="963"/>
      <point x="1109" y="852"/>
      <point x="1109" y="644" type="curve" smooth="yes"/>
      <point x="1109" y="570"/>
      <point x="1104" y="323"/>
      <point x="1104" y="274" type="curve" smooth="yes"/>
      <point x="1104" y="246"/>
      <point x="1105" y="216"/>
      <point x="1106" y="197" type="curve"/>
      <point x="1109" y="170"/>
      <point x="1110" y="142"/>
      <point x="1113" y="125" type="curve" smooth="yes" name="hr02"/>
      <point x="1117" y="98"/>
      <point x="1123" y="71"/>
      <point x="1127" y="58" type="curve" smooth="yes"/>
      <point x="1134" y="38"/>
      <point x="1144" y="15"/>
      <point x="1155" y="0" type="curve"/>
      <point x="865" y="0" type="line"/>
      <point x="853" y="20"/>
      <point x="842" y="43"/>
      <point x="837" y="58" type="curve" smooth="yes"/>
      <point x="833" y="71"/>
      <point x="827" y="98"/>
      <point x="824" y="125" type="curve"/>
      <point x="787" y="76"/>
      <point x="740" y="38"/>
      <point x="682" y="11" type="curve" smooth="yes"/>
      <point x="626" y="-16"/>
      <point x="570" y="-29"/>
    </contour>
    <contour>
      <point x="576" y="174" type="curve" smooth="yes"/>
      <point x="651" y="174"/>
      <point x="711" y="202"/>
      <point x="754" y="262" type="curve"/>
      <point x="797" y="319"/>
      <point x="818" y="401"/>
      <point x="818" y="506" type="curve" smooth="yes"/>
      <point x="818" y="526" type="line"/>
      <point x="701" y="526" type="line" smooth="yes"/>
      <point x="591" y="526"/>
      <point x="515" y="512"/>
      <point x="472" y="484" type="curve" smooth="yes"/>
      <point x="429" y="456"/>
      <point x="407" y="409"/>
      <point x="407" y="342" type="curve" smooth="yes"/>
      <point x="407" y="287"/>
      <point x="421" y="250"/>
      <point x="452" y="219" type="curve" smooth="yes"/>
      <point x="482" y="189"/>
      <point x="523" y="174"/>
    </contour>
  </outline>
</glyph>
<glyph name="uni04D5" format="1">
  <advance width="1233"/>
  <unicode hex="04D5"/>
  <outline>
    <contour>
      <point x="346" y="-29" type="curve" smooth="yes" name="dv01"/>
      <point x="134" y="-29" name="dh01"/>
      <point x="14" y="97"/>
      <point x="14" y="329" type="curve" smooth="yes" name="dh03"/>
      <point x="14" y="572"/>
      <point x="149" y="694" name="sv01"/>
      <point x="420" y="694" type="curve" smooth="yes" name="ih01"/>
      <point x="496" y="694" type="line"/>
      <point x="496" y="745" type="line" smooth="yes" name="at01"/>
      <point x="496" y="870" name="ih02"/>
      <point x="445" y="932" name="at02"/>
      <point x="342" y="932" type="curve" smooth="yes" name="dh06"/>
      <point x="265" y="932"/>
      <point x="176" y="896" name="sh01"/>
      <point x="76" y="823" type="curve" name="sv02"/>
      <point x="76" y="1069" type="line" name="ih03"/>
      <point x="179" y="1122"/>
      <point x="265" y="1147" name="sv03"/>
      <point x="361" y="1147" type="curve" smooth="yes" name="ih04"/>
      <point x="493" y="1147"/>
      <point x="569" y="1100" name="dh05"/>
      <point x="612" y="1020" type="curve"/>
      <point x="655" y="1105"/>
      <point x="742" y="1147" name="sv04"/>
      <point x="869" y="1147" type="curve" smooth="yes"/>
      <point x="1100" y="1147"/>
      <point x="1188" y="1006" name="dh04"/>
      <point x="1188" y="606" type="curve" smooth="yes" name="dv02"/>
      <point x="1188" y="479" type="line" name="sh02"/>
      <point x="737" y="479" type="line" name="sv05"/>
      <point x="737" y="286"/>
      <point x="804" y="184" name="dh02"/>
      <point x="932" y="184" type="curve" smooth="yes"/>
      <point x="1011" y="184"/>
      <point x="1091" y="223" name="sh03"/>
      <point x="1171" y="301" type="curve"/>
      <point x="1171" y="57" type="line"/>
      <point x="1107" y="0"/>
      <point x="1023" y="-29"/>
      <point x="919" y="-29" type="curve" smooth="yes"/>
      <point x="776" y="-29"/>
      <point x="678" y="23"/>
      <point x="618" y="135" type="curve"/>
      <point x="563" y="23"/>
      <point x="479" y="-29"/>
    </contour>
    <contour>
      <point x="963" y="690" type="line"/>
      <point x="963" y="713" type="line" smooth="yes"/>
      <point x="963" y="797"/>
      <point x="955" y="854"/>
      <point x="938" y="885" type="curve" smooth="yes"/>
      <point x="921" y="916"/>
      <point x="891" y="932"/>
      <point x="850" y="932" type="curve" smooth="yes"/>
      <point x="809" y="932"/>
      <point x="779" y="916"/>
      <point x="762" y="885" type="curve" smooth="yes"/>
      <point x="745" y="854"/>
      <point x="737" y="797"/>
      <point x="737" y="713" type="curve" smooth="yes"/>
      <point x="737" y="690" type="line"/>
    </contour>
    <contour>
      <point x="365" y="184" type="curve" smooth="yes"/>
      <point x="448" y="184"/>
      <point x="489" y="242"/>
      <point x="489" y="358" type="curve" smooth="yes"/>
      <point x="489" y="483" type="line"/>
      <point x="416" y="483" type="line" smooth="yes"/>
      <point x="299" y="483"/>
      <point x="240" y="431"/>
      <point x="240" y="327" type="curve" smooth="yes"/>
      <point x="240" y="236"/>
      <point x="284" y="184"/>
    </contour>
  </outline>
</glyph>
<glyph name="uni04D8" format="1">
  <advance width="1233"/>
  <unicode hex="04D8"/>
  <outline>
    <contour>
      <point x="617" y="-29" type="curve" smooth="yes" name="dv01"/>
      <point x="270" y="-29" name="sh01"/>
      <point x="92" y="234"/>
      <point x="92" y="745" type="curve" smooth="yes" name="ah02"/>
      <point x="92" y="840" type="line"/>
      <point x="832" y="840" type="line" name="sv01"/>
      <point x="832" y="845" type="line" smooth="yes" name="ih01"/>
      <point x="832" y="1105"/>
      <point x="762" y="1255" name="at01"/>
      <point x="595" y="1255" type="curve" smooth="yes" name="sh03"/>
      <point x="506" y="1255"/>
      <point x="407" y="1213" name="dv02"/>
      <point x="307" y="1120" type="curve" name="sh04"/>
      <point x="307" y="1448" type="line" name="sh02"/>
      <point x="400" y="1496"/>
      <point x="504" y="1520" name="ah01"/>
      <point x="611" y="1520" type="curve" smooth="yes" name="sh05"/>
      <point x="964" y="1520"/>
      <point x="1141" y="1256"/>
      <point x="1141" y="747" type="curve" smooth="yes"/>
      <point x="1141" y="236"/>
      <point x="962" y="-29"/>
    </contour>
    <contour>
      <point x="618" y="236" type="curve" smooth="yes"/>
      <point x="751" y="236"/>
      <point x="807" y="355"/>
      <point x="828" y="580" type="curve"/>
      <point x="405" y="580" type="line"/>
      <point x="420" y="345"/>
      <point x="489" y="236"/>
    </contour>
  </outline>
</glyph>
<glyph name="uni04E5" format="1">
  <advance width="1233"/>
  <unicode hex="04E5"/>
  <outline>
    <contour>
      <point x="331" y="1320" type="line" smooth="yes" name="sv01"/>
      <point x="311" y="1320" name="ih01"/>
      <point x="301" y="1330"/>
      <point x="301" y="1350" type="curve" smooth="yes" name="at01"/>
      <point x="301" y="1536" type="line" smooth="yes"/>
      <point x="301" y="1556"/>
      <point x="311" y="1566" name="sh01"/>
      <point x="331" y="1566" type="curve" smooth="yes"/>
      <point x="507" y="1566" type="line" smooth="yes" name="sv02"/>
      <point x="527" y="1566" name="dh03"/>
      <point x="537" y="1556"/>
      <point x="537" y="1536" type="curve" smooth="yes" name="at02"/>
      <point x="537" y="1350" type="line" smooth="yes"/>
      <point x="537" y="1330"/>
      <point x="527" y="1320" name="dh04"/>
      <point x="507" y="1320" type="curve" smooth="yes" name="sv03"/>
    </contour>
    <contour>
      <point x="726" y="1320" type="line" smooth="yes" name="dh01"/>
      <point x="706" y="1320" name="dh02"/>
      <point x="696" y="1330" name="iv01"/>
      <point x="696" y="1350" type="curve" smooth="yes" name="ih02"/>
      <point x="696" y="1536" type="line" smooth="yes" name="sh02"/>
      <point x="696" y="1556" name="ab01"/>
      <point x="706" y="1566" name="sh03"/>
      <point x="726" y="1566" type="curve" smooth="yes" name="ih03"/>
      <point x="902" y="1566" type="line" smooth="yes" name="ab02"/>
      <point x="922" y="1566"/>
      <point x="932" y="1556"/>
      <point x="932" y="1536" type="curve" smooth="yes" name="sh04"/>
      <point x="932" y="1350" type="line" smooth="yes"/>
      <point x="932" y="1330"/>
      <point x="922" y="1320"/>
      <point x="902" y="1320" type="curve" smooth="yes"/>
    </contour>
    <contour>
      <point x="152" y="1120" type="line"/>
      <point x="443" y="1120" type="line"/>
      <point x="443" y="405" type="line"/>
      <point x="800" y="1120" type="line"/>
      <point x="1091" y="1120" type="line"/>
      <point x="1091" y="0" type="line"/>
      <point x="800" y="0" type="line"/>
      <point x="800" y="715" type="line"/>
      <point x="443" y="0" type="line"/>
      <point x="152" y="0" type="line"/>
    </contour>
  </outline>
</glyph>
<glyph name="uni04EA" format="1">
  <advance width="1233"/>
  <unicode hex="04EA"/>
  <outline>
    <contour>
      <point x="331" y="1606" type="line" smooth="yes" name="dv03"/>
      <point x="311" y="1606" name="ih01"/>
      <point x="301" y="1616"/>
      <point x="301" y="1636" type="curve" smooth="yes" name="dv04"/>
      <point x="301" y="1822" type="line" smooth="yes"/>
      <point x="301" y="1842"/>
      <point x="311" y="1852" name="sh01"/>
      <point x="331" y="1852" type="curve" smooth="yes"/>
      <point x="507" y="1852" type="line" smooth="yes" name="sv01"/>
      <point x="527" y="1852" name="dh03"/>
      <point x="537" y="1842"/>
      <point x="537" y="1822" type="curve" smooth="yes" name="sv02"/>
      <point x="537" y="1636" type="line" smooth="yes"/>
      <point x="537" y="1616"/>
      <point x="527" y="1606" name="dh04"/>
      <point x="507" y="1606" type="curve" smooth="yes"/>
    </contour>
    <contour>
      <point x="726" y="1606" type="line" smooth="yes" name="dv01"/>
      <point x="706" y="1606" name="dh01"/>
      <point x="696" y="1616" name="at01"/>
      <point x="696" y="1636" type="curve" smooth="yes" name="sh02"/>
      <point x="696" y="1822" type="line" smooth="yes"/>
      <point x="696" y="1842" name="sh03"/>
      <point x="706" y="1852" name="sv03"/>
      <point x="726" y="1852" type="curve" smooth="yes" name="sh04"/>
      <point x="902" y="1852" type="line" smooth="yes" name="dv02"/>
      <point x="922" y="1852" name="ih02"/>
      <point x="932" y="1842" name="dh02"/>
      <point x="932" y="1822" type="curve" smooth="yes" name="hr01"/>
      <point x="932" y="1636" type="line" smooth="yes"/>
      <point x="932" y="1616" name="sh05"/>
      <point x="922" y="1606"/>
      <point x="902" y="1606" type="curve" smooth="yes"/>
    </contour>
    <contour>
      <point x="617" y="-29" type="curve" smooth="yes"/>
      <point x="270" y="-29"/>
      <point x="92" y="237"/>
      <point x="92" y="746" type="curve" smooth="yes"/>
      <point x="92" y="1255"/>
      <point x="270" y="1520"/>
      <point x="617" y="1520" type="curve" smooth="yes"/>
      <point x="962" y="1520"/>
      <point x="1141" y="1257"/>
      <point x="1141" y="746" type="curve" smooth="yes"/>
      <point x="1141" y="235"/>
      <point x="962" y="-29"/>
    </contour>
    <contour>
      <point x="828" y="911" type="line"/>
      <point x="809" y="1108"/>
      <point x="768" y="1255"/>
      <point x="616" y="1255" type="curve" smooth="yes"/>
      <point x="466" y="1255"/>
      <point x="424" y="1112"/>
      <point x="405" y="911" type="curve"/>
    </contour>
    <contour>
      <point x="617" y="236" type="curve" smooth="yes"/>
      <point x="768" y="236"/>
      <point x="819" y="382"/>
      <point x="832" y="651" type="curve"/>
      <point x="401" y="651" type="line"/>
      <point x="412" y="384"/>
      <point x="466" y="236"/>
    </contour>
  </outline>
</glyph>
<glyph name="uni04F1" format="1">
  <advance width="1233"/>
  <unicode hex="04F1"/>
  <outline>
    <contour>
      <point x="331" y="1320" type="line" smooth="yes" name="sv01"/>
      <point x="311" y="1320" name="sh01"/>
      <point x="301" y="1330"/>
      <point x="301" y="1350" type="curve" smooth="yes" name="at03"/>
      <point x="301" y="1536" type="line" smooth="yes"/>
      <point x="301" y="1556"/>
      <point x="311" y="1566" name="sh02"/>
      <point x="331" y="1566" type="curve" smooth="yes"/>
      <point x="507" y="1566" type="line" smooth="yes" name="sv02"/>
      <point x="527" y="1566" name="ah02"/>
      <point x="537" y="1556"/>
      <point x="537" y="1536" type="curve" smooth="yes" name="at04"/>
      <point x="537" y="1350" type="line" smooth="yes"/>
      <point x="537" y="1330"/>
      <point x="527" y="1320" name="sh03"/>
      <point x="507" y="1320" type="curve" smooth="yes" name="sv03"/>
    </contour>
    <contour>
      <point x="726" y="1320" type="line" smooth="yes" name="sv04"/>
      <point x="706" y="1320"/>
      <point x="696" y="1330"/>
      <point x="696" y="1350" type="curve" smooth="yes"/>
      <point x="696" y="1536" type="line" smooth="yes" name="at01"/>
      <point x="696" y="1556"/>
      <point x="706" y="1566" name="ih01"/>
      <point x="726" y="1566" type="curve" smooth="yes" name="at02"/>
      <point x="902" y="1566" type="line" smooth="yes" name="iv01"/>
      <point x="922" y="1566"/>
      <point x="932" y="1556" name="ab01"/>
      <point x="932" y="1536" type="curve" smooth="yes"/>
      <point x="932" y="1350" type="line" smooth="yes" name="ah01"/>
      <point x="932" y="1330" name="sh04"/>
      <point x="922" y="1320"/>
      <point x="902" y="1320" type="curve" smooth="yes"/>
    </contour>
    <contour>
      <point x="127" y="-201" type="line"/>
      <point x="246" y="-201" type="line" smooth="yes"/>
      <point x="363" y="-201"/>
      <point x="410" y="-175"/>
      <point x="463" y="-29" type="curve" smooth="yes"/>
      <point x="485" y="31" type="line"/>
      <point x="59" y="1120" type="line"/>
      <point x="367" y="1120" type="line"/>
      <point x="623" y="393" type="line"/>
      <point x="868" y="1120" type="line"/>
      <point x="1176" y="1120" type="line"/>
      <point x="711" y="-121" type="line" smooth="yes"/>
      <point x="632" y="-332"/>
      <point x="526" y="-424"/>
      <point x="369" y="-424" type="curve" smooth="yes"/>
      <point x="127" y="-424" type="line"/>
    </contour>
  </outline>
</glyph>
<glyph name="uni0544" format="1">
  <advance width="1233"/>
  <unicode hex="0544"/>
  <outline>
    <contour>
      <point x="543" y="-29" type="curve" smooth="yes" name="dv01"/>
      <point x="363" y="-29"/>
      <point x="238" y="14" name="dh01"/>
      <point x="154" y="109" type="curve" smooth="yes" name="at01"/>
      <point x="70" y="204"/>
      <point x="33" y="346" name="dh02"/>
      <point x="33" y="551" type="curve" smooth="yes" name="dv02"/>
      <point x="33" y="1493" type="line" name="dh03"/>
      <point x="328" y="1493" type="line" name="at02"/>
      <point x="328" y="477" type="line" smooth="yes"/>
      <point x="328" y="328" name="sh01"/>
      <point x="406" y="238"/>
      <point x="543" y="238" type="curve" smooth="yes" name="dh04"/>
      <point x="680" y="238"/>
      <point x="758" y="328"/>
      <point x="758" y="477" type="curve" smooth="yes"/>
      <point x="758" y="1493" type="line" name="sh02"/>
      <point x="1199" y="1493" type="line"/>
      <point x="1199" y="1233" type="line"/>
      <point x="1053" y="1233" type="line"/>
      <point x="1053" y="551" type="line" smooth="yes"/>
      <point x="1053" y="346"/>
      <point x="1016" y="204"/>
      <point x="932" y="109" type="curve" smooth="yes"/>
      <point x="848" y="14"/>
      <point x="723" y="-29"/>
    </contour>
  </outline>
</glyph>
<glyph name="uni0546" format="1">
  <advance width="1233"/>
  <unicode hex="0546"/>
  <outline>
    <contour>
      <point x="689" y="-29" type="curve" smooth="yes" name="dv01"/>
      <point x="509" y="-29"/>
      <point x="384" y="14" name="sh01"/>
      <point x="300" y="109" type="curve" smooth="yes" name="sv01"/>
      <point x="216" y="204"/>
      <point x="179" y="346" name="dh01"/>
      <point x="179" y="551" type="curve" smooth="yes" name="dh02"/>
      <point x="179" y="1233" type="line"/>
      <point x="33" y="1233" type="line" name="dv02"/>
      <point x="33" y="1493" type="line"/>
      <point x="474" y="1493" type="line" name="dh03"/>
      <point x="474" y="477" type="line" smooth="yes"/>
      <point x="474" y="328" name="dh04"/>
      <point x="552" y="238"/>
      <point x="689" y="238" type="curve" smooth="yes"/>
      <point x="826" y="238"/>
      <point x="904" y="328" name="sh02"/>
      <point x="904" y="477" type="curve" smooth="yes"/>
      <point x="904" y="618" type="line"/>
      <point x="1199" y="618" type="line" name="hr01"/>
      <point x="1199" y="551" type="line" smooth="yes"/>
      <point x="1199" y="346"/>
      <point x="1162" y="204"/>
      <point x="1078" y="109" type="curve" smooth="yes"/>
      <point x="994" y="14"/>
      <point x="869" y="-29"/>
    </contour>
  </outline>
</glyph>
<glyph name="uni0559" format="1">
  <advance width="1233"/>
  <unicode hex="0559"/>
  <outline>
    <contour>
      <point x="759" y="986" type="line" name="sh02"/>
      <point x="602" y="986" name="dh01"/>
      <point x="474" y="1114" name="at01"/>
      <point x="474" y="1271" type="curve" smooth="yes" name="sh01"/>
      <point x="474" y="1428" name="dh02"/>
      <point x="602" y="1556" name="sh03"/>
      <point x="759" y="1556" type="curve" name="hr02"/>
      <point x="759" y="1402" type="line"/>
      <point x="687" y="1402"/>
      <point x="628" y="1343"/>
      <point x="628" y="1271" type="curve" smooth="yes"/>
      <point x="628" y="1199"/>
      <point x="686" y="1140"/>
      <point x="759" y="1140" type="curve"/>
    </contour>
  </outline>
</glyph>
<glyph name="uni056E" format="1">
  <advance width="1233"/>
  <unicode hex="056E"/>
  <outline>
    <contour>
      <point x="616" y="-29" type="curve" smooth="yes" name="dv01"/>
      <point x="448" y="-29"/>
      <point x="320" y="31" name="sh01"/>
      <point x="232" y="135" type="curve" smooth="yes"/>
      <point x="143" y="240" name="sh03"/>
      <point x="98" y="383"/>
      <point x="98" y="558" type="curve" smooth="yes" name="at01"/>
      <point x="98" y="679"/>
      <point x="120" y="786"/>
      <point x="168" y="875" type="curve" smooth="yes" name="at02"/>
      <point x="216" y="964" name="sh05"/>
      <point x="286" y="1031" name="sv01"/>
      <point x="390" y="1074" type="curve" name="ih01"/>
      <point x="186" y="1212" type="line" name="sh04"/>
      <point x="433" y="1556" type="line"/>
      <point x="651" y="1412" type="line"/>
      <point x="554" y="1275" type="line" name="dv02"/>
      <point x="787" y="1120" type="line"/>
      <point x="1124" y="1120" type="line" name="ah02"/>
      <point x="1124" y="895" type="line"/>
      <point x="1033" y="895" type="line"/>
      <point x="1101" y="784" name="sv02"/>
      <point x="1135" y="681" name="sv03"/>
      <point x="1135" y="546" type="curve" smooth="yes" name="sh02"/>
      <point x="1135" y="385"/>
      <point x="1088" y="238"/>
      <point x="1001" y="135" type="curve" smooth="yes" name="ah01"/>
      <point x="913" y="31" name="sh06"/>
      <point x="785" y="-29"/>
    </contour>
    <contour>
      <point x="614" y="211" type="curve" smooth="yes"/>
      <point x="694" y="211"/>
      <point x="751" y="248"/>
      <point x="788" y="312" type="curve" smooth="yes"/>
      <point x="824" y="375"/>
      <point x="842" y="463"/>
      <point x="842" y="558" type="curve" smooth="yes"/>
      <point x="842" y="642"/>
      <point x="828" y="704"/>
      <point x="801" y="755" type="curve" smooth="yes"/>
      <point x="774" y="806"/>
      <point x="733" y="844"/>
      <point x="681" y="879" type="curve" smooth="yes"/>
      <point x="657" y="895" type="line"/>
      <point x="615" y="895" type="line" smooth="yes"/>
      <point x="470" y="895"/>
      <point x="391" y="777"/>
      <point x="391" y="557" type="curve" smooth="yes"/>
      <point x="391" y="453"/>
      <point x="409" y="366"/>
      <point x="446" y="306" type="curve" smooth="yes"/>
      <point x="482" y="246"/>
      <point x="535" y="211"/>
    </contour>
  </outline>
</glyph>
<glyph name="uni0574" format="1">
  <advance width="1233"/>
  <unicode hex="0574"/>
  <outline>
    <contour>
      <point x="485" y="-29" type="curve" smooth="yes" name="sv02"/>
      <point x="274" y="-29" name="dh01"/>
      <point x="166" y="110" name="at01"/>
      <point x="166" y="391" type="curve" smooth="yes"/>
      <point x="166" y="1120" type="line" name="dh02"/>
      <point x="459" y="1120" type="line" name="sv01"/>
      <point x="459" y="436" type="line" smooth="yes" name="sh01"/>
      <point x="459" y="279" name="at02"/>
      <point x="500" y="211"/>
      <point x="599" y="211" type="curve" smooth="yes" name="sh02"/>
      <point x="716" y="211"/>
      <point x="774" y="308" name="dh04"/>
      <point x="774" y="477" type="curve" smooth="yes" name="dh03"/>
      <point x="774" y="1556" type="line" name="iv01"/>
      <point x="1195" y="1556" type="line"/>
      <point x="1195" y="1331" type="line"/>
      <point x="1067" y="1331" type="line" name="sh03"/>
      <point x="1067" y="0" type="line"/>
      <point x="774" y="0" type="line"/>
      <point x="774" y="166" type="line"/>
      <point x="733" y="42"/>
      <point x="636" y="-29"/>
    </contour>
  </outline>
</glyph>
<glyph name="uni10EC" format="1">
  <advance width="1233"/>
  <unicode hex="10EC"/>
  <outline>
    <contour>
      <point x="603" y="0" type="curve" smooth="yes" name="ab01"/>
      <point x="411" y="0"/>
      <point x="293" y="52"/>
      <point x="214" y="147" type="curve" name="dh01"/>
      <point x="139" y="235"/>
      <point x="94" y="368" name="dv02"/>
      <point x="94" y="540" type="curve" smooth="yes"/>
      <point x="94" y="1248" type="line" smooth="yes" name="ih01"/>
      <point x="94" y="1348" name="sv01"/>
      <point x="128" y="1422"/>
      <point x="188" y="1473" type="curve" smooth="yes" name="sv02"/>
      <point x="245" y="1522"/>
      <point x="330" y="1550" name="sv03"/>
      <point x="419" y="1550" type="curve" smooth="yes"/>
      <point x="482" y="1550"/>
      <point x="536" y="1536" name="dh04"/>
      <point x="583" y="1509" type="curve" smooth="yes" name="dh03"/>
      <point x="630" y="1482"/>
      <point x="669" y="1442"/>
      <point x="696" y="1386" type="curve" name="dv01"/>
      <point x="747" y="1495"/>
      <point x="833" y="1550"/>
      <point x="952" y="1550" type="curve" smooth="yes" name="dh02"/>
      <point x="1139" y="1550" name="dv04"/>
      <point x="1233" y="1409"/>
      <point x="1233" y="1128" type="curve" name="dh06"/>
      <point x="957" y="1128" type="line"/>
      <point x="957" y="1200" name="sv04"/>
      <point x="954" y="1254"/>
      <point x="941" y="1290" type="curve" smooth="yes" name="dh05"/>
      <point x="926" y="1333"/>
      <point x="898" y="1343" name="dv03"/>
      <point x="857" y="1343" type="curve" smooth="yes"/>
      <point x="826" y="1343" name="sh01"/>
      <point x="801" y="1337"/>
      <point x="789" y="1326" type="curve" smooth="yes"/>
      <point x="776" y="1314"/>
      <point x="774" y="1297" name="sh02"/>
      <point x="774" y="1274" type="curve" smooth="yes"/>
      <point x="774" y="1162" type="line"/>
      <point x="607" y="1162" type="line"/>
      <point x="607" y="1272" type="line" smooth="yes"/>
      <point x="607" y="1296"/>
      <point x="605" y="1313"/>
      <point x="590" y="1325" type="curve" smooth="yes"/>
      <point x="575" y="1336"/>
      <point x="548" y="1342"/>
      <point x="501" y="1342" type="curve" smooth="yes" name="hr01"/>
      <point x="462" y="1342"/>
      <point x="435" y="1338"/>
      <point x="416" y="1322" type="curve" smooth="yes"/>
      <point x="396" y="1305"/>
      <point x="386" y="1275"/>
      <point x="386" y="1219" type="curve" smooth="yes"/>
      <point x="386" y="917" type="line"/>
      <point x="457" y="983"/>
      <point x="519" y="1017"/>
      <point x="647" y="1017" type="curve" smooth="yes"/>
      <point x="784" y="1017"/>
      <point x="913" y="980"/>
      <point x="1001" y="897" type="curve" smooth="yes"/>
      <point x="1085" y="817"/>
      <point x="1130" y="698"/>
      <point x="1130" y="523" type="curve" smooth="yes" name="hr02"/>
      <point x="1130" y="170"/>
      <point x="946" y="0"/>
    </contour>
    <contour>
      <point x="606" y="213" type="curve" smooth="yes"/>
      <point x="674" y="213"/>
      <point x="734" y="235"/>
      <point x="777" y="283" type="curve"/>
      <point x="817" y="330"/>
      <point x="838" y="396"/>
      <point x="838" y="509" type="curve" smooth="yes"/>
      <point x="838" y="618"/>
      <point x="818" y="691"/>
      <point x="781" y="738" type="curve" smooth="yes"/>
      <point x="744" y="785"/>
      <point x="688" y="803"/>
      <point x="611" y="803" type="curve" smooth="yes"/>
      <point x="542" y="803"/>
      <point x="489" y="788"/>
      <point x="450" y="747" type="curve" smooth="yes"/>
      <point x="411" y="707"/>
      <point x="388" y="642"/>
      <point x="388" y="533" type="curve" smooth="yes"/>
      <point x="388" y="430"/>
      <point x="409" y="347"/>
      <point x="446" y="291" type="curve" smooth="yes"/>
      <point x="483" y="235"/>
      <point x="537" y="213"/>
    </contour>
  </outline>
</glyph>
<glyph name="uni10FB" format="1">
  <advance width="1233"/>
  <unicode hex="10FB"/>
  <outline>
    <contour>
      <point x="301" y="797" type="line" smooth="yes" name="dv03"/>
      <point x="281" y="797" name="sh01"/>
      <point x="271" y="807"/>
      <point x="271" y="827" type="curve" smooth="yes" name="dv04"/>
      <point x="271" y="977" type="line" smooth="yes"/>
      <point x="271" y="997"/>
      <point x="281" y="1007" name="sh02"/>
      <point x="301" y="1007" type="curve" smooth="yes"/>
      <point x="486" y="1007" type="line" smooth="yes" name="dv05"/>
      <point x="506" y="1007" name="ah02"/>
      <point x="516" y="997"/>
      <point x="516" y="977" type="curve" smooth="yes" name="dv06"/>
      <point x="516" y="827" type="line" smooth="yes"/>
      <point x="516" y="807"/>
      <point x="506" y="797" name="sh03"/>
      <point x="486" y="797" type="curve" smooth="yes"/>
    </contour>
    <contour>
      <point x="753" y="444" type="line" smooth="yes" name="dv01"/>
      <point x="733" y="444" name="sh04"/>
      <point x="723" y="454"/>
      <point x="723" y="474" type="curve" smooth="yes" name="dv02"/>
      <point x="723" y="622" type="line" smooth="yes"/>
      <point x="723" y="642" name="sh05"/>
      <point x="733" y="652"/>
      <point x="753" y="652" type="curve" smooth="yes"/>
      <point x="932" y="652" type="line" smooth="yes" name="ah01"/>
      <point x="952" y="652" name="sh06"/>
      <point x="962" y="642"/>
      <point x="962" y="622" type="curve" smooth="yes"/>
      <point x="962" y="474" type="line" smooth="yes"/>
      <point x="962" y="454"/>
      <point x="952" y="444"/>
      <point x="932" y="444" type="curve" smooth="yes"/>
    </contour>
    <contour>
      <point x="301" y="49" type="line" smooth="yes"/>
      <point x="281" y="49"/>
      <point x="271" y="59"/>
      <point x="271" y="79" type="curve" smooth="yes"/>
      <point x="271" y="227" type="line" smooth="yes"/>
      <point x="271" y="247"/>
      <point x="281" y="257"/>
      <point x="301" y="257" type="curve" smooth="yes"/>
      <point x="483" y="257" type="line" smooth="yes"/>
      <point x="503" y="257"/>
      <point x="513" y="247"/>
      <point x="513" y="227" type="curve" smooth="yes"/>
      <point x="513" y="79" type="line" smooth="yes"/>
      <point x="513" y="59"/>
      <point x="503" y="49"/>
      <point x="483" y="49" type="curve" smooth="yes"/>
    </contour>
  </outline>
</glyph>
<glyph name="perthousand" format="1">
  <advance width="1233"/>
  <unicode hex="2030"/>
  <outline>
    <contour>
      <point x="286" y="856" type="curve" smooth="yes" name="dv05"/>
      <point x="206" y="856"/>
      <point x="135" y="888" name="dh01"/>
      <point x="84" y="939" type="curve" smooth="yes"/>
      <point x="28" y="995" name="dv02"/>
      <point x="0" y="1065"/>
      <point x="0" y="1144" type="curve" smooth="yes" name="dh04"/>
      <point x="0" y="1228"/>
      <point x="33" y="1300"/>
      <point x="82" y="1349" type="curve" smooth="yes" name="dv06"/>
      <point x="135" y="1402"/>
      <point x="208" y="1432" name="dh03"/>
      <point x="287" y="1432" type="curve" smooth="yes"/>
      <point x="368" y="1432" name="dv01"/>
      <point x="438" y="1400"/>
      <point x="489" y="1348" type="curve" smooth="yes" name="dh02"/>
      <point x="540" y="1297"/>
      <point x="571" y="1226"/>
      <point x="571" y="1146" type="curve" smooth="yes"/>
      <point x="571" y="1066"/>
      <point x="540" y="991"/>
      <point x="489" y="940" type="curve" smooth="yes"/>
      <point x="433" y="883" name="ab01"/>
      <point x="359" y="856"/>
    </contour>
    <contour>
      <point x="285" y="1018" type="curve" smooth="yes"/>
      <point x="318" y="1018" name="dv04"/>
      <point x="348" y="1031"/>
      <point x="373" y="1057" type="curve" smooth="yes" name="sh01"/>
      <point x="400" y="1085"/>
      <point x="410" y="1114"/>
      <point x="410" y="1146" type="curve" smooth="yes" name="ab02"/>
      <point x="410" y="1179"/>
      <point x="398" y="1208"/>
      <point x="373" y="1233" type="curve" smooth="yes" name="dh05"/>
      <point x="348" y="1258"/>
      <point x="319" y="1270" name="sv01"/>
      <point x="284" y="1270" type="curve" smooth="yes"/>
      <point x="250" y="1270" name="dh08"/>
      <point x="221" y="1258"/>
      <point x="198" y="1235" type="curve" smooth="yes"/>
      <point x="174" y="1211" name="sv02"/>
      <point x="162" y="1182"/>
      <point x="162" y="1147" type="curve" smooth="yes" name="ih02"/>
      <point x="162" y="1111"/>
      <point x="174" y="1081" name="dv03"/>
      <point x="198" y="1056" type="curve" smooth="yes"/>
      <point x="222" y="1031" name="sh02"/>
      <point x="251" y="1018"/>
    </contour>
    <contour>
      <point x="35" y="664" type="line" name="sv03"/>
      <point x="1079" y="1079" type="line"/>
      <point x="1118" y="985" type="line" name="dh07"/>
      <point x="72" y="565" type="line"/>
    </contour>
    <contour>
      <point x="330" y="0" type="curve" smooth="yes" name="sv04"/>
      <point x="250" y="0"/>
      <point x="183" y="28" name="dh06"/>
      <point x="128" y="84" type="curve" smooth="yes"/>
      <point x="73" y="141"/>
      <point x="45" y="209"/>
      <point x="45" y="290" type="curve" smooth="yes" name="sh03"/>
      <point x="45" y="374"/>
      <point x="73" y="437"/>
      <point x="128" y="492" type="curve" smooth="yes"/>
      <point x="183" y="547"/>
      <point x="250" y="575"/>
      <point x="329" y="575" type="curve" smooth="yes"/>
      <point x="410" y="575"/>
      <point x="478" y="547"/>
      <point x="533" y="492" type="curve" smooth="yes"/>
      <point x="586" y="439"/>
      <point x="616" y="371"/>
      <point x="616" y="288" type="curve" smooth="yes"/>
      <point x="616" y="211"/>
      <point x="591" y="145"/>
      <point x="532" y="85" type="curve" smooth="yes"/>
      <point x="476" y="28"/>
      <point x="409" y="0"/>
    </contour>
    <contour>
      <point x="946" y="0" type="curve" smooth="yes"/>
      <point x="870" y="0"/>
      <point x="802" y="27"/>
      <point x="746" y="82" type="curve" smooth="yes"/>
      <point x="690" y="138"/>
      <point x="662" y="208"/>
      <point x="662" y="285" type="curve" smooth="yes"/>
      <point x="662" y="289" type="line" smooth="yes"/>
      <point x="662" y="366"/>
      <point x="689" y="436"/>
      <point x="744" y="492" type="curve" smooth="yes"/>
      <point x="799" y="547"/>
      <point x="869" y="575"/>
      <point x="946" y="575" type="curve" smooth="yes"/>
      <point x="1026" y="575"/>
      <point x="1099" y="543"/>
      <point x="1150" y="492" type="curve" smooth="yes"/>
      <point x="1206" y="436"/>
      <point x="1233" y="364"/>
      <point x="1233" y="288" type="curve" smooth="yes"/>
      <point x="1233" y="212"/>
      <point x="1206" y="141"/>
      <point x="1150" y="85" type="curve" smooth="yes"/>
      <point x="1098" y="32"/>
      <point x="1027" y="0"/>
    </contour>
    <contour>
      <point x="330" y="162" type="curve" smooth="yes"/>
      <point x="363" y="162"/>
      <point x="393" y="175"/>
      <point x="418" y="201" type="curve" smooth="yes"/>
      <point x="445" y="229"/>
      <point x="455" y="258"/>
      <point x="455" y="290" type="curve" smooth="yes" name="hr01"/>
      <point x="455" y="323"/>
      <point x="443" y="352"/>
      <point x="418" y="377" type="curve" smooth="yes"/>
      <point x="393" y="402"/>
      <point x="364" y="414"/>
      <point x="330" y="414" type="curve" smooth="yes"/>
      <point x="296" y="414"/>
      <point x="267" y="402"/>
      <point x="243" y="378" type="curve" smooth="yes"/>
      <point x="219" y="354"/>
      <point x="207" y="325"/>
      <point x="207" y="291" type="curve" smooth="yes"/>
      <point x="207" y="255"/>
      <point x="219" y="225"/>
      <point x="243" y="200" type="curve" smooth="yes"/>
      <point x="267" y="175"/>
      <point x="296" y="162"/>
    </contour>
    <contour>
      <point x="946" y="162" type="curve" smooth="yes"/>
      <point x="978" y="162"/>
      <point x="1011" y="176"/>
      <point x="1035" y="200" type="curve" smooth="yes"/>
      <point x="1055" y="220"/>
      <point x="1071" y="252"/>
      <point x="1071" y="291" type="curve" smooth="yes"/>
      <point x="1071" y="323"/>
      <point x="1059" y="351"/>
      <point x="1034" y="376" type="curve" smooth="yes"/>
      <point x="1009" y="401"/>
      <point x="979" y="413"/>
      <point x="946" y="414" type="curve" smooth="yes"/>
      <point x="915" y="414"/>
      <point x="884" y="402"/>
      <point x="860" y="378" type="curve" smooth="yes"/>
      <point x="839" y="357"/>
      <point x="823" y="324"/>
      <point x="823" y="288" type="curve" smooth="yes"/>
      <point x="823" y="256"/>
      <point x="836" y="223"/>
      <point x="859" y="199" type="curve" smooth="yes"/>
      <point x="878" y="179"/>
      <point x="911" y="162"/>
    </contour>
  </outline>
</glyph>
<glyph name="uni2037" format="1">
  <advance width="1233"/>
  <unicode hex="2037"/>
  <outline>
    <contour>
      <point x="16" y="1493" type="line" name="at01"/>
      <point x="294" y="1493" type="line"/>
      <point x="467" y="1120" type="line" name="sv01"/>
      <point x="305" y="1120" type="line"/>
    </contour>
    <contour>
      <point x="396" y="1493" type="line" name="at02"/>
      <point x="674" y="1493" type="line"/>
      <point x="847" y="1120" type="line" name="sv02"/>
      <point x="685" y="1120" type="line" name="sv03"/>
    </contour>
    <contour>
      <point x="766" y="1493" type="line" name="at03"/>
      <point x="1044" y="1493" type="line"/>
      <point x="1217" y="1120" type="line" name="sv04"/>
      <point x="1055" y="1120" type="line" name="sv05"/>
    </contour>
  </outline>
</glyph>
<glyph name="uni203D" format="1">
  <advance width="1233"/>
  <unicode hex="203D"/>
  <outline>
    <contour>
      <point x="440" y="1252" type="line" name="sh01"/>
      <point x="420" y="1244" type="line" smooth="yes"/>
      <point x="364" y="1223" name="dh01"/>
      <point x="312" y="1197"/>
      <point x="233" y="1139" type="curve" name="at01"/>
      <point x="233" y="1407" type="line" name="dh04"/>
      <point x="365" y="1483"/>
      <point x="495" y="1520"/>
      <point x="636" y="1520" type="curve" smooth="yes" name="sh02"/>
      <point x="899" y="1520"/>
      <point x="1065" y="1388" name="sh03"/>
      <point x="1065" y="1168" type="curve" smooth="yes"/>
      <point x="1065" y="1069" name="iv01"/>
      <point x="1031" y="993" name="dh03"/>
      <point x="903" y="868" type="curve" smooth="yes"/>
      <point x="815" y="782" type="line" smooth="yes" name="dh02"/>
      <point x="717" y="687" name="av01"/>
      <point x="712" y="653"/>
      <point x="709" y="571" type="curve" smooth="yes" name="ih01"/>
      <point x="707" y="524" type="line"/>
      <point x="707" y="401" type="line"/>
      <point x="440" y="401" type="line"/>
    </contour>
    <contour>
      <point x="707" y="997" type="line"/>
      <point x="754" y="1046"/>
      <point x="780" y="1087"/>
      <point x="780" y="1146" type="curve" smooth="yes" name="hr01"/>
      <point x="780" y="1190" name="sh04"/>
      <point x="765" y="1223"/>
      <point x="734" y="1246" type="curve" smooth="yes"/>
      <point x="726" y="1252"/>
      <point x="717" y="1257" name="sh05"/>
      <point x="707" y="1261" type="curve"/>
    </contour>
    <contour>
      <point x="574" y="-50" type="curve" smooth="yes"/>
      <point x="529" y="-50"/>
      <point x="491" y="-34"/>
      <point x="460" y="-3" type="curve" smooth="yes" name="hr02"/>
      <point x="429" y="28"/>
      <point x="413" y="68"/>
      <point x="413" y="117" type="curve" smooth="yes"/>
      <point x="413" y="166"/>
      <point x="429" y="208"/>
      <point x="460" y="239" type="curve" smooth="yes"/>
      <point x="492" y="270"/>
      <point x="534" y="284"/>
      <point x="574" y="284" type="curve" smooth="yes"/>
      <point x="585" y="284"/>
      <point x="596" y="283"/>
      <point x="607" y="281" type="curve" smooth="yes"/>
      <point x="612" y="280"/>
      <point x="625" y="277"/>
      <point x="636" y="272" type="curve" smooth="yes"/>
      <point x="645" y="268"/>
      <point x="658" y="261"/>
      <point x="663" y="258" type="curve" smooth="yes"/>
      <point x="668" y="255"/>
      <point x="677" y="248"/>
      <point x="688" y="237" type="curve" smooth="yes"/>
      <point x="701" y="224"/>
      <point x="714" y="207"/>
      <point x="723" y="184" type="curve" smooth="yes" name="hr03"/>
      <point x="731" y="164"/>
      <point x="735" y="142"/>
      <point x="735" y="118" type="curve" smooth="yes"/>
      <point x="735" y="69"/>
      <point x="719" y="28"/>
      <point x="688" y="-3" type="curve" smooth="yes"/>
      <point x="657" y="-34"/>
      <point x="619" y="-50"/>
    </contour>
  </outline>
</glyph>
<glyph name="uni2074" format="1">
  <advance width="1233"/>
  <unicode hex="2074"/>
  <outline>
    <contour>
      <point x="639" y="1300" type="line" name="dh01"/>
      <point x="246" y="1300" type="line"/>
      <point x="246" y="1462" type="line"/>
      <point x="621" y="1955" type="line" name="av01"/>
      <point x="825" y="1955" type="line" name="sh01"/>
      <point x="825" y="1443" type="line" name="sv01"/>
      <point x="934" y="1443" type="line"/>
      <point x="934" y="1300" type="line" name="sv02"/>
      <point x="825" y="1300" type="line" name="dh02"/>
      <point x="825" y="1120" type="line" name="at01"/>
      <point x="639" y="1120" type="line"/>
    </contour>
    <contour>
      <point x="639" y="1443" type="line" name="sh02"/>
      <point x="639" y="1773" type="line"/>
      <point x="389" y="1443" type="line"/>
    </contour>
  </outline>
</glyph>
<glyph name="uni2078" format="1">
  <advance width="1233"/>
  <unicode hex="2078"/>
  <outline>
    <contour>
      <point x="617" y="1113" type="curve" smooth="yes" name="dv01"/>
      <point x="402" y="1113" name="dh01"/>
      <point x="282" y="1206" name="ih01"/>
      <point x="282" y="1357" type="curve" smooth="yes" name="sh01"/>
      <point x="282" y="1468" name="dv04"/>
      <point x="347" y="1541" name="dh04"/>
      <point x="466" y="1572" type="curve" name="ih02"/>
      <point x="359" y="1603" name="sh02"/>
      <point x="308" y="1665"/>
      <point x="308" y="1757" type="curve" smooth="yes" name="dv06"/>
      <point x="308" y="1895" name="dh03"/>
      <point x="426" y="1980" name="dv03"/>
      <point x="615" y="1980" type="curve" smooth="yes" name="dh02"/>
      <point x="807" y="1980"/>
      <point x="924" y="1893" name="dv02"/>
      <point x="924" y="1757" type="curve" smooth="yes"/>
      <point x="924" y="1665"/>
      <point x="870" y="1603" name="dv05"/>
      <point x="769" y="1572" type="curve"/>
      <point x="882" y="1543"/>
      <point x="949" y="1473"/>
      <point x="949" y="1357" type="curve" smooth="yes"/>
      <point x="949" y="1204"/>
      <point x="830" y="1113"/>
    </contour>
    <contour>
      <point x="616" y="1635" type="curve" smooth="yes"/>
      <point x="696" y="1635"/>
      <point x="745" y="1677"/>
      <point x="745" y="1742" type="curve" smooth="yes"/>
      <point x="745" y="1807"/>
      <point x="696" y="1847"/>
      <point x="616" y="1847" type="curve" smooth="yes"/>
      <point x="536" y="1847"/>
      <point x="487" y="1806"/>
      <point x="487" y="1742" type="curve" smooth="yes"/>
      <point x="487" y="1677"/>
      <point x="536" y="1635"/>
    </contour>
    <contour>
      <point x="615" y="1246" type="curve" smooth="yes" name="hr01"/>
      <point x="706" y="1246"/>
      <point x="767" y="1296"/>
      <point x="767" y="1375" type="curve" smooth="yes"/>
      <point x="767" y="1416"/>
      <point x="750" y="1447"/>
      <point x="726" y="1467" type="curve" smooth="yes"/>
      <point x="699" y="1490"/>
      <point x="663" y="1501"/>
      <point x="618" y="1501" type="curve" smooth="yes"/>
      <point x="525" y="1501"/>
      <point x="464" y="1451"/>
      <point x="464" y="1374" type="curve" smooth="yes" name="hr02"/>
      <point x="464" y="1297"/>
      <point x="524" y="1246"/>
    </contour>
  </outline>
</glyph>
<glyph name="uni20A0" format="1">
  <advance width="1233"/>
  <unicode hex="20A0"/>
  <outline>
    <contour>
      <point x="659" y="416" type="line" name="ah02"/>
      <point x="583" y="360" name="dv01"/>
      <point x="507" y="332" name="sh01"/>
      <point x="416" y="332" type="curve" smooth="yes" name="at01"/>
      <point x="163" y="332" name="sh02"/>
      <point x="0" y="557" name="ih01"/>
      <point x="0" y="913" type="curve" smooth="yes" name="sv01"/>
      <point x="0" y="1269" name="sh04"/>
      <point x="162" y="1494" name="dv02"/>
      <point x="418" y="1494" type="curve" smooth="yes" name="sh05"/>
      <point x="502" y="1494" name="at02"/>
      <point x="578" y="1471"/>
      <point x="659" y="1411" type="curve" name="sv02"/>
      <point x="659" y="1179" type="line" name="sh06"/>
      <point x="583" y="1252"/>
      <point x="513" y="1285" name="dv04"/>
      <point x="440" y="1285" type="curve" smooth="yes" name="dv03"/>
      <point x="291" y="1285" name="sh03"/>
      <point x="206" y="1145" name="sv03"/>
      <point x="206" y="913" type="curve" smooth="yes"/>
      <point x="206" y="683" name="ab01"/>
      <point x="290" y="542"/>
      <point x="439" y="542" type="curve" smooth="yes" name="ah01"/>
      <point x="511" y="542"/>
      <point x="584" y="574"/>
      <point x="659" y="647" type="curve"/>
      <point x="659" y="1120" type="line"/>
      <point x="1207" y="1120" type="line"/>
      <point x="1207" y="902" type="line"/>
      <point x="858" y="902" type="line" name="hr01"/>
      <point x="858" y="693" type="line"/>
      <point x="1187" y="693" type="line"/>
      <point x="1187" y="475" type="line"/>
      <point x="858" y="475" type="line"/>
      <point x="858" y="218" type="line"/>
      <point x="1219" y="218" type="line"/>
      <point x="1219" y="0" type="line"/>
      <point x="659" y="0" type="line"/>
    </contour>
  </outline>
</glyph>
<glyph name="colonmonetary" format="1">
  <advance width="1233"/>
  <unicode hex="20A1"/>
  <outline>
    <contour>
      <point x="583" y="-10" type="line"/>
      <point x="544" y="-1"/>
      <point x="507" y="11" name="av03"/>
      <point x="472" y="26" type="curve"/>
      <point x="443" y="-89" type="line"/>
      <point x="302" y="-89" type="line"/>
      <point x="350" y="99" type="line" name="dh01"/>
      <point x="322" y="122"/>
      <point x="295" y="149" name="av01"/>
      <point x="268" y="180" type="curve" smooth="yes"/>
      <point x="149" y="319"/>
      <point x="89" y="507"/>
      <point x="89" y="742" type="curve" smooth="yes"/>
      <point x="89" y="1223" name="av02"/>
      <point x="343" y="1503"/>
      <point x="715" y="1519" type="curve"/>
      <point x="734" y="1593" type="line"/>
      <point x="874" y="1593" type="line" name="iv01"/>
      <point x="854" y="1513" type="line"/>
      <point x="886" y="1508" name="dv02"/>
      <point x="918" y="1501" name="iv02"/>
      <point x="950" y="1492" type="curve"/>
      <point x="955" y="1489" name="dv01"/>
      <point x="960" y="1488" name="sv01"/>
      <point x="967" y="1487" type="curve" name="av04"/>
      <point x="994" y="1593" type="line"/>
      <point x="1135" y="1593" type="line"/>
      <point x="1093" y="1431" type="line"/>
      <point x="1107" y="1424"/>
      <point x="1119" y="1416"/>
      <point x="1130" y="1409" type="curve" name="iv03"/>
      <point x="1130" y="1100" type="line"/>
      <point x="1095" y="1129" name="dh02"/>
      <point x="1062" y="1154" name="iv04"/>
      <point x="1027" y="1173" type="curve"/>
      <point x="791" y="250" type="line"/>
      <point x="908" y="253"/>
      <point x="1013" y="294"/>
      <point x="1130" y="391" type="curve"/>
      <point x="1130" y="82" type="line"/>
      <point x="1014" y="9"/>
      <point x="890" y="-29"/>
      <point x="753" y="-29" type="curve" smooth="yes"/>
      <point x="742" y="-29"/>
      <point x="730" y="-29"/>
      <point x="718" y="-28" type="curve"/>
      <point x="702" y="-90" type="line"/>
      <point x="563" y="-90" type="line"/>
    </contour>
    <contour>
      <point x="900" y="1226" type="line"/>
      <point x="863" y="1235"/>
      <point x="825" y="1240"/>
      <point x="784" y="1241" type="curve"/>
      <point x="551" y="336" type="line"/>
      <point x="582" y="307"/>
      <point x="616" y="286"/>
      <point x="655" y="271" type="curve"/>
    </contour>
    <contour>
      <point x="636" y="1212" type="line" name="hr01"/>
      <point x="588" y="1190"/>
      <point x="547" y="1156"/>
      <point x="512" y="1109" type="curve" smooth="yes"/>
      <point x="449" y="1025"/>
      <point x="416" y="904"/>
      <point x="416" y="745" type="curve" smooth="yes" name="hr02"/>
      <point x="416" y="649"/>
      <point x="428" y="566"/>
      <point x="453" y="497" type="curve"/>
    </contour>
  </outline>
</glyph>
<glyph name="Euro" format="1">
  <advance width="1233"/>
  <unicode hex="20AC"/>
  <outline>
    <contour>
      <point x="779" y="-29" type="curve" smooth="yes" name="dv01"/>
      <point x="623" y="-29"/>
      <point x="496" y="15" name="dv03"/>
      <point x="399" y="102" type="curve" smooth="yes"/>
      <point x="301" y="190"/>
      <point x="238" y="317" name="dv04"/>
      <point x="209" y="483" type="curve" name="sh01"/>
      <point x="6" y="483" type="line" name="dh01"/>
      <point x="90" y="670" type="line" name="sh02"/>
      <point x="186" y="670" type="line" name="sh03"/>
      <point x="185" y="679"/>
      <point x="185" y="689"/>
      <point x="185" y="700" type="curve" smooth="yes" name="dv05"/>
      <point x="185" y="703"/>
      <point x="184" y="705" name="at01"/>
      <point x="184" y="745" type="curve" smooth="yes"/>
      <point x="184" y="786"/>
      <point x="185" y="786"/>
      <point x="185" y="790" type="curve" smooth="yes"/>
      <point x="185" y="801" name="sv01"/>
      <point x="185" y="810"/>
      <point x="186" y="821" type="curve" name="sv02"/>
      <point x="6" y="821" type="line"/>
      <point x="90" y="1010" type="line" name="sv03"/>
      <point x="209" y="1010" type="line"/>
      <point x="238" y="1175" name="sh04"/>
      <point x="301" y="1302" name="dh02"/>
      <point x="399" y="1390" type="curve" smooth="yes" name="sh05"/>
      <point x="496" y="1478" name="sh06"/>
      <point x="623" y="1520"/>
      <point x="778" y="1520" type="curve" smooth="yes" name="sv04"/>
      <point x="837" y="1520"/>
      <point x="887" y="1514"/>
      <point x="936" y="1502" type="curve" smooth="yes" name="dv02"/>
      <point x="985" y="1490"/>
      <point x="1032" y="1472"/>
      <point x="1077" y="1448" type="curve"/>
      <point x="1077" y="1120" type="line"/>
      <point x="1028" y="1172"/>
      <point x="980" y="1210"/>
      <point x="933" y="1234" type="curve" smooth="yes"/>
      <point x="886" y="1258"/>
      <point x="837" y="1270"/>
      <point x="786" y="1270" type="curve" smooth="yes"/>
      <point x="710" y="1270"/>
      <point x="652" y="1244"/>
      <point x="609" y="1205" type="curve" smooth="yes"/>
      <point x="566" y="1165"/>
      <point x="531" y="1102"/>
      <point x="508" y="1010" type="curve"/>
      <point x="950" y="1010" type="line"/>
      <point x="866" y="821" type="line"/>
      <point x="484" y="821" type="line"/>
      <point x="483" y="810"/>
      <point x="482" y="799"/>
      <point x="482" y="787" type="curve" smooth="yes"/>
      <point x="482" y="780"/>
      <point x="481" y="777"/>
      <point x="481" y="742" type="curve" smooth="yes"/>
      <point x="481" y="707"/>
      <point x="482" y="707"/>
      <point x="482" y="703" type="curve" smooth="yes"/>
      <point x="482" y="692"/>
      <point x="482" y="681"/>
      <point x="483" y="670" type="curve"/>
      <point x="799" y="670" type="line"/>
      <point x="715" y="483" type="line"/>
      <point x="508" y="483" type="line"/>
      <point x="524" y="399"/>
      <point x="556" y="334"/>
      <point x="604" y="289" type="curve" smooth="yes"/>
      <point x="655" y="242"/>
      <point x="712" y="221"/>
      <point x="783" y="221" type="curve" smooth="yes"/>
      <point x="836" y="221"/>
      <point x="886" y="233"/>
      <point x="933" y="257" type="curve" smooth="yes"/>
      <point x="980" y="281"/>
      <point x="1028" y="319"/>
      <point x="1077" y="371" type="curve"/>
      <point x="1077" y="43" type="line"/>
      <point x="1033" y="19"/>
      <point x="987" y="1"/>
      <point x="938" y="-11" type="curve" smooth="yes"/>
      <point x="889" y="-23"/>
      <point x="836" y="-29"/>
    </contour>
  </outline>
</glyph>
<glyph name="uni20B0" format="1">
  <advance width="1233"/>
  <unicode hex="20B0"/>
  <outline>
    <contour>
      <point x="723" y="198" type="line" name="ih01"/>
      <point x="872" y="198" name="sh02"/>
      <point x="948" y="275"/>
      <point x="948" y="407" type="curve" smooth="yes" name="dv02"/>
      <point x="948" y="471"/>
      <point x="930" y="518" name="sv01"/>
      <point x="885" y="566" type="curve"/>
      <point x="812" y="485"/>
      <point x="723" y="450" name="dv03"/>
      <point x="638" y="450" type="curve" smooth="yes"/>
      <point x="551" y="450"/>
      <point x="496" y="488"/>
      <point x="446" y="554" type="curve" smooth="yes" name="dh01"/>
      <point x="420" y="588" name="at01"/>
      <point x="383" y="634" name="dh04"/>
      <point x="350" y="634" type="curve" smooth="yes" name="hr01"/>
      <point x="317" y="634" name="sh01"/>
      <point x="276" y="590" name="dv01"/>
      <point x="216" y="490" type="curve"/>
      <point x="25" y="622" type="line" name="dh03"/>
      <point x="130" y="802" name="sv02"/>
      <point x="218" y="892" name="dh02"/>
      <point x="336" y="892" type="curve" smooth="yes" name="hr02"/>
      <point x="393" y="892"/>
      <point x="452" y="871" name="sh03"/>
      <point x="501" y="824" type="curve" smooth="yes"/>
      <point x="586" y="742"/>
      <point x="614" y="716"/>
      <point x="639" y="716" type="curve" smooth="yes"/>
      <point x="654" y="716"/>
      <point x="680" y="724"/>
      <point x="695" y="743" type="curve"/>
      <point x="571" y="863"/>
      <point x="511" y="998"/>
      <point x="511" y="1169" type="curve" smooth="yes"/>
      <point x="511" y="1392"/>
      <point x="612" y="1520"/>
      <point x="827" y="1520" type="curve" smooth="yes"/>
      <point x="1034" y="1520"/>
      <point x="1146" y="1404"/>
      <point x="1146" y="1155" type="curve" smooth="yes"/>
      <point x="1146" y="1024"/>
      <point x="1116" y="883"/>
      <point x="1048" y="766" type="curve"/>
      <point x="1158" y="651"/>
      <point x="1208" y="545"/>
      <point x="1208" y="400" type="curve" smooth="yes"/>
      <point x="1208" y="119"/>
      <point x="1018" y="-29"/>
      <point x="723" y="-29" type="curve"/>
    </contour>
    <contour>
      <point x="849" y="925" type="curve"/>
      <point x="884" y="997"/>
      <point x="900" y="1081"/>
      <point x="900" y="1157" type="curve" smooth="yes" name="hr03"/>
      <point x="900" y="1265"/>
      <point x="865" y="1336"/>
      <point x="820" y="1336" type="curve" smooth="yes"/>
      <point x="772" y="1336"/>
      <point x="743" y="1253"/>
      <point x="743" y="1163" type="curve" smooth="yes"/>
      <point x="743" y="1063"/>
      <point x="778" y="984"/>
    </contour>
  </outline>
</glyph>
<glyph name="uni20B4" format="1">
  <advance width="1233"/>
  <unicode hex="20B4"/>
  <outline>
    <contour>
      <point x="655" y="-29" type="curve" smooth="yes" name="dv01"/>
      <point x="312" y="-29" name="sh01"/>
      <point x="129" y="119" name="dv03"/>
      <point x="129" y="420" type="curve" smooth="yes"/>
      <point x="129" y="438" type="line"/>
      <point x="0" y="438" type="line" name="dv04"/>
      <point x="0" y="632" type="line"/>
      <point x="174" y="632" type="line" name="ih01"/>
      <point x="201" y="677"/>
      <point x="206" y="685"/>
      <point x="214" y="695" type="curve" smooth="yes" name="sh03"/>
      <point x="261" y="758" name="ah02"/>
      <point x="347" y="818" name="sv01"/>
      <point x="455" y="861" type="curve" name="ih02"/>
      <point x="0" y="861" type="line"/>
      <point x="0" y="1055" type="line" name="at01"/>
      <point x="811" y="1055" type="line" name="sh02"/>
      <point x="818" y="1071" name="sh05"/>
      <point x="821" y="1090"/>
      <point x="821" y="1111" type="curve" smooth="yes"/>
      <point x="821" y="1218" name="dv05"/>
      <point x="744" y="1276"/>
      <point x="600" y="1276" type="curve" smooth="yes"/>
      <point x="471" y="1276" name="ih03"/>
      <point x="341" y="1228"/>
      <point x="213" y="1139" type="curve" name="sv02"/>
      <point x="213" y="1427" type="line" name="sh06"/>
      <point x="349" y="1488" name="sh04"/>
      <point x="486" y="1520" name="dv02"/>
      <point x="622" y="1520" type="curve" smooth="yes" name="sh07"/>
      <point x="926" y="1520"/>
      <point x="1110" y="1356"/>
      <point x="1110" y="1085" type="curve" smooth="yes" name="ah01"/>
      <point x="1110" y="1074" name="sh08"/>
      <point x="1110" y="1066"/>
      <point x="1109" y="1055" type="curve"/>
      <point x="1233" y="1055" type="line"/>
      <point x="1233" y="861" type="line"/>
      <point x="1052" y="861" type="line"/>
      <point x="1049" y="857"/>
      <point x="1038" y="842"/>
      <point x="1031" y="834" type="curve" smooth="yes"/>
      <point x="979" y="774"/>
      <point x="888" y="715"/>
      <point x="729" y="655" type="curve" smooth="yes"/>
      <point x="668" y="632" type="line"/>
      <point x="1233" y="632" type="line"/>
      <point x="1233" y="438" type="line"/>
      <point x="431" y="438" type="line"/>
      <point x="429" y="427"/>
      <point x="428" y="415"/>
      <point x="428" y="402" type="curve" smooth="yes"/>
      <point x="428" y="283"/>
      <point x="509" y="215"/>
      <point x="662" y="215" type="curve" smooth="yes"/>
      <point x="802" y="215"/>
      <point x="951" y="272"/>
      <point x="1104" y="381" type="curve"/>
      <point x="1104" y="76" type="line"/>
      <point x="951" y="0"/>
      <point x="810" y="-29"/>
    </contour>
  </outline>
</glyph>
<glyph name="Omega" format="1">
  <advance width="1233"/>
  <unicode hex="2126"/>
  <outline>
    <contour>
      <point x="90" y="211" type="line" name="sh01"/>
      <point x="328" y="211" type="line" name="ih01"/>
      <point x="173" y="350" name="dh01"/>
      <point x="100" y="523" name="dv02"/>
      <point x="100" y="777" type="curve" smooth="yes" name="dh04"/>
      <point x="100" y="1201" name="ih02"/>
      <point x="301" y="1460" name="sh02"/>
      <point x="615" y="1460" type="curve" smooth="yes" name="ab01"/>
      <point x="931" y="1460"/>
      <point x="1133" y="1201" name="dh03"/>
      <point x="1133" y="777" type="curve" smooth="yes" name="sh03"/>
      <point x="1133" y="521" name="dv01"/>
      <point x="1059" y="349" name="dh02"/>
      <point x="905" y="211" type="curve" name="sh04"/>
      <point x="1143" y="211" type="line" name="ab02"/>
      <point x="1143" y="0" type="line"/>
      <point x="672" y="0" type="line"/>
      <point x="672" y="268" type="line" name="sh05"/>
      <point x="780" y="373"/>
      <point x="831" y="524"/>
      <point x="831" y="751" type="curve" smooth="yes"/>
      <point x="831" y="1031"/>
      <point x="752" y="1194"/>
      <point x="616" y="1194" type="curve" smooth="yes"/>
      <point x="480" y="1194"/>
      <point x="401" y="1031"/>
      <point x="401" y="752" type="curve" smooth="yes"/>
      <point x="401" y="536"/>
      <point x="447" y="377"/>
      <point x="563" y="268" type="curve"/>
      <point x="563" y="0" type="line"/>
      <point x="90" y="0" type="line"/>
    </contour>
  </outline>
</glyph>
<glyph name="uni2155" format="1">
  <advance width="1233"/>
  <unicode hex="2155"/>
  <outline>
    <contour>
      <point x="55" y="969" type="line" name="sh01"/>
      <point x="281" y="969" type="line" name="sh02"/>
      <point x="281" y="1512" type="line"/>
      <point x="61" y="1469" type="line"/>
      <point x="61" y="1618" type="line" name="dh01"/>
      <point x="283" y="1659" type="line" name="av01"/>
      <point x="477" y="1659" type="line" name="dh02"/>
      <point x="477" y="969" type="line"/>
      <point x="703" y="969" type="line" name="sh03"/>
      <point x="703" y="824" type="line" name="dv07"/>
      <point x="55" y="824" type="line"/>
    </contour>
    <contour>
      <point x="47" y="618" type="line"/>
      <point x="1106" y="881" type="line"/>
      <point x="1143" y="762" type="line"/>
      <point x="84" y="500" type="line"/>
    </contour>
    <contour>
      <point x="758" y="-285" type="curve" smooth="yes" name="dv01"/>
      <point x="678" y="-285"/>
      <point x="587" y="-273" name="ih01"/>
      <point x="494" y="-249" type="curve" name="dv02"/>
      <point x="494" y="-101" type="line" name="dh05"/>
      <point x="562" y="-129" name="dv03"/>
      <point x="649" y="-147" name="dh03"/>
      <point x="732" y="-147" type="curve" smooth="yes"/>
      <point x="873" y="-147" name="dv06"/>
      <point x="948" y="-95" name="dv05"/>
      <point x="948" y="-4" type="curve" smooth="yes"/>
      <point x="948" y="89" name="dh04"/>
      <point x="869" y="143" name="dv04"/>
      <point x="742" y="143" type="curve" smooth="yes" name="dh06"/>
      <point x="675" y="143"/>
      <point x="601" y="128"/>
      <point x="528" y="100" type="curve" name="sh04"/>
      <point x="528" y="565" type="line"/>
      <point x="1083" y="565" type="line"/>
      <point x="1083" y="420" type="line"/>
      <point x="692" y="420" type="line"/>
      <point x="692" y="266" type="line"/>
      <point x="724" y="275"/>
      <point x="759" y="281"/>
      <point x="806" y="281" type="curve" smooth="yes" name="hr01"/>
      <point x="1004" y="281"/>
      <point x="1145" y="167"/>
      <point x="1145" y="-4" type="curve" smooth="yes"/>
      <point x="1145" y="-177"/>
      <point x="999" y="-285"/>
    </contour>
  </outline>
</glyph>
<glyph name="uni2158" format="1">
  <advance width="1233"/>
  <unicode hex="2158"/>
  <outline>
    <contour>
      <point x="381" y="1004" type="line" name="dh01"/>
      <point x="-12" y="1004" type="line"/>
      <point x="-12" y="1166" type="line"/>
      <point x="363" y="1659" type="line" name="av01"/>
      <point x="567" y="1659" type="line" name="sh01"/>
      <point x="567" y="1147" type="line" name="at01"/>
      <point x="676" y="1147" type="line"/>
      <point x="676" y="1004" type="line" name="sv01"/>
      <point x="567" y="1004" type="line" name="dh02"/>
      <point x="567" y="824" type="line"/>
      <point x="381" y="824" type="line"/>
    </contour>
    <contour>
      <point x="381" y="1147" type="line" name="sh02"/>
      <point x="381" y="1477" type="line"/>
      <point x="131" y="1147" type="line"/>
    </contour>
    <contour>
      <point x="47" y="618" type="line"/>
      <point x="1106" y="881" type="line"/>
      <point x="1143" y="762" type="line"/>
      <point x="84" y="500" type="line"/>
    </contour>
    <contour>
      <point x="758" y="-285" type="curve" smooth="yes" name="dv01"/>
      <point x="678" y="-285"/>
      <point x="587" y="-273" name="ih01"/>
      <point x="494" y="-249" type="curve" name="dv02"/>
      <point x="494" y="-101" type="line" name="dh03"/>
      <point x="562" y="-129" name="dv03"/>
      <point x="649" y="-147" name="ih02"/>
      <point x="732" y="-147" type="curve" smooth="yes"/>
      <point x="873" y="-147" name="dv06"/>
      <point x="948" y="-95" name="dv05"/>
      <point x="948" y="-4" type="curve" smooth="yes"/>
      <point x="948" y="89" name="sh03"/>
      <point x="869" y="143" name="dv04"/>
      <point x="742" y="143" type="curve" smooth="yes" name="dh04"/>
      <point x="675" y="143"/>
      <point x="601" y="128"/>
      <point x="528" y="100" type="curve" name="sh04"/>
      <point x="528" y="565" type="line"/>
      <point x="1083" y="565" type="line"/>
      <point x="1083" y="420" type="line"/>
      <point x="692" y="420" type="line"/>
      <point x="692" y="266" type="line"/>
      <point x="724" y="275"/>
      <point x="759" y="281"/>
      <point x="806" y="281" type="curve" smooth="yes"/>
      <point x="1004" y="281"/>
      <point x="1145" y="167"/>
      <point x="1145" y="-4" type="curve" smooth="yes"/>
      <point x="1145" y="-177"/>
      <point x="999" y="-285"/>
    </contour>
  </outline>
</glyph>
<glyph name="uni21B1" format="1">
  <advance width="1233"/>
  <unicode hex="21B1"/>
  <outline>
    <contour>
      <point x="154" y="1161" type="line" name="dh01"/>
      <point x="768" y="1161" type="line" name="dv02"/>
      <point x="638" y="1291" type="line"/>
      <point x="758" y="1411" type="line" name="av01"/>
      <point x="1050" y="1120" type="line"/>
      <point x="1050" y="978" type="line"/>
      <point x="758" y="687" type="line"/>
      <point x="638" y="807" type="line"/>
      <point x="768" y="937" type="line" name="dv01"/>
      <point x="378" y="937" type="line" name="dh02"/>
      <point x="378" y="0" type="line" name="ab01"/>
      <point x="154" y="0" type="line"/>
    </contour>
  </outline>
</glyph>
<glyph name="uni21C5" format="1">
  <advance width="1233"/>
  <unicode hex="21C5"/>
  <outline>
    <contour>
      <point x="262" y="820" type="line" name="sh01"/>
      <point x="132" y="690" type="line"/>
      <point x="12" y="810" type="line"/>
      <point x="304" y="1101" type="line" name="av01"/>
      <point x="446" y="1101" type="line"/>
      <point x="736" y="810" type="line" name="sh02"/>
      <point x="616" y="690" type="line"/>
      <point x="486" y="820" type="line" name="sh03"/>
      <point x="486" y="0" type="line" name="ab01"/>
      <point x="262" y="0" type="line"/>
    </contour>
    <contour>
      <point x="496" y="291" type="line" name="sh04"/>
      <point x="616" y="411" type="line"/>
      <point x="746" y="281" type="line" name="ah01"/>
      <point x="746" y="1101" type="line" name="av02"/>
      <point x="970" y="1101" type="line"/>
      <point x="970" y="281" type="line" name="sh05"/>
      <point x="1100" y="411" type="line"/>
      <point x="1220" y="291" type="line"/>
      <point x="930" y="0" type="line" name="ab02"/>
      <point x="788" y="0" type="line"/>
    </contour>
  </outline>
</glyph>
<glyph name="uni21D5" format="1">
  <advance width="1233"/>
  <unicode hex="21D5"/>
  <outline>
    <contour>
      <point x="254" y="291" type="line" name="hr00"/>
      <point x="374" y="411" type="line"/>
      <point x="442" y="343" type="line" name="sh01"/>
      <point x="442" y="758" type="line" name="iv01"/>
      <point x="374" y="690" type="line"/>
      <point x="254" y="810" type="line"/>
      <point x="546" y="1101" type="line" name="sh03"/>
      <point x="688" y="1101" type="line" name="sh04"/>
      <point x="978" y="810" type="line"/>
      <point x="858" y="690" type="line"/>
      <point x="790" y="758" type="line" name="iv02"/>
      <point x="790" y="343" type="line" name="sh05"/>
      <point x="858" y="411" type="line"/>
      <point x="978" y="291" type="line"/>
      <point x="688" y="0" type="line" name="sh06"/>
      <point x="546" y="0" type="line" name="sh07"/>
    </contour>
    <contour>
      <point x="689" y="241" type="line" name="ah01"/>
      <point x="689" y="860" type="line"/>
      <point x="616" y="932" type="line"/>
      <point x="544" y="860" type="line"/>
      <point x="544" y="241" type="line" name="sh02"/>
      <point x="616" y="169" type="line"/>
    </contour>
  </outline>
</glyph>
<glyph name="uni21F1" format="1">
  <advance width="1233"/>
  <unicode hex="21F1"/>
  <outline>
    <contour>
      <point x="40" y="1124" type="line" name="dh01"/>
      <point x="1163" y="1124" type="line"/>
      <point x="1163" y="1021" type="line" name="sv01"/>
      <point x="143" y="1021" type="line" name="dh02"/>
      <point x="143" y="0" type="line" name="ab02"/>
      <point x="40" y="0" type="line"/>
    </contour>
    <contour>
      <point x="455" y="552" type="line" name="iv01"/>
      <point x="455" y="365" type="line" name="dh04"/>
      <point x="268" y="365" type="line" name="dh03"/>
      <point x="268" y="777" type="line"/>
      <point x="386" y="895" type="line" name="hr01"/>
      <point x="798" y="895" type="line" name="dv02"/>
      <point x="798" y="708" type="line" name="dv01"/>
      <point x="611" y="708" type="line"/>
      <point x="1183" y="136" type="line"/>
      <point x="1027" y="-20" type="line" name="ab01"/>
    </contour>
  </outline>
</glyph>
<glyph name="uni21FF" format="1">
  <advance width="1233"/>
  <unicode hex="21FF"/>
  <outline>
    <contour>
      <point x="5" y="561" type="line" name="hr00"/>
      <point x="408" y="984" type="line" name="av01"/>
      <point x="408" y="673" type="line" name="sh02"/>
      <point x="825" y="673" type="line" name="ah01"/>
      <point x="825" y="984" type="line" name="av02"/>
      <point x="1228" y="561" type="line"/>
      <point x="825" y="138" type="line" name="sh03"/>
      <point x="825" y="449" type="line" name="dv01"/>
      <point x="408" y="449" type="line" name="sh04"/>
      <point x="408" y="138" type="line" name="ih01"/>
    </contour>
    <contour>
      <point x="309" y="746" type="line" name="sh01"/>
      <point x="145" y="561" type="line"/>
      <point x="309" y="376" type="line" name="iv01"/>
    </contour>
    <contour>
      <point x="1088" y="561" type="line"/>
      <point x="924" y="746" type="line" name="sh05"/>
      <point x="924" y="376" type="line" name="iv02"/>
    </contour>
  </outline>
</glyph>
<glyph name="suchthat" format="1">
  <advance width="1233"/>
  <unicode hex="220B"/>
  <outline>
    <contour>
      <point x="100" y="230" type="line" name="sv01"/>
      <point x="597" y="230" type="line" smooth="yes"/>
      <point x="707" y="230"/>
      <point x="806" y="330" name="dv03"/>
      <point x="862" y="495" type="curve" smooth="yes"/>
      <point x="878" y="543"/>
      <point x="889" y="594" name="dv04"/>
      <point x="896" y="647" type="curve"/>
      <point x="100" y="647" type="line" name="dv01"/>
      <point x="100" y="877" type="line"/>
      <point x="896" y="877" type="line"/>
      <point x="883" y="979" name="dv02"/>
      <point x="847" y="1127"/>
      <point x="751" y="1223" type="curve" smooth="yes"/>
      <point x="704" y="1270"/>
      <point x="652" y="1294" name="ab01"/>
      <point x="597" y="1294" type="curve" smooth="yes"/>
      <point x="100" y="1294" type="line"/>
      <point x="100" y="1524" type="line"/>
      <point x="597" y="1524" type="line" smooth="yes"/>
      <point x="791" y="1524"/>
      <point x="965" y="1379"/>
      <point x="1061" y="1145" type="curve" smooth="yes"/>
      <point x="1109" y="1028"/>
      <point x="1133" y="901"/>
      <point x="1133" y="764" type="curve" smooth="yes"/>
      <point x="1133" y="485"/>
      <point x="1029" y="239"/>
      <point x="866" y="102" type="curve" smooth="yes"/>
      <point x="784" y="34"/>
      <point x="694" y="0"/>
      <point x="597" y="0" type="curve" smooth="yes"/>
      <point x="100" y="0" type="line"/>
    </contour>
  </outline>
</glyph>
<glyph name="asteriskmath" format="1">
  <advance width="1233"/>
  <unicode hex="2217"/>
  <outline>
    <contour>
      <point x="528" y="502" type="line" name="dh01"/>
      <point x="197" y="318" type="line"/>
      <point x="121" y="459" type="line"/>
      <point x="453" y="633" type="line" name="iv01"/>
      <point x="121" y="806" type="line"/>
      <point x="197" y="947" type="line"/>
      <point x="528" y="765" type="line" name="sh01"/>
      <point x="528" y="1109" type="line" name="av01"/>
      <point x="700" y="1109" type="line" name="sh02"/>
      <point x="700" y="765" type="line" name="iv02"/>
      <point x="1032" y="947" type="line"/>
      <point x="1108" y="806" type="line"/>
      <point x="778" y="633" type="line" name="iv03"/>
      <point x="1108" y="459" type="line"/>
      <point x="1032" y="318" type="line"/>
      <point x="700" y="502" type="line" name="dh02"/>
      <point x="700" y="158" type="line" name="av02"/>
      <point x="528" y="158" type="line"/>
    </contour>
  </outline>
</glyph>
<glyph name="therefore" format="1">
  <advance width="1233"/>
  <unicode hex="2234"/>
  <outline>
    <contour>
      <point x="478" y="822" type="line" smooth="yes" name="dv03"/>
      <point x="458" y="822" name="ih01"/>
      <point x="448" y="832"/>
      <point x="448" y="852" type="curve" smooth="yes" name="dv04"/>
      <point x="448" y="1157" type="line" smooth="yes"/>
      <point x="448" y="1177"/>
      <point x="458" y="1187" name="sh01"/>
      <point x="478" y="1187" type="curve" smooth="yes"/>
      <point x="751" y="1187" type="line" smooth="yes" name="dv01"/>
      <point x="771" y="1187" name="dh01"/>
      <point x="781" y="1177"/>
      <point x="781" y="1157" type="curve" smooth="yes" name="dv02"/>
      <point x="781" y="852" type="line" smooth="yes"/>
      <point x="781" y="832"/>
      <point x="771" y="822" name="dh02"/>
      <point x="751" y="822" type="curve" smooth="yes"/>
    </contour>
    <contour>
      <point x="177" y="105" type="line" smooth="yes" name="sv01"/>
      <point x="157" y="105" name="dh03"/>
      <point x="147" y="115"/>
      <point x="147" y="135" type="curve" smooth="yes" name="sv02"/>
      <point x="147" y="440" type="line" smooth="yes"/>
      <point x="147" y="460"/>
      <point x="157" y="470" name="dh04"/>
      <point x="177" y="470" type="curve" smooth="yes"/>
      <point x="450" y="470" type="line" smooth="yes"/>
      <point x="470" y="470" name="sh02"/>
      <point x="480" y="460"/>
      <point x="480" y="440" type="curve" smooth="yes"/>
      <point x="480" y="135" type="line" smooth="yes"/>
      <point x="480" y="115"/>
      <point x="470" y="105"/>
      <point x="450" y="105" type="curve" smooth="yes"/>
    </contour>
    <contour>
      <point x="787" y="105" type="line" smooth="yes"/>
      <point x="767" y="105"/>
      <point x="757" y="115"/>
      <point x="757" y="135" type="curve" smooth="yes" name="hr01"/>
      <point x="757" y="440" type="line" smooth="yes"/>
      <point x="757" y="460"/>
      <point x="767" y="470"/>
      <point x="787" y="470" type="curve" smooth="yes"/>
      <point x="1060" y="470" type="line" smooth="yes"/>
      <point x="1080" y="470"/>
      <point x="1090" y="460"/>
      <point x="1090" y="440" type="curve" smooth="yes"/>
      <point x="1090" y="135" type="line" smooth="yes"/>
      <point x="1090" y="115"/>
      <point x="1080" y="105"/>
      <point x="1060" y="105" type="curve" smooth="yes"/>
    </contour>
  </outline>
</glyph>
<glyph name="uni223B" format="1">
  <advance width="1233"/>
  <unicode hex="223B"/>
  <outline>
    <contour>
      <point x="481" y="912" type="line" smooth="yes" name="dv01"/>
      <point x="461" y="912" name="dh01"/>
      <point x="451" y="922"/>
      <point x="451" y="942" type="curve" smooth="yes" name="dv02"/>
      <point x="451" y="1247" type="line" smooth="yes"/>
      <point x="451" y="1267"/>
      <point x="461" y="1277" name="dh02"/>
      <point x="481" y="1277" type="curve" smooth="yes"/>
      <point x="754" y="1277" type="line" smooth="yes" name="dv03"/>
      <point x="774" y="1277"/>
      <point x="784" y="1267"/>
      <point x="784" y="1247" type="curve" smooth="yes" name="dv05"/>
      <point x="784" y="942" type="line" smooth="yes" name="iv01"/>
      <point x="784" y="922"/>
      <point x="774" y="912" name="dv06"/>
      <point x="754" y="912" type="curve" smooth="yes"/>
    </contour>
    <contour>
      <point x="850" y="468" type="curve" smooth="yes"/>
      <point x="778" y="468"/>
      <point x="726" y="484" name="dv04"/>
      <point x="645" y="519" type="curve" smooth="yes"/>
      <point x="612" y="533" type="line" smooth="yes"/>
      <point x="522" y="570"/>
      <point x="468" y="591" name="ab01"/>
      <point x="385" y="591" type="curve" smooth="yes" name="sh01"/>
      <point x="280" y="591"/>
      <point x="192" y="558" name="sv01"/>
      <point x="88" y="470" type="curve"/>
      <point x="88" y="699" type="line" name="sh02"/>
      <point x="192" y="779"/>
      <point x="287" y="814"/>
      <point x="390" y="814" type="curve" smooth="yes"/>
      <point x="463" y="814"/>
      <point x="533" y="796"/>
      <point x="621" y="759" type="curve" name="hr01"/>
      <point x="622" y="759" type="line"/>
      <point x="652" y="745" type="line" smooth="yes"/>
      <point x="725" y="710"/>
      <point x="797" y="691"/>
      <point x="865" y="691" type="curve" smooth="yes"/>
      <point x="958" y="691"/>
      <point x="1045" y="728"/>
      <point x="1145" y="816" type="curve"/>
      <point x="1145" y="582" type="line"/>
      <point x="1053" y="509"/>
      <point x="959" y="468"/>
    </contour>
    <contour>
      <point x="480" y="0" type="line" smooth="yes"/>
      <point x="460" y="0"/>
      <point x="450" y="10"/>
      <point x="450" y="30" type="curve" smooth="yes"/>
      <point x="450" y="335" type="line" smooth="yes"/>
      <point x="450" y="355"/>
      <point x="460" y="365"/>
      <point x="480" y="365" type="curve" smooth="yes"/>
      <point x="753" y="365" type="line" smooth="yes"/>
      <point x="773" y="365"/>
      <point x="783" y="355"/>
      <point x="783" y="335" type="curve" smooth="yes"/>
      <point x="783" y="30" type="line" smooth="yes"/>
      <point x="783" y="10"/>
      <point x="773" y="0"/>
      <point x="753" y="0" type="curve" smooth="yes"/>
    </contour>
  </outline>
</glyph>
<glyph name="uni225B" format="1">
  <advance width="1233"/>
  <unicode hex="225B"/>
  <outline>
    <contour>
      <point x="455" y="1419" type="line" name="hr00"/>
      <point x="194" y="1609" type="line"/>
      <point x="517" y="1609" type="line"/>
      <point x="617" y="1915" type="line" name="av01"/>
      <point x="719" y="1609" type="line"/>
      <point x="1040" y="1609" type="line"/>
      <point x="779" y="1419" type="line"/>
      <point x="881" y="1112" type="line"/>
      <point x="617" y="1302" type="line"/>
      <point x="355" y="1112" type="line"/>
    </contour>
    <contour>
      <point x="88" y="987" type="line"/>
      <point x="1145" y="987" type="line" name="dv04"/>
      <point x="1145" y="752" type="line" name="dv03"/>
      <point x="88" y="752" type="line"/>
    </contour>
    <contour>
      <point x="88" y="532" type="line"/>
      <point x="1145" y="532" type="line" name="dv02"/>
      <point x="1145" y="295" type="line" name="dv01"/>
      <point x="88" y="295" type="line"/>
    </contour>
  </outline>
</glyph>
<glyph name="uni22A2" format="1">
  <advance width="1233"/>
  <unicode hex="22A2"/>
  <outline>
    <contour>
      <point x="66" y="1284" type="line" name="dh01"/>
      <point x="303" y="1284" type="line" name="dh02"/>
      <point x="303" y="762" type="line"/>
      <point x="1165" y="762" type="line" name="dv02"/>
      <point x="1165" y="524" type="line" name="dv01"/>
      <point x="303" y="524" type="line" name="sh01"/>
      <point x="303" y="0" type="line" name="ab01"/>
      <point x="66" y="0" type="line"/>
    </contour>
  </outline>
</glyph>
<glyph name="uni22B3" format="1">
  <advance width="1233"/>
  <unicode hex="22B3"/>
  <outline>
    <contour>
      <point x="88" y="1176" type="line" name="dh01"/>
      <point x="1145" y="760" type="line"/>
      <point x="1145" y="524" type="line"/>
      <point x="88" y="109" type="line" name="av01"/>
    </contour>
    <contour>
      <point x="883" y="641" type="line" name="iv01"/>
      <point x="325" y="841" type="line" name="dh02"/>
      <point x="325" y="442" type="line" name="iv02"/>
    </contour>
  </outline>
</glyph>
<glyph name="uni230B" format="1">
  <advance width="1233"/>
  <unicode hex="230B"/>
  <outline>
    <contour>
      <point x="303" y="-80" type="line"/>
      <point x="545" y="-80" type="line" name="sh01"/>
      <point x="545" y="1556" type="line" name="at01"/>
      <point x="811" y="1556" type="line" name="hr01"/>
      <point x="811" y="-270" type="line" name="dh02"/>
      <point x="303" y="-270" type="line" name="dh01"/>
    </contour>
  </outline>
</glyph>
<glyph name="integralbt" format="1">
  <advance width="1233"/>
  <unicode hex="2321"/>
  <outline>
    <contour>
      <point x="288" y="-490" type="curve" smooth="yes" name="ab01"/>
      <point x="153" y="-490"/>
      <point x="67" y="-419"/>
      <point x="67" y="-315" type="curve" smooth="yes"/>
      <point x="67" y="-231"/>
      <point x="122" y="-179" name="sv01"/>
      <point x="202" y="-179" type="curve" smooth="yes" name="sh01"/>
      <point x="271" y="-179" name="dh01"/>
      <point x="310" y="-217" name="av01"/>
      <point x="323" y="-272" type="curve" smooth="yes"/>
      <point x="326" y="-285" name="dh02"/>
      <point x="329" y="-307" name="sh02"/>
      <point x="330" y="-326" type="curve"/>
      <point x="333" y="-353"/>
      <point x="340" y="-372"/>
      <point x="359" y="-372" type="curve" smooth="yes"/>
      <point x="422" y="-372"/>
      <point x="460" y="-166"/>
      <point x="479" y="262" type="curve" smooth="yes"/>
      <point x="483" y="357"/>
      <point x="485" y="416"/>
      <point x="485" y="440" type="curve" smooth="yes"/>
      <point x="485" y="1926" type="line"/>
      <point x="741" y="1926" type="line"/>
      <point x="741" y="677" type="line" smooth="yes"/>
      <point x="741" y="672"/>
      <point x="739" y="605"/>
      <point x="734" y="465" type="curve" smooth="yes"/>
      <point x="721" y="128"/>
      <point x="685" y="-113"/>
      <point x="612" y="-266" type="curve" smooth="yes"/>
      <point x="543" y="-411"/>
      <point x="432" y="-490"/>
    </contour>
  </outline>
</glyph>
<glyph name="uni250B" format="1">
  <advance width="1233"/>
  <unicode hex="250B"/>
  <outline>
    <contour>
      <point x="456" y="1810" type="line" name="dh01"/>
      <point x="776" y="1810" type="line" name="dh02"/>
      <point x="776" y="1392" type="line" name="dv02"/>
      <point x="456" y="1392" type="line"/>
    </contour>
    <contour>
      <point x="456" y="1212" type="line" name="sh01"/>
      <point x="776" y="1212" type="line" name="sh02"/>
      <point x="776" y="794" type="line" name="dv04"/>
      <point x="456" y="794" type="line"/>
    </contour>
    <contour>
      <point x="456" y="614" type="line" name="sh03"/>
      <point x="776" y="614" type="line" name="sh04"/>
      <point x="776" y="196" type="line" name="dv03"/>
      <point x="456" y="196" type="line"/>
    </contour>
    <contour>
      <point x="456" y="16" type="line" name="sh05"/>
      <point x="776" y="16" type="line" name="sh06"/>
      <point x="776" y="-402" type="line" name="dv01"/>
      <point x="456" y="-402" type="line"/>
    </contour>
  </outline>
</glyph>
<glyph name="uni2513" format="1">
  <advance width="1233"/>
  <unicode hex="2513"/>
  <outline>
    <contour>
      <point x="456" y="532" type="line" name="dh01"/>
      <point x="-20" y="532" type="line"/>
      <point x="-20" y="876" type="line"/>
      <point x="776" y="876" type="line" name="dh02"/>
      <point x="776" y="-512" type="line" name="av01"/>
      <point x="456" y="-512" type="line"/>
    </contour>
  </outline>
</glyph>
<glyph name="uni2546" format="1">
  <advance width="1233"/>
  <unicode hex="2546"/>
  <outline>
    <contour>
      <point x="456" y="618" type="line" name="dh01"/>
      <point x="-20" y="618" type="line"/>
      <point x="-20" y="790" type="line"/>
      <point x="456" y="790" type="line" name="sh01"/>
      <point x="456" y="876" type="line" name="sv01"/>
      <point x="536" y="876" type="line" name="ih01"/>
      <point x="536" y="1921" type="line" name="av01"/>
      <point x="696" y="1921" type="line"/>
      <point x="696" y="876" type="line" name="sh02"/>
      <point x="1253" y="876" type="line" name="dv02"/>
      <point x="1253" y="532" type="line" name="dv01"/>
      <point x="776" y="532" type="line" name="dh02"/>
      <point x="776" y="-512" type="line" name="av02"/>
      <point x="456" y="-512" type="line"/>
    </contour>
  </outline>
</glyph>
<glyph name="uni25B5" format="1">
  <advance width="1233"/>
  <unicode hex="25B5"/>
  <outline>
    <contour>
      <point x="616" y="929" type="line" name="av01"/>
      <point x="1013" y="135" type="line" name="dv01"/>
      <point x="219" y="135" type="line"/>
    </contour>
    <contour>
      <point x="842" y="249" type="line" name="dv02"/>
      <point x="616" y="701" type="line"/>
      <point x="390" y="249" type="line"/>
    </contour>
  </outline>
</glyph>
<glyph name="uni25F5" format="1">
  <advance width="1233"/>
  <unicode hex="25F5"/>
  <outline>
    <contour>
      <point x="617" y="-84" type="curve" smooth="yes" name="av01"/>
      <point x="524" y="-84"/>
      <point x="413" y="-55"/>
      <point x="310" y="2" type="curve" smooth="yes"/>
      <point x="118" y="109" name="dv02"/>
      <point x="6" y="301"/>
      <point x="6" y="532" type="curve" smooth="yes" name="sh01"/>
      <point x="6" y="765"/>
      <point x="118" y="953"/>
      <point x="310" y="1062" type="curve"/>
      <point x="413" y="1119"/>
      <point x="524" y="1148" name="ah02"/>
      <point x="617" y="1148" type="curve" smooth="yes"/>
      <point x="710" y="1148" name="dv01"/>
      <point x="818" y="1120"/>
      <point x="922" y="1061" type="curve" smooth="yes" name="sh03"/>
      <point x="1117" y="952" name="sh02"/>
      <point x="1227" y="772"/>
      <point x="1227" y="532" type="curve" smooth="yes"/>
      <point x="1227" y="292"/>
      <point x="1117" y="112" name="ah01"/>
      <point x="922" y="3" type="curve" smooth="yes" name="sh04"/>
      <point x="818" y="-56"/>
      <point x="710" y="-84"/>
    </contour>
    <contour>
      <point x="673" y="43" type="line"/>
      <point x="733" y="51"/>
      <point x="805" y="78"/>
      <point x="861" y="110" type="curve" smooth="yes"/>
      <point x="1008" y="193"/>
      <point x="1105" y="334"/>
      <point x="1105" y="530" type="curve" smooth="yes"/>
      <point x="1105" y="713"/>
      <point x="1022" y="863"/>
      <point x="861" y="955" type="curve" smooth="yes"/>
      <point x="778" y="1002"/>
      <point x="691" y="1025"/>
      <point x="615" y="1025" type="curve" smooth="yes"/>
      <point x="448" y="1025"/>
      <point x="159" y="903"/>
      <point x="131" y="588" type="curve"/>
      <point x="673" y="588" type="line"/>
    </contour>
    <contour>
      <point x="559" y="474" type="line"/>
      <point x="131" y="474" type="line"/>
      <point x="146" y="316"/>
      <point x="226" y="195"/>
      <point x="372" y="110" type="curve" smooth="yes"/>
      <point x="433" y="75"/>
      <point x="496" y="52"/>
      <point x="559" y="43" type="curve"/>
    </contour>
  </outline>
</glyph>
<glyph name="uni2775" format="1">
  <advance width="1233"/>
  <unicode hex="2775"/>
  <outline>
    <contour>
      <point x="250" y="-204" type="line" name="dh01"/>
      <point x="303" y="-204" type="line" smooth="yes" name="dv02"/>
      <point x="450" y="-204" name="sh01"/>
      <point x="480" y="-167" name="sh03"/>
      <point x="480" y="4" type="curve" smooth="yes" name="ih01"/>
      <point x="480" y="230" type="line" smooth="yes" name="sh02"/>
      <point x="480" y="419" name="sh04"/>
      <point x="520" y="494"/>
      <point x="636" y="526" type="curve" name="sh05"/>
      <point x="523" y="556" name="dv03"/>
      <point x="480" y="629"/>
      <point x="480" y="821" type="curve" smooth="yes" name="sh06"/>
      <point x="480" y="1046" type="line" smooth="yes"/>
      <point x="480" y="1218"/>
      <point x="450" y="1255" name="dv04"/>
      <point x="303" y="1255" type="curve" smooth="yes" name="sh07"/>
      <point x="250" y="1255" type="line" name="hr02"/>
      <point x="250" y="1385" type="line"/>
      <point x="415" y="1385" type="line" smooth="yes" name="dh02"/>
      <point x="674" y="1385"/>
      <point x="741" y="1318" name="dv01"/>
      <point x="741" y="1050" type="curve" smooth="yes"/>
      <point x="741" y="831" type="line" smooth="yes"/>
      <point x="741" y="651"/>
      <point x="787" y="591"/>
      <point x="936" y="591" type="curve" smooth="yes"/>
      <point x="983" y="591" type="line" name="hr03"/>
      <point x="983" y="461" type="line"/>
      <point x="936" y="461" type="line" smooth="yes"/>
      <point x="788" y="461"/>
      <point x="741" y="402"/>
      <point x="741" y="218" type="curve" smooth="yes"/>
      <point x="741" y="1" type="line" smooth="yes"/>
      <point x="741" y="-267"/>
      <point x="674" y="-335"/>
      <point x="415" y="-335" type="curve" smooth="yes"/>
      <point x="250" y="-335" type="line" name="hr04"/>
    </contour>
  </outline>
</glyph>
<glyph name="uni27AE" format="1">
  <advance width="1233"/>
  <unicode hex="27AE"/>
  <outline>
    <contour>
      <point x="581" y="259" type="line" name="ah01"/>
      <point x="85" y="259" type="line" name="sh01"/>
      <point x="85" y="795" type="line"/>
      <point x="166" y="958" type="line"/>
      <point x="598" y="958" type="line" name="dv03"/>
      <point x="662" y="1086" type="line" name="av02"/>
      <point x="752" y="1086" type="line"/>
      <point x="1148" y="689" type="line"/>
      <point x="1067" y="527" type="line"/>
      <point x="671" y="130" type="line" name="av01"/>
      <point x="581" y="130" type="line"/>
    </contour>
    <contour>
      <point x="978" y="527" type="line"/>
      <point x="646" y="858" type="line" name="sh03"/>
      <point x="646" y="730" type="line" name="dv02"/>
      <point x="150" y="730" type="line"/>
      <point x="150" y="324" type="line" name="sh04"/>
      <point x="646" y="324" type="line" name="dv01"/>
      <point x="646" y="195" type="line" name="sh02"/>
    </contour>
  </outline>
</glyph>
